<?xml version="1.0" encoding="utf-8" standalone="no"?>
<!DOCTYPE svg PUBLIC "-//W3C//DTD SVG 1.1//EN"
  "http://www.w3.org/Graphics/SVG/1.1/DTD/svg11.dtd">
<!-- Created with matplotlib (http://matplotlib.org/) -->
<svg height="648pt" version="1.1" viewBox="0 0 864 648" width="864pt" xmlns="http://www.w3.org/2000/svg" xmlns:xlink="http://www.w3.org/1999/xlink">
 <defs>
  <style type="text/css">
*{stroke-linecap:butt;stroke-linejoin:round;}
  </style>
 </defs>
 <g id="figure_1">
  <g id="patch_1">
   <path d="M 0 648 
L 864 648 
L 864 0 
L 0 0 
z
" style="fill:#f5f5f5;"/>
  </g>
  <g id="axes_1">
   <g id="patch_2">
    <path d="M 108 576.72 
L 777.6 576.72 
L 777.6 77.76 
L 108 77.76 
z
" style="fill:none;"/>
   </g>
   <g id="matplotlib.axis_1">
    <g id="xtick_1">
     <g id="line2d_1">
      <path clip-path="url(#p5428f9acf1)" d="M 108 576.72 
L 108 77.76 
" style="fill:none;stroke:#c0c0c0;stroke-linecap:square;stroke-width:0.8;"/>
     </g>
     <g id="text_1">
      <!-- 0 -->
      <defs>
       <path d="M 33.984375 20.515625 
Q 33.6875 9.71875 23.96875 9.625 
Q 14.203125 9.71875 14.015625 20.515625 
L 14.015625 50.6875 
Q 14.203125 61.375 23.96875 61.578125 
Q 33.6875 61.375 33.984375 50.6875 
z
M 3.8125 19.921875 
Q 3.90625 10.109375 10.109375 4.78125 
Q 15.921875 -0.484375 23.96875 -0.59375 
Q 32.28125 -0.484375 38.09375 4.78125 
Q 44 10.109375 44.1875 19.921875 
L 44.1875 51.3125 
Q 44 61.1875 38.09375 66.5 
Q 32.28125 71.78125 23.96875 71.78125 
Q 15.921875 71.78125 10.109375 66.5 
Q 3.90625 61.1875 3.8125 51.3125 
z
" id="DINAlternate-Bold-30"/>
      </defs>
      <g transform="translate(105.6 590.83875)scale(0.1 -0.1)">
       <use xlink:href="#DINAlternate-Bold-30"/>
      </g>
     </g>
    </g>
    <g id="xtick_2">
     <g id="line2d_2">
      <path clip-path="url(#p5428f9acf1)" d="M 203.195031 576.72 
L 203.195031 77.76 
" style="fill:none;stroke:#c0c0c0;stroke-linecap:square;stroke-width:0.8;"/>
     </g>
    </g>
    <g id="xtick_3">
     <g id="line2d_3">
      <path clip-path="url(#p5428f9acf1)" d="M 298.390062 576.72 
L 298.390062 77.76 
" style="fill:none;stroke:#c0c0c0;stroke-linecap:square;stroke-width:0.8;"/>
     </g>
     <g id="text_2">
      <!-- 10 -->
      <defs>
       <path d="M 19.390625 60.40625 
L 19.390625 0 
L 29.59375 0 
L 29.59375 71.1875 
L 19.390625 71.1875 
L 9.28125 63.8125 
L 9.28125 52.984375 
L 9.28125 52.984375 
L 19.390625 60.40625 
z
" id="DINAlternate-Bold-31"/>
      </defs>
      <g transform="translate(293.590062 590.83875)scale(0.1 -0.1)">
       <use xlink:href="#DINAlternate-Bold-31"/>
       <use x="47.998047" xlink:href="#DINAlternate-Bold-30"/>
      </g>
     </g>
    </g>
    <g id="xtick_4">
     <g id="line2d_4">
      <path clip-path="url(#p5428f9acf1)" d="M 393.585093 576.72 
L 393.585093 77.76 
" style="fill:none;stroke:#c0c0c0;stroke-linecap:square;stroke-width:0.8;"/>
     </g>
    </g>
    <g id="xtick_5">
     <g id="line2d_5">
      <path clip-path="url(#p5428f9acf1)" d="M 488.780124 576.72 
L 488.780124 77.76 
" style="fill:none;stroke:#c0c0c0;stroke-linecap:square;stroke-width:0.8;"/>
     </g>
     <g id="text_3">
      <!-- 20 -->
      <defs>
       <path d="M 3.21875 0 
L 43.796875 0 
L 43.796875 10.203125 
L 16.609375 10.203125 
L 39.5 38.921875 
Q 43.796875 44.390625 43.796875 51.421875 
Q 43.703125 60.203125 37.890625 65.921875 
Q 32.171875 71.6875 23 71.78125 
Q 14.796875 71.6875 9.1875 66.015625 
Q 3.609375 60.203125 3.21875 51.3125 
L 13.375 51.3125 
Q 13.921875 56.203125 16.796875 58.890625 
Q 19.578125 61.578125 23.78125 61.578125 
Q 28.515625 61.46875 31.109375 58.5 
Q 33.59375 55.515625 33.59375 51.515625 
Q 33.59375 50 33.203125 48.296875 
Q 32.625 46.484375 31 44.390625 
L 3.21875 9.625 
z
" id="DINAlternate-Bold-32"/>
      </defs>
      <g transform="translate(483.980124 590.83875)scale(0.1 -0.1)">
       <use xlink:href="#DINAlternate-Bold-32"/>
       <use x="47.998047" xlink:href="#DINAlternate-Bold-30"/>
      </g>
     </g>
    </g>
    <g id="xtick_6">
     <g id="line2d_6">
      <path clip-path="url(#p5428f9acf1)" d="M 583.975155 576.72 
L 583.975155 77.76 
" style="fill:none;stroke:#c0c0c0;stroke-linecap:square;stroke-width:0.8;"/>
     </g>
    </g>
    <g id="xtick_7">
     <g id="line2d_7">
      <path clip-path="url(#p5428f9acf1)" d="M 679.170186 576.72 
L 679.170186 77.76 
" style="fill:none;stroke:#c0c0c0;stroke-linecap:square;stroke-width:0.8;"/>
     </g>
     <g id="text_4">
      <!-- 30 percent -->
      <defs>
       <path d="M 17.578125 32.171875 
L 21.875 32.171875 
Q 26.609375 32.171875 29.6875 29.296875 
Q 32.8125 26.3125 32.90625 20.90625 
Q 32.8125 15.578125 29.6875 12.703125 
Q 26.609375 9.625 22.125 9.625 
Q 17.921875 9.625 15.375 11.921875 
Q 12.890625 14.109375 11.53125 17.671875 
L 1.3125 17.671875 
Q 2.984375 8.796875 8.59375 4.109375 
Q 14.203125 -0.59375 21.484375 -0.59375 
Q 30.90625 -0.484375 36.921875 5.421875 
Q 43.015625 11.1875 43.109375 21.1875 
Q 43.109375 25.6875 41.21875 29.78125 
Q 39.203125 33.890625 34.71875 36.8125 
Q 39.109375 39.796875 40.828125 43.609375 
Q 42.28125 47.40625 42.28125 51.515625 
Q 42.1875 59.625 36.71875 65.578125 
Q 31 71.6875 21.296875 71.78125 
Q 13.625 71.6875 8.109375 66.3125 
Q 2.484375 60.890625 1.703125 52.984375 
L 11.921875 52.984375 
Q 12.890625 57.375 15.71875 59.46875 
Q 18.40625 61.578125 21.6875 61.578125 
Q 26.21875 61.46875 29.109375 58.6875 
Q 31.984375 55.8125 32.078125 51.3125 
Q 32.078125 46.875 29.203125 44.09375 
Q 26.3125 41.21875 21.09375 41.21875 
L 17.578125 41.21875 
z
" id="DINAlternate-Bold-33"/>
       <path id="DINAlternate-Bold-20"/>
       <path d="M 6.59375 -20.515625 
L 16.796875 -20.515625 
L 16.796875 5.421875 
L 16.796875 5.421875 
Q 19.578125 2.6875 22.90625 1.125 
Q 25.984375 -0.59375 29.890625 -0.59375 
Q 34.625 -0.484375 37.984375 1.3125 
Q 41.40625 3.078125 43.5 6 
Q 45.609375 8.5 46.390625 12.40625 
Q 47.125 16.3125 47.125 25.296875 
Q 47.125 34.515625 46.390625 38.375 
Q 45.609375 42.28125 43.5 44.671875 
Q 39.203125 51.078125 29.890625 51.3125 
Q 21.875 51.078125 16.796875 45.40625 
L 16.796875 45.40625 
L 16.796875 50.6875 
L 6.59375 50.6875 
z
M 26.8125 9.625 
Q 23.390625 9.625 21.390625 11.078125 
Q 19.28125 12.5 18.3125 14.796875 
Q 17.390625 17.09375 17.09375 19.921875 
Q 16.796875 22.609375 16.796875 25.296875 
Q 16.796875 28.171875 17.09375 31 
Q 17.390625 33.6875 18.3125 35.984375 
Q 19.28125 38.28125 21.390625 39.703125 
Q 23.390625 41.109375 26.8125 41.109375 
Q 30.421875 41.109375 32.515625 39.890625 
Q 34.625 38.578125 35.5 36.28125 
Q 36.46875 34.078125 36.8125 31.203125 
Q 36.921875 28.328125 36.921875 25.296875 
Q 36.921875 22.40625 36.8125 19.671875 
Q 36.46875 16.890625 35.5 14.59375 
Q 34.625 12.40625 32.515625 10.984375 
Q 30.421875 9.625 26.8125 9.625 
z
" id="DINAlternate-Bold-70"/>
       <path d="M 45.90625 21.484375 
L 45.90625 29.890625 
Q 45.796875 39.890625 39.703125 45.609375 
Q 33.6875 51.21875 25 51.3125 
Q 21.390625 51.3125 17.671875 50 
Q 13.921875 48.6875 10.890625 45.703125 
Q 7.90625 42.78125 6 37.703125 
Q 4.109375 32.71875 4.109375 25.203125 
Q 4.109375 17.390625 6.296875 12.5 
Q 8.296875 7.421875 11.53125 4.59375 
Q 13.1875 3.21875 15.09375 2.296875 
Q 16.890625 1.21875 18.796875 0.59375 
Q 22.609375 -0.59375 26.609375 -0.59375 
Q 37.109375 -0.6875 44.875 7.625 
L 37.5 13.921875 
L 37.5 13.921875 
Q 32.625 8.984375 26.421875 8.984375 
Q 21.09375 8.984375 17.828125 12.203125 
Q 14.3125 15.375 14.3125 21.484375 
z
M 14.3125 29.890625 
Q 14.59375 35.796875 17.484375 38.8125 
Q 20.40625 41.703125 25 41.703125 
Q 29.59375 41.703125 32.515625 38.8125 
Q 35.5 35.796875 35.6875 29.890625 
z
" id="DINAlternate-Bold-65"/>
       <path d="M 6.59375 0 
L 16.796875 0 
L 16.796875 30.515625 
Q 16.890625 36.078125 20.015625 38.578125 
Q 22.796875 41.109375 26.703125 41.109375 
Q 30.171875 41.109375 33.40625 38.578125 
L 33.40625 38.578125 
L 40.828125 47.40625 
Q 36.28125 51.21875 30.171875 51.3125 
Q 22.015625 51.3125 17 45.3125 
L 16.796875 45.3125 
L 16.796875 50.6875 
L 6.59375 50.6875 
z
" id="DINAlternate-Bold-72"/>
       <path d="M 36.375 14.890625 
L 36.375 14.890625 
Q 32.515625 9.71875 26.078125 9.625 
Q 13.09375 9.375 12.890625 25.296875 
Q 13.09375 41.3125 26.078125 41.109375 
Q 32.515625 40.921875 36.375 35.796875 
L 36.375 35.796875 
L 43.890625 42.484375 
Q 40.578125 46.484375 36.078125 48.875 
Q 31.59375 51.21875 25.6875 51.3125 
Q 16.703125 51.421875 9.90625 45.3125 
Q 2.875 39.109375 2.6875 25.296875 
Q 2.875 11.625 9.90625 5.515625 
Q 16.703125 -0.59375 25.6875 -0.59375 
Q 31.59375 -0.484375 36.078125 2 
Q 40.578125 4.390625 43.890625 8.203125 
z
" id="DINAlternate-Bold-63"/>
       <path d="M 6.59375 0 
L 16.796875 0 
L 16.796875 30.171875 
Q 16.796875 35.5 19.671875 38.28125 
Q 22.515625 41.109375 26.90625 41.109375 
Q 31.296875 41.109375 34.078125 38.28125 
Q 36.921875 35.5 36.921875 30.171875 
L 36.921875 0 
L 47.125 0 
L 47.125 33.6875 
Q 46.875 42.390625 41.703125 46.875 
Q 36.46875 51.3125 30.171875 51.3125 
Q 22.015625 51.3125 17 45.3125 
L 16.796875 45.3125 
L 16.796875 50.6875 
L 6.59375 50.6875 
z
" id="DINAlternate-Bold-6e"/>
       <path d="M 7.171875 50.6875 
L 2.09375 50.6875 
L 2.09375 42.921875 
L 7.171875 42.921875 
L 7.171875 12.5 
Q 7.171875 6.5 10.6875 3.328125 
Q 14.109375 0 19.484375 0 
L 24.8125 0 
L 24.8125 9.625 
L 21 9.625 
Q 17.28125 9.515625 17.390625 13.375 
L 17.390625 42.921875 
L 24.8125 42.921875 
L 24.8125 50.6875 
L 17.390625 50.6875 
L 17.390625 66.109375 
L 7.171875 66.109375 
z
" id="DINAlternate-Bold-74"/>
      </defs>
      <g transform="translate(657.336593 590.898125)scale(0.1 -0.1)">
       <use xlink:href="#DINAlternate-Bold-33"/>
       <use x="47.998047" xlink:href="#DINAlternate-Bold-30"/>
       <use x="95.996094" xlink:href="#DINAlternate-Bold-20"/>
       <use x="119.970703" xlink:href="#DINAlternate-Bold-70"/>
       <use x="171.875" xlink:href="#DINAlternate-Bold-65"/>
       <use x="221.875" xlink:href="#DINAlternate-Bold-72"/>
       <use x="260.775391" xlink:href="#DINAlternate-Bold-63"/>
       <use x="305.160156" xlink:href="#DINAlternate-Bold-65"/>
       <use x="355.160156" xlink:href="#DINAlternate-Bold-6e"/>
       <use x="408.871094" xlink:href="#DINAlternate-Bold-74"/>
      </g>
     </g>
    </g>
    <g id="xtick_8">
     <g id="line2d_8">
      <path clip-path="url(#p5428f9acf1)" d="M 774.365217 576.72 
L 774.365217 77.76 
" style="fill:none;stroke:#c0c0c0;stroke-linecap:square;stroke-width:0.8;"/>
     </g>
    </g>
    <g id="text_5">
     <!-- Unvaccinated rate -->
     <defs>
      <path d="M 6.203125 24.125 
Q 6.296875 12.890625 13.625 6.296875 
Q 20.796875 -0.484375 31.5 -0.59375 
Q 42.390625 -0.484375 49.515625 6.296875 
Q 56.59375 12.890625 56.78125 24.125 
L 56.78125 71.1875 
L 46 71.1875 
L 46 25.296875 
Q 45.90625 18.015625 41.890625 14.203125 
Q 37.796875 10.203125 31.5 10.203125 
Q 25.203125 10.203125 21.1875 14.203125 
Q 17.09375 18.015625 17 25.296875 
L 17 71.1875 
L 6.203125 71.1875 
z
" id="DINAlternate-Bold-55"/>
      <path d="M 18.015625 0 
L 26.421875 0 
L 45.015625 50.6875 
L 34.1875 50.6875 
L 22.3125 15.1875 
L 22.125 15.1875 
L 10.203125 50.6875 
L -0.59375 50.6875 
z
" id="DINAlternate-Bold-76"/>
      <path d="M 33.203125 0 
L 43.40625 0 
L 43.40625 34.625 
Q 43.3125 43.890625 37.59375 47.703125 
Q 31.890625 51.421875 22.3125 51.3125 
Q 10.984375 51.515625 5.171875 43.890625 
L 13.1875 37.796875 
L 13.1875 37.796875 
Q 14.5 39.984375 16.796875 40.921875 
Q 19 41.703125 22.796875 41.703125 
Q 33.296875 41.890625 33.203125 35.203125 
L 33.203125 29.890625 
L 19.09375 29.890625 
Q 10.984375 29.78125 6.78125 25.484375 
Q 2.59375 21.296875 2.59375 14.890625 
Q 2.59375 8.203125 7.421875 3.90625 
Q 12.015625 -0.484375 20.515625 -0.59375 
Q 25.6875 -0.59375 28.609375 0.6875 
Q 31.59375 1.90625 33.015625 4.5 
L 33.203125 4.5 
z
M 33.203125 17.828125 
Q 33.203125 12.109375 30.8125 10.5 
Q 28.171875 8.890625 21.78125 8.984375 
Q 16.703125 8.984375 14.5 10.984375 
Q 12.203125 12.796875 12.203125 15.375 
Q 12.109375 21.296875 21 21.484375 
L 33.203125 21.484375 
z
" id="DINAlternate-Bold-61"/>
      <path d="M 6.890625 0 
L 17.09375 0 
L 17.09375 50.6875 
L 6.890625 50.6875 
z
M 6.890625 60.984375 
L 17.09375 60.984375 
L 17.09375 71.1875 
L 6.890625 71.1875 
z
" id="DINAlternate-Bold-69"/>
      <path d="M 36.921875 5.328125 
L 36.921875 0 
L 47.125 0 
L 47.125 71.1875 
L 36.921875 71.1875 
L 36.921875 45.3125 
L 36.921875 45.3125 
Q 34.078125 48 31 49.703125 
Q 27.6875 51.3125 23.78125 51.3125 
Q 14.5 51.078125 10.203125 44.671875 
Q 8.109375 42.28125 7.421875 38.375 
Q 6.59375 34.515625 6.59375 25.390625 
Q 6.59375 16.40625 7.421875 12.5 
Q 8.109375 8.40625 10.203125 6 
Q 12.5 3.078125 15.921875 1.3125 
Q 19.1875 -0.484375 23.78125 -0.59375 
Q 31.890625 -0.390625 36.921875 5.328125 
z
M 26.90625 41.109375 
Q 30.515625 41.109375 32.625 39.703125 
Q 34.71875 38.28125 35.5 35.984375 
Q 36.46875 33.6875 36.8125 31 
Q 36.921875 28.328125 36.921875 25.390625 
Q 36.921875 22.703125 36.8125 19.921875 
Q 36.46875 17.09375 35.5 14.796875 
Q 34.71875 12.5 32.625 11.078125 
Q 30.515625 9.625 26.90625 9.625 
Q 23.296875 9.625 21.390625 10.984375 
Q 19.28125 12.40625 18.3125 14.59375 
Q 17.390625 16.890625 17.09375 19.78125 
Q 16.796875 22.515625 16.796875 25.390625 
Q 16.796875 28.421875 17.09375 31.296875 
Q 17.390625 33.984375 18.3125 36.28125 
Q 19.28125 38.578125 21.390625 39.890625 
Q 23.296875 41.109375 26.90625 41.109375 
z
" id="DINAlternate-Bold-64"/>
     </defs>
     <g transform="translate(386.707031 607.627813)scale(0.15 -0.15)">
      <use xlink:href="#DINAlternate-Bold-55"/>
      <use x="62.988281" xlink:href="#DINAlternate-Bold-6e"/>
      <use x="116.699219" xlink:href="#DINAlternate-Bold-76"/>
      <use x="161.083984" xlink:href="#DINAlternate-Bold-61"/>
      <use x="211.083984" xlink:href="#DINAlternate-Bold-63"/>
      <use x="255.46875" xlink:href="#DINAlternate-Bold-63"/>
      <use x="299.853516" xlink:href="#DINAlternate-Bold-69"/>
      <use x="323.828125" xlink:href="#DINAlternate-Bold-6e"/>
      <use x="377.539062" xlink:href="#DINAlternate-Bold-61"/>
      <use x="427.539062" xlink:href="#DINAlternate-Bold-74"/>
      <use x="455.322266" xlink:href="#DINAlternate-Bold-65"/>
      <use x="505.322266" xlink:href="#DINAlternate-Bold-64"/>
      <use x="557.226562" xlink:href="#DINAlternate-Bold-20"/>
      <use x="581.201172" xlink:href="#DINAlternate-Bold-72"/>
      <use x="620.101562" xlink:href="#DINAlternate-Bold-61"/>
      <use x="670.101562" xlink:href="#DINAlternate-Bold-74"/>
      <use x="697.884766" xlink:href="#DINAlternate-Bold-65"/>
     </g>
    </g>
   </g>
   <g id="matplotlib.axis_2">
    <g id="ytick_1">
     <g id="text_6">
      <!-- Dogs -->
      <defs>
       <path d="M 7.515625 0 
L 31.6875 0 
Q 39.703125 0 45.21875 3.515625 
Q 50.78125 6.78125 53.90625 11.8125 
Q 55.078125 13.71875 55.90625 15.484375 
Q 56.6875 17.28125 57.078125 19.578125 
Q 57.90625 24.125 57.90625 35.59375 
Q 57.90625 46.390625 57.375 50.78125 
Q 56.6875 55.171875 54.109375 59.1875 
Q 46.875 71.09375 32.421875 71.1875 
L 7.515625 71.1875 
z
M 18.3125 60.984375 
L 31.203125 60.984375 
Q 39.40625 61.1875 43.890625 54.984375 
Q 46.09375 52.484375 46.6875 48.484375 
Q 47.125 44.484375 47.125 35.203125 
Q 47.125 25.6875 46.6875 22.21875 
Q 46.1875 18.703125 44.390625 16.40625 
Q 40.28125 10.203125 31.203125 10.203125 
L 18.3125 10.203125 
z
" id="DINAlternate-Bold-44"/>
       <path d="M 4.109375 25.390625 
Q 4.109375 17.390625 5.421875 13.1875 
Q 6.78125 8.984375 9.625 5.90625 
Q 11.71875 3.515625 15.484375 1.609375 
Q 19.1875 -0.484375 25 -0.59375 
Q 31 -0.484375 34.71875 1.609375 
Q 36.71875 2.484375 37.984375 3.71875 
Q 39.40625 4.78125 40.375 5.90625 
Q 43.40625 8.984375 44.671875 13.1875 
Q 45.90625 17.390625 45.90625 25.390625 
Q 45.90625 33.40625 44.671875 37.703125 
Q 43.40625 41.890625 40.375 44.78125 
Q 38.375 47.3125 34.71875 49.3125 
Q 31 51.21875 25 51.3125 
Q 19.1875 51.21875 15.484375 49.3125 
Q 11.71875 47.3125 9.625 44.78125 
Q 6.78125 41.890625 5.421875 37.703125 
Q 4.109375 33.40625 4.109375 25.390625 
z
M 35.6875 25.296875 
Q 35.6875 20.125 35.203125 17.671875 
Q 34.71875 15.1875 33.203125 13.28125 
Q 32.078125 11.8125 29.890625 10.6875 
Q 27.78125 9.625 25 9.625 
Q 22.40625 9.625 20.21875 10.6875 
Q 18.109375 11.8125 16.796875 13.28125 
Q 15.484375 15.1875 14.890625 17.671875 
Q 14.3125 20.125 14.3125 25.390625 
Q 14.3125 30.71875 14.890625 33.203125 
Q 15.484375 35.59375 16.796875 37.40625 
Q 18.109375 39.109375 20.21875 40.09375 
Q 22.40625 41.109375 25 41.109375 
Q 27.78125 41.109375 29.890625 40.09375 
Q 32.078125 39.109375 33.203125 37.40625 
Q 34.71875 35.59375 35.203125 33.203125 
Q 35.6875 30.71875 35.6875 25.296875 
z
" id="DINAlternate-Bold-6f"/>
       <path d="M 35.109375 5.328125 
L 35.109375 0.09375 
Q 35.015625 -5.078125 31.890625 -8.015625 
Q 28.71875 -10.890625 23.484375 -10.890625 
Q 20.703125 -10.796875 18.109375 -9.375 
Q 15.578125 -8.109375 13.625 -6.296875 
L 13.625 -6.296875 
L 5.71875 -12.59375 
Q 12.984375 -20.90625 23.296875 -21.09375 
Q 32.28125 -21.09375 38.71875 -15.578125 
Q 45.125 -10.203125 45.3125 1.21875 
L 45.3125 50.6875 
L 35.109375 50.6875 
L 35.109375 45.3125 
L 35.109375 45.3125 
Q 29.59375 51.3125 22.015625 51.3125 
Q 17.09375 51.21875 13.8125 49.421875 
Q 10.40625 47.515625 8.59375 45.125 
Q 6.59375 42.671875 5.71875 39.109375 
Q 4.78125 35.5 4.78125 25.296875 
Q 4.78125 15.28125 5.71875 11.71875 
Q 6.59375 8.109375 8.59375 5.609375 
Q 10.40625 3.421875 13.8125 1.515625 
Q 17.09375 -0.484375 22.015625 -0.59375 
Q 30.078125 -0.390625 35.109375 5.328125 
z
M 14.984375 25.296875 
Q 14.984375 31.203125 15.375 33.5 
Q 15.71875 35.796875 17 37.203125 
Q 18.015625 38.578125 20.125 39.890625 
Q 22.125 41.015625 25.09375 41.109375 
Q 28.078125 41.015625 30.078125 39.890625 
Q 32.078125 38.578125 33.109375 37.203125 
Q 34.375 35.796875 34.8125 33.5 
Q 35.109375 31.203125 35.109375 25.296875 
Q 35.109375 19.484375 34.8125 17.28125 
Q 34.375 14.984375 33.109375 13.484375 
Q 32.078125 12.109375 30.078125 10.984375 
Q 28.078125 9.625 25.09375 9.625 
Q 22.125 9.625 20.125 10.984375 
Q 18.015625 12.109375 17 13.484375 
Q 15.71875 14.984375 15.375 17.28125 
Q 14.984375 19.484375 14.984375 25.296875 
z
" id="DINAlternate-Bold-67"/>
       <path d="M 8.109375 15.484375 
L 0.984375 8.5 
Q 10.890625 -0.59375 23.296875 -0.59375 
Q 32.421875 -0.484375 38.28125 3.609375 
Q 44.1875 7.625 44.28125 14.984375 
Q 44.28125 21.296875 41.015625 25.390625 
Q 37.5 29.59375 29.59375 30.171875 
L 21.1875 30.8125 
Q 17.484375 31.203125 16.015625 32.625 
Q 14.40625 33.890625 14.5 35.59375 
Q 14.5 38.28125 16.5 39.984375 
Q 18.40625 41.703125 23.1875 41.703125 
Q 27.390625 41.703125 30.609375 40.484375 
Q 33.890625 39.109375 36.8125 37.015625 
L 36.8125 37.015625 
L 43.109375 44.390625 
Q 39.40625 47.609375 34.71875 49.515625 
Q 32.28125 50.390625 29.5 50.875 
Q 26.703125 51.3125 23.1875 51.3125 
Q 15.09375 51.3125 9.8125 47.40625 
Q 4.390625 43.5 4.296875 35.6875 
Q 4.390625 29.203125 8.5 25.59375 
Q 12.5 21.875 18.890625 21.296875 
L 27.875 20.515625 
Q 30.71875 20.40625 32.421875 19.28125 
Q 34.078125 18.21875 34.078125 15.484375 
Q 34.078125 12.40625 31.296875 10.6875 
Q 28.515625 8.984375 24.125 8.984375 
Q 14.3125 8.984375 8.109375 15.484375 
z
" id="DINAlternate-Bold-73"/>
      </defs>
      <g transform="translate(69.066406 457.319063)scale(0.15 -0.15)">
       <use xlink:href="#DINAlternate-Bold-44"/>
       <use x="62.988281" xlink:href="#DINAlternate-Bold-6f"/>
       <use x="112.988281" xlink:href="#DINAlternate-Bold-67"/>
       <use x="164.892578" xlink:href="#DINAlternate-Bold-73"/>
      </g>
     </g>
    </g>
    <g id="ytick_2">
     <g id="text_7">
      <!-- Cats -->
      <defs>
       <path d="M 44.09375 19.921875 
Q 39.59375 10.203125 30.515625 10.203125 
Q 26.703125 10.203125 23.96875 11.8125 
Q 21.1875 13.1875 19.484375 15.375 
Q 17.390625 17.671875 16.703125 21.390625 
Q 15.921875 25.09375 15.921875 35.59375 
Q 15.921875 46.09375 16.703125 49.90625 
Q 17.390625 53.515625 19.484375 55.8125 
Q 21.1875 58.015625 23.96875 59.46875 
Q 26.703125 60.890625 30.515625 60.984375 
Q 35.6875 60.890625 39.3125 58.015625 
Q 42.78125 54.984375 44.09375 50.6875 
L 55.515625 50.6875 
Q 53.8125 59.625 47.3125 65.671875 
Q 40.828125 71.6875 30.515625 71.78125 
Q 22.125 71.6875 16.5 67.78125 
Q 10.796875 63.921875 8.203125 58.984375 
Q 6.59375 56.390625 5.8125 52.203125 
Q 5.078125 48 5.078125 35.59375 
Q 5.078125 23.390625 5.8125 19.09375 
Q 6.203125 16.796875 6.78125 15.28125 
Q 7.421875 13.8125 8.203125 12.203125 
Q 10.796875 7.28125 16.5 3.515625 
Q 22.125 -0.390625 30.515625 -0.59375 
Q 39.796875 -0.59375 46.578125 4.6875 
Q 53.171875 10.015625 55.515625 19.921875 
z
" id="DINAlternate-Bold-43"/>
      </defs>
      <g transform="translate(73.791406 207.839063)scale(0.15 -0.15)">
       <use xlink:href="#DINAlternate-Bold-43"/>
       <use x="55.615234" xlink:href="#DINAlternate-Bold-61"/>
       <use x="105.615234" xlink:href="#DINAlternate-Bold-74"/>
       <use x="133.398438" xlink:href="#DINAlternate-Bold-73"/>
      </g>
     </g>
    </g>
   </g>
   <g id="patch_3">
    <path clip-path="url(#p5428f9acf1)" d="M 108 514.35 
L 488.780124 514.35 
L 488.780124 389.61 
L 108 389.61 
z
" style="fill:#333333;"/>
   </g>
   <g id="patch_4">
    <path clip-path="url(#p5428f9acf1)" d="M 108 264.87 
L 745.714286 264.87 
L 745.714286 140.13 
L 108 140.13 
z
" style="fill:#333333;"/>
   </g>
   <g id="patch_5">
    <path d="M 108 576.72 
L 108 77.76 
" style="fill:none;stroke:#000000;stroke-linecap:square;stroke-linejoin:miter;stroke-width:0.8;"/>
   </g>
   <g id="text_8">
    <!-- Cats are anti-vaxxers -->
    <defs>
     <path d="M 5.328125 22.609375 
L 35.40625 22.609375 
L 35.40625 32.8125 
L 5.328125 32.8125 
z
" id="DINAlternate-Bold-2d"/>
     <path d="M 18.3125 25.875 
L 0.984375 0 
L 13.1875 0 
L 23.96875 16.890625 
L 23.96875 16.890625 
L 34.8125 0 
L 46.96875 0 
L 29.6875 25.875 
L 46.296875 50.6875 
L 34.078125 50.6875 
L 23.96875 34.28125 
L 23.96875 34.28125 
L 13.921875 50.6875 
L 1.703125 50.6875 
z
" id="DINAlternate-Bold-78"/>
    </defs>
    <g transform="translate(309.046875 42.76)scale(0.3 -0.3)">
     <use xlink:href="#DINAlternate-Bold-43"/>
     <use x="55.615234" xlink:href="#DINAlternate-Bold-61"/>
     <use x="105.615234" xlink:href="#DINAlternate-Bold-74"/>
     <use x="133.398438" xlink:href="#DINAlternate-Bold-73"/>
     <use x="181.396484" xlink:href="#DINAlternate-Bold-20"/>
     <use x="205.371094" xlink:href="#DINAlternate-Bold-61"/>
     <use x="255.371094" xlink:href="#DINAlternate-Bold-72"/>
     <use x="294.271484" xlink:href="#DINAlternate-Bold-65"/>
     <use x="344.271484" xlink:href="#DINAlternate-Bold-20"/>
     <use x="368.246094" xlink:href="#DINAlternate-Bold-61"/>
     <use x="418.246094" xlink:href="#DINAlternate-Bold-6e"/>
     <use x="471.957031" xlink:href="#DINAlternate-Bold-74"/>
     <use x="499.740234" xlink:href="#DINAlternate-Bold-69"/>
     <use x="523.714844" xlink:href="#DINAlternate-Bold-2d"/>
     <use x="564.388672" xlink:href="#DINAlternate-Bold-76"/>
     <use x="608.773438" xlink:href="#DINAlternate-Bold-61"/>
     <use x="658.773438" xlink:href="#DINAlternate-Bold-78"/>
     <use x="706.771484" xlink:href="#DINAlternate-Bold-78"/>
     <use x="754.769531" xlink:href="#DINAlternate-Bold-65"/>
     <use x="804.769531" xlink:href="#DINAlternate-Bold-72"/>
     <use x="843.685547" xlink:href="#DINAlternate-Bold-73"/>
    </g>
   </g>
   <g id="legend_1"/>
  </g>
 </g>
 <defs>
  <clipPath id="p5428f9acf1">
   <rect height="498.96" width="669.6" x="108" y="77.76"/>
  </clipPath>
 </defs>
</svg>
