<?xml version="1.0" encoding="utf-8" standalone="no"?>
<!DOCTYPE svg PUBLIC "-//W3C//DTD SVG 1.1//EN"
  "http://www.w3.org/Graphics/SVG/1.1/DTD/svg11.dtd">
<!-- Created with matplotlib (http://matplotlib.org/) -->
<svg height="864pt" version="1.1" viewBox="0 0 936 864" width="936pt" xmlns="http://www.w3.org/2000/svg" xmlns:xlink="http://www.w3.org/1999/xlink">
 <defs>
  <style type="text/css">
*{stroke-linecap:butt;stroke-linejoin:round;}
  </style>
 </defs>
 <g id="figure_1">
  <g id="patch_1">
   <path d="M 0 864 
L 936 864 
L 936 0 
L 0 0 
z
" style="fill:#f5f5f5;"/>
  </g>
  <g id="axes_1">
   <g id="patch_2">
    <path d="M 117 768.96 
L 842.4 768.96 
L 842.4 103.68 
L 117 103.68 
z
" style="fill:none;"/>
   </g>
   <g id="matplotlib.axis_1">
    <g id="xtick_1">
     <g id="line2d_1">
      <path clip-path="url(#p0af20b8f9d)" d="M 117 768.96 
L 117 103.68 
" style="fill:none;stroke:#c0c0c0;stroke-linecap:square;stroke-width:0.8;"/>
     </g>
     <g id="text_1">
      <!-- 0 -->
      <defs>
       <path d="M 33.984375 20.515625 
Q 33.6875 9.71875 23.96875 9.625 
Q 14.203125 9.71875 14.015625 20.515625 
L 14.015625 50.6875 
Q 14.203125 61.375 23.96875 61.578125 
Q 33.6875 61.375 33.984375 50.6875 
z
M 3.8125 19.921875 
Q 3.90625 10.109375 10.109375 4.78125 
Q 15.921875 -0.484375 23.96875 -0.59375 
Q 32.28125 -0.484375 38.09375 4.78125 
Q 44 10.109375 44.1875 19.921875 
L 44.1875 51.3125 
Q 44 61.1875 38.09375 66.5 
Q 32.28125 71.78125 23.96875 71.78125 
Q 15.921875 71.78125 10.109375 66.5 
Q 3.90625 61.1875 3.8125 51.3125 
z
" id="DINAlternate-Bold-30"/>
      </defs>
      <g transform="translate(114.6 783.07875)scale(0.1 -0.1)">
       <use xlink:href="#DINAlternate-Bold-30"/>
      </g>
     </g>
    </g>
    <g id="xtick_2">
     <g id="line2d_2">
      <path clip-path="url(#p0af20b8f9d)" d="M 230.255269 768.96 
L 230.255269 103.68 
" style="fill:none;stroke:#c0c0c0;stroke-linecap:square;stroke-width:0.8;"/>
     </g>
     <g id="text_2">
      <!-- 20 -->
      <defs>
       <path d="M 3.21875 0 
L 43.796875 0 
L 43.796875 10.203125 
L 16.609375 10.203125 
L 39.5 38.921875 
Q 43.796875 44.390625 43.796875 51.421875 
Q 43.703125 60.203125 37.890625 65.921875 
Q 32.171875 71.6875 23 71.78125 
Q 14.796875 71.6875 9.1875 66.015625 
Q 3.609375 60.203125 3.21875 51.3125 
L 13.375 51.3125 
Q 13.921875 56.203125 16.796875 58.890625 
Q 19.578125 61.578125 23.78125 61.578125 
Q 28.515625 61.46875 31.109375 58.5 
Q 33.59375 55.515625 33.59375 51.515625 
Q 33.59375 50 33.203125 48.296875 
Q 32.625 46.484375 31 44.390625 
L 3.21875 9.625 
z
" id="DINAlternate-Bold-32"/>
      </defs>
      <g transform="translate(225.455269 783.07875)scale(0.1 -0.1)">
       <use xlink:href="#DINAlternate-Bold-32"/>
       <use x="47.998047" xlink:href="#DINAlternate-Bold-30"/>
      </g>
     </g>
    </g>
    <g id="xtick_3">
     <g id="line2d_3">
      <path clip-path="url(#p0af20b8f9d)" d="M 343.510539 768.96 
L 343.510539 103.68 
" style="fill:none;stroke:#c0c0c0;stroke-linecap:square;stroke-width:0.8;"/>
     </g>
     <g id="text_3">
      <!-- 40 -->
      <defs>
       <path d="M 1.21875 10.59375 
L 30.90625 10.59375 
L 30.90625 0 
L 41.109375 0 
L 41.109375 10.59375 
L 46.78125 10.59375 
L 46.78125 20.21875 
L 41.109375 20.21875 
L 41.109375 40.671875 
L 30.90625 40.671875 
L 30.90625 20.21875 
L 12.3125 20.21875 
L 36.375 71.1875 
L 25 71.1875 
L 1.21875 20.21875 
z
" id="DINAlternate-Bold-34"/>
      </defs>
      <g transform="translate(338.710539 783.07875)scale(0.1 -0.1)">
       <use xlink:href="#DINAlternate-Bold-34"/>
       <use x="47.998047" xlink:href="#DINAlternate-Bold-30"/>
      </g>
     </g>
    </g>
    <g id="xtick_4">
     <g id="line2d_4">
      <path clip-path="url(#p0af20b8f9d)" d="M 456.765808 768.96 
L 456.765808 103.68 
" style="fill:none;stroke:#c0c0c0;stroke-linecap:square;stroke-width:0.8;"/>
     </g>
     <g id="text_4">
      <!-- 60 -->
      <defs>
       <path d="M 3.8125 19.921875 
Q 3.90625 10.109375 10.109375 4.78125 
Q 15.921875 -0.484375 23.96875 -0.59375 
Q 32.28125 -0.484375 38.09375 4.78125 
Q 44 10.109375 44.1875 19.921875 
L 44.1875 26.421875 
Q 44.28125 36.71875 39.5 41.5 
Q 34.625 46.1875 27.59375 46.1875 
Q 21.296875 46.296875 14.015625 44 
L 14.015625 44 
L 14.015625 50.6875 
Q 14.203125 61.375 23.96875 61.578125 
Q 30.90625 61.46875 33.296875 55.609375 
L 43.796875 55.609375 
Q 42.28125 63.484375 36.8125 67.671875 
Q 31.203125 71.78125 23.96875 71.78125 
Q 15.921875 71.78125 10.109375 66.5 
Q 3.90625 61.1875 3.8125 51.3125 
z
M 14.015625 26.3125 
Q 14.203125 37.015625 23.96875 37.203125 
Q 33.6875 37.015625 33.984375 26.3125 
L 33.984375 20.515625 
Q 33.6875 9.71875 23.96875 9.625 
Q 14.203125 9.71875 14.015625 20.515625 
z
" id="DINAlternate-Bold-36"/>
      </defs>
      <g transform="translate(451.965808 783.07875)scale(0.1 -0.1)">
       <use xlink:href="#DINAlternate-Bold-36"/>
       <use x="47.998047" xlink:href="#DINAlternate-Bold-30"/>
      </g>
     </g>
    </g>
    <g id="xtick_5">
     <g id="line2d_5">
      <path clip-path="url(#p0af20b8f9d)" d="M 570.021077 768.96 
L 570.021077 103.68 
" style="fill:none;stroke:#c0c0c0;stroke-linecap:square;stroke-width:0.8;"/>
     </g>
     <g id="text_5">
      <!-- 80 -->
      <defs>
       <path d="M 13.8125 51.421875 
Q 13.921875 56.5 17 59.078125 
Q 20.015625 61.578125 23.96875 61.578125 
Q 28.078125 61.578125 31.109375 59.078125 
Q 34.078125 56.5 34.1875 51.421875 
Q 34.078125 46.484375 31.109375 43.890625 
Q 28.078125 41.21875 23.96875 41.21875 
Q 20.015625 41.21875 17 43.890625 
Q 13.921875 46.484375 13.8125 51.421875 
z
M 2.296875 20.796875 
Q 2.390625 11.1875 8.796875 5.421875 
Q 14.890625 -0.484375 23.96875 -0.59375 
Q 33.109375 -0.484375 39.40625 5.421875 
Q 45.609375 11.1875 45.703125 20.796875 
Q 45.609375 31.109375 37.3125 36.8125 
Q 40.484375 39.59375 42.484375 43.21875 
Q 44.390625 46.578125 44.390625 51.21875 
Q 44.28125 60.109375 38.578125 65.921875 
Q 32.90625 71.6875 23.96875 71.78125 
Q 15.1875 71.6875 9.625 65.921875 
Q 3.71875 60.109375 3.609375 51.21875 
Q 3.609375 46.578125 5.71875 43.21875 
Q 7.515625 39.59375 10.6875 36.8125 
Q 2.390625 31.109375 2.296875 20.796875 
z
M 12.5 20.90625 
Q 12.59375 25.875 16.015625 29 
Q 19.28125 32.078125 23.96875 32.171875 
Q 28.8125 32.078125 32.078125 29 
Q 35.40625 25.875 35.5 20.90625 
Q 35.40625 16.015625 32.078125 12.890625 
Q 28.8125 9.625 23.96875 9.625 
Q 19.28125 9.625 16.015625 12.890625 
Q 12.59375 16.015625 12.5 20.90625 
z
" id="DINAlternate-Bold-38"/>
      </defs>
      <g transform="translate(565.221077 783.07875)scale(0.1 -0.1)">
       <use xlink:href="#DINAlternate-Bold-38"/>
       <use x="47.998047" xlink:href="#DINAlternate-Bold-30"/>
      </g>
     </g>
    </g>
    <g id="xtick_6">
     <g id="line2d_6">
      <path clip-path="url(#p0af20b8f9d)" d="M 683.276347 768.96 
L 683.276347 103.68 
" style="fill:none;stroke:#c0c0c0;stroke-linecap:square;stroke-width:0.8;"/>
     </g>
     <g id="text_6">
      <!-- 100 -->
      <defs>
       <path d="M 19.390625 60.40625 
L 19.390625 0 
L 29.59375 0 
L 29.59375 71.1875 
L 19.390625 71.1875 
L 9.28125 63.8125 
L 9.28125 52.984375 
L 9.28125 52.984375 
L 19.390625 60.40625 
z
" id="DINAlternate-Bold-31"/>
      </defs>
      <g transform="translate(676.076347 783.07875)scale(0.1 -0.1)">
       <use xlink:href="#DINAlternate-Bold-31"/>
       <use x="47.998047" xlink:href="#DINAlternate-Bold-30"/>
       <use x="95.996094" xlink:href="#DINAlternate-Bold-30"/>
      </g>
     </g>
    </g>
    <g id="xtick_7">
     <g id="line2d_7">
      <path clip-path="url(#p0af20b8f9d)" d="M 796.531616 768.96 
L 796.531616 103.68 
" style="fill:none;stroke:#c0c0c0;stroke-linecap:square;stroke-width:0.8;"/>
     </g>
     <g id="text_7">
      <!-- 120 -->
      <g transform="translate(789.331616 783.07875)scale(0.1 -0.1)">
       <use xlink:href="#DINAlternate-Bold-31"/>
       <use x="47.998047" xlink:href="#DINAlternate-Bold-32"/>
       <use x="95.996094" xlink:href="#DINAlternate-Bold-30"/>
      </g>
     </g>
    </g>
   </g>
   <g id="matplotlib.axis_2">
    <g id="ytick_1">
     <g id="text_8">
      <!-- Active -->
      <defs>
       <path d="M 20.125 25.484375 
L 30.421875 56.59375 
L 30.609375 56.59375 
L 40.921875 25.484375 
z
M 49.515625 0 
L 60.890625 0 
L 35.015625 71.1875 
L 25.984375 71.1875 
L 0.09375 0 
L 11.53125 0 
L 17 15.921875 
L 44 15.921875 
z
" id="DINAlternate-Bold-41"/>
       <path d="M 36.375 14.890625 
L 36.375 14.890625 
Q 32.515625 9.71875 26.078125 9.625 
Q 13.09375 9.375 12.890625 25.296875 
Q 13.09375 41.3125 26.078125 41.109375 
Q 32.515625 40.921875 36.375 35.796875 
L 36.375 35.796875 
L 43.890625 42.484375 
Q 40.578125 46.484375 36.078125 48.875 
Q 31.59375 51.21875 25.6875 51.3125 
Q 16.703125 51.421875 9.90625 45.3125 
Q 2.875 39.109375 2.6875 25.296875 
Q 2.875 11.625 9.90625 5.515625 
Q 16.703125 -0.59375 25.6875 -0.59375 
Q 31.59375 -0.484375 36.078125 2 
Q 40.578125 4.390625 43.890625 8.203125 
z
" id="DINAlternate-Bold-63"/>
       <path d="M 7.171875 50.6875 
L 2.09375 50.6875 
L 2.09375 42.921875 
L 7.171875 42.921875 
L 7.171875 12.5 
Q 7.171875 6.5 10.6875 3.328125 
Q 14.109375 0 19.484375 0 
L 24.8125 0 
L 24.8125 9.625 
L 21 9.625 
Q 17.28125 9.515625 17.390625 13.375 
L 17.390625 42.921875 
L 24.8125 42.921875 
L 24.8125 50.6875 
L 17.390625 50.6875 
L 17.390625 66.109375 
L 7.171875 66.109375 
z
" id="DINAlternate-Bold-74"/>
       <path d="M 6.890625 0 
L 17.09375 0 
L 17.09375 50.6875 
L 6.890625 50.6875 
z
M 6.890625 60.984375 
L 17.09375 60.984375 
L 17.09375 71.1875 
L 6.890625 71.1875 
z
" id="DINAlternate-Bold-69"/>
       <path d="M 18.015625 0 
L 26.421875 0 
L 45.015625 50.6875 
L 34.1875 50.6875 
L 22.3125 15.1875 
L 22.125 15.1875 
L 10.203125 50.6875 
L -0.59375 50.6875 
z
" id="DINAlternate-Bold-76"/>
       <path d="M 45.90625 21.484375 
L 45.90625 29.890625 
Q 45.796875 39.890625 39.703125 45.609375 
Q 33.6875 51.21875 25 51.3125 
Q 21.390625 51.3125 17.671875 50 
Q 13.921875 48.6875 10.890625 45.703125 
Q 7.90625 42.78125 6 37.703125 
Q 4.109375 32.71875 4.109375 25.203125 
Q 4.109375 17.390625 6.296875 12.5 
Q 8.296875 7.421875 11.53125 4.59375 
Q 13.1875 3.21875 15.09375 2.296875 
Q 16.890625 1.21875 18.796875 0.59375 
Q 22.609375 -0.59375 26.609375 -0.59375 
Q 37.109375 -0.6875 44.875 7.625 
L 37.5 13.921875 
L 37.5 13.921875 
Q 32.625 8.984375 26.421875 8.984375 
Q 21.09375 8.984375 17.828125 12.203125 
Q 14.3125 15.375 14.3125 21.484375 
z
M 14.3125 29.890625 
Q 14.59375 35.796875 17.484375 38.8125 
Q 20.40625 41.703125 25 41.703125 
Q 29.59375 41.703125 32.515625 38.8125 
Q 35.5 35.796875 35.6875 29.890625 
z
" id="DINAlternate-Bold-65"/>
      </defs>
      <g transform="translate(72.272656 741.035062)scale(0.15 -0.15)">
       <use xlink:href="#DINAlternate-Bold-41"/>
       <use x="60.986328" xlink:href="#DINAlternate-Bold-63"/>
       <use x="105.371094" xlink:href="#DINAlternate-Bold-74"/>
       <use x="133.154297" xlink:href="#DINAlternate-Bold-69"/>
       <use x="157.128906" xlink:href="#DINAlternate-Bold-76"/>
       <use x="201.513672" xlink:href="#DINAlternate-Bold-65"/>
      </g>
     </g>
    </g>
    <g id="ytick_2">
     <g id="text_9">
      <!-- Gentle -->
      <defs>
       <path d="M 30.609375 29 
L 45.125 29 
L 45.125 25.296875 
Q 45.015625 18.609375 40.921875 14.5 
Q 36.8125 10.203125 30.515625 10.203125 
Q 26.703125 10.203125 23.96875 11.8125 
Q 21.1875 13.1875 19.484375 15.375 
Q 17.390625 17.671875 16.703125 21.390625 
Q 15.921875 25.09375 15.921875 35.59375 
Q 15.921875 46.09375 16.703125 49.90625 
Q 17.390625 53.515625 19.484375 55.8125 
Q 21.1875 58.015625 23.96875 59.46875 
Q 26.703125 60.890625 30.515625 60.984375 
Q 35.6875 60.890625 39.3125 58.015625 
Q 42.78125 54.984375 44.09375 50.6875 
L 55.515625 50.6875 
Q 53.8125 59.625 47.3125 65.671875 
Q 40.828125 71.6875 30.515625 71.78125 
Q 22.125 71.6875 16.5 67.78125 
Q 10.796875 63.921875 8.203125 58.984375 
Q 6.59375 56.390625 5.8125 52.203125 
Q 5.078125 48 5.078125 35.59375 
Q 5.078125 23.390625 5.8125 19.09375 
Q 6.203125 16.796875 6.78125 15.28125 
Q 7.421875 13.8125 8.203125 12.203125 
Q 10.796875 7.28125 16.5 3.515625 
Q 22.125 -0.390625 30.515625 -0.59375 
Q 41.40625 -0.390625 48.578125 6.78125 
Q 55.71875 14.015625 55.90625 24.703125 
L 55.90625 39.203125 
L 30.609375 39.203125 
z
" id="DINAlternate-Bold-47"/>
       <path d="M 6.59375 0 
L 16.796875 0 
L 16.796875 30.171875 
Q 16.796875 35.5 19.671875 38.28125 
Q 22.515625 41.109375 26.90625 41.109375 
Q 31.296875 41.109375 34.078125 38.28125 
Q 36.921875 35.5 36.921875 30.171875 
L 36.921875 0 
L 47.125 0 
L 47.125 33.6875 
Q 46.875 42.390625 41.703125 46.875 
Q 36.46875 51.3125 30.171875 51.3125 
Q 22.015625 51.3125 17 45.3125 
L 16.796875 45.3125 
L 16.796875 50.6875 
L 6.59375 50.6875 
z
" id="DINAlternate-Bold-6e"/>
       <path d="M 6.59375 12.3125 
Q 6.59375 5.609375 10.40625 2.78125 
Q 14.015625 0 19.578125 0 
L 24.125 0 
L 24.125 9.625 
L 20.609375 9.625 
Q 16.796875 9.625 16.796875 13.09375 
L 16.796875 71.1875 
L 6.59375 71.1875 
z
" id="DINAlternate-Bold-6c"/>
      </defs>
      <g transform="translate(69.760156 674.507063)scale(0.15 -0.15)">
       <use xlink:href="#DINAlternate-Bold-47"/>
       <use x="60.986328" xlink:href="#DINAlternate-Bold-65"/>
       <use x="110.986328" xlink:href="#DINAlternate-Bold-6e"/>
       <use x="164.697266" xlink:href="#DINAlternate-Bold-74"/>
       <use x="192.480469" xlink:href="#DINAlternate-Bold-6c"/>
       <use x="218.261719" xlink:href="#DINAlternate-Bold-65"/>
      </g>
     </g>
    </g>
    <g id="ytick_3">
     <g id="text_10">
      <!-- Perfect -->
      <defs>
       <path d="M 18.3125 60.984375 
L 33.890625 60.984375 
Q 38.28125 61.078125 41.609375 58.984375 
Q 43.796875 57.71875 45.015625 55.515625 
Q 46.1875 53.078125 46.1875 49.515625 
Q 46.1875 45.21875 43.3125 41.703125 
Q 40.28125 38.09375 34.28125 37.984375 
L 18.3125 37.984375 
z
M 7.515625 0 
L 18.3125 0 
L 18.3125 27.78125 
L 34.71875 27.78125 
Q 45.703125 27.984375 51.421875 34.8125 
Q 56.984375 41.3125 56.984375 49.21875 
Q 56.984375 55.078125 54.78125 59.375 
Q 52.6875 63.8125 49.3125 66.21875 
Q 45.3125 69.390625 41.40625 70.40625 
Q 37.5 71.1875 33.296875 71.1875 
L 7.515625 71.1875 
z
" id="DINAlternate-Bold-50"/>
       <path d="M 6.59375 0 
L 16.796875 0 
L 16.796875 30.515625 
Q 16.890625 36.078125 20.015625 38.578125 
Q 22.796875 41.109375 26.703125 41.109375 
Q 30.171875 41.109375 33.40625 38.578125 
L 33.40625 38.578125 
L 40.828125 47.40625 
Q 36.28125 51.21875 30.171875 51.3125 
Q 22.015625 51.3125 17 45.3125 
L 16.796875 45.3125 
L 16.796875 50.6875 
L 6.59375 50.6875 
z
" id="DINAlternate-Bold-72"/>
       <path d="M 8.203125 0 
L 18.40625 0 
L 18.40625 42.921875 
L 28.609375 42.921875 
L 28.609375 50.6875 
L 18.40625 50.6875 
L 18.40625 57.375 
Q 18.21875 61.71875 22.796875 61.578125 
L 28.609375 61.578125 
L 28.609375 71.1875 
L 22.015625 71.1875 
Q 16.109375 71.1875 12.203125 68.015625 
Q 8.203125 64.59375 8.203125 57.375 
L 8.203125 50.6875 
L 3.078125 50.6875 
L 3.078125 42.921875 
L 8.203125 42.921875 
z
" id="DINAlternate-Bold-66"/>
      </defs>
      <g transform="translate(65.278906 607.979063)scale(0.15 -0.15)">
       <use xlink:href="#DINAlternate-Bold-50"/>
       <use x="59.261719" xlink:href="#DINAlternate-Bold-65"/>
       <use x="109.261719" xlink:href="#DINAlternate-Bold-72"/>
       <use x="148.177734" xlink:href="#DINAlternate-Bold-66"/>
       <use x="175.960938" xlink:href="#DINAlternate-Bold-65"/>
       <use x="225.960938" xlink:href="#DINAlternate-Bold-63"/>
       <use x="270.345703" xlink:href="#DINAlternate-Bold-74"/>
      </g>
     </g>
    </g>
    <g id="ytick_4">
     <g id="text_11">
      <!-- Best -->
      <defs>
       <path d="M 7.515625 0 
L 37.5 0 
Q 45.90625 0 51.515625 5.609375 
Q 57.171875 10.984375 57.28125 20.21875 
Q 57.28125 25.78125 54.5 30.515625 
Q 51.515625 35.109375 45.703125 36.625 
L 45.703125 36.8125 
Q 48.78125 38.28125 50.875 40.09375 
Q 52.984375 41.796875 54.109375 43.703125 
Q 56.296875 47.703125 56.203125 52.09375 
Q 56.203125 60.6875 50.875 65.921875 
Q 45.609375 71.09375 35.109375 71.1875 
L 7.515625 71.1875 
z
M 34.90625 31.59375 
Q 40.921875 31.5 43.703125 28.421875 
Q 46.484375 25.296875 46.484375 20.90625 
Q 46.484375 16.609375 43.703125 13.484375 
Q 40.921875 10.296875 34.90625 10.203125 
L 18.3125 10.203125 
L 18.3125 31.59375 
z
M 33.890625 61.578125 
Q 39.796875 61.46875 42.578125 58.6875 
Q 45.40625 55.71875 45.40625 51.421875 
Q 45.40625 47.125 42.578125 44.28125 
Q 39.796875 41.21875 33.890625 41.21875 
L 18.3125 41.21875 
L 18.3125 61.578125 
z
" id="DINAlternate-Bold-42"/>
       <path d="M 8.109375 15.484375 
L 0.984375 8.5 
Q 10.890625 -0.59375 23.296875 -0.59375 
Q 32.421875 -0.484375 38.28125 3.609375 
Q 44.1875 7.625 44.28125 14.984375 
Q 44.28125 21.296875 41.015625 25.390625 
Q 37.5 29.59375 29.59375 30.171875 
L 21.1875 30.8125 
Q 17.484375 31.203125 16.015625 32.625 
Q 14.40625 33.890625 14.5 35.59375 
Q 14.5 38.28125 16.5 39.984375 
Q 18.40625 41.703125 23.1875 41.703125 
Q 27.390625 41.703125 30.609375 40.484375 
Q 33.890625 39.109375 36.8125 37.015625 
L 36.8125 37.015625 
L 43.109375 44.390625 
Q 39.40625 47.609375 34.71875 49.515625 
Q 32.28125 50.390625 29.5 50.875 
Q 26.703125 51.3125 23.1875 51.3125 
Q 15.09375 51.3125 9.8125 47.40625 
Q 4.390625 43.5 4.296875 35.6875 
Q 4.390625 29.203125 8.5 25.59375 
Q 12.5 21.875 18.890625 21.296875 
L 27.875 20.515625 
Q 30.71875 20.40625 32.421875 19.28125 
Q 34.078125 18.21875 34.078125 15.484375 
Q 34.078125 12.40625 31.296875 10.6875 
Q 28.515625 8.984375 24.125 8.984375 
Q 14.3125 8.984375 8.109375 15.484375 
z
" id="DINAlternate-Bold-73"/>
      </defs>
      <g transform="translate(81.985156 541.451063)scale(0.15 -0.15)">
       <use xlink:href="#DINAlternate-Bold-42"/>
       <use x="60.986328" xlink:href="#DINAlternate-Bold-65"/>
       <use x="110.986328" xlink:href="#DINAlternate-Bold-73"/>
       <use x="158.984375" xlink:href="#DINAlternate-Bold-74"/>
      </g>
     </g>
    </g>
    <g id="ytick_5">
     <g id="text_12">
      <!-- Playful -->
      <defs>
       <path d="M 33.203125 0 
L 43.40625 0 
L 43.40625 34.625 
Q 43.3125 43.890625 37.59375 47.703125 
Q 31.890625 51.421875 22.3125 51.3125 
Q 10.984375 51.515625 5.171875 43.890625 
L 13.1875 37.796875 
L 13.1875 37.796875 
Q 14.5 39.984375 16.796875 40.921875 
Q 19 41.703125 22.796875 41.703125 
Q 33.296875 41.890625 33.203125 35.203125 
L 33.203125 29.890625 
L 19.09375 29.890625 
Q 10.984375 29.78125 6.78125 25.484375 
Q 2.59375 21.296875 2.59375 14.890625 
Q 2.59375 8.203125 7.421875 3.90625 
Q 12.015625 -0.484375 20.515625 -0.59375 
Q 25.6875 -0.59375 28.609375 0.6875 
Q 31.59375 1.90625 33.015625 4.5 
L 33.203125 4.5 
z
M 33.203125 17.828125 
Q 33.203125 12.109375 30.8125 10.5 
Q 28.171875 8.890625 21.78125 8.984375 
Q 16.703125 8.984375 14.5 10.984375 
Q 12.203125 12.796875 12.203125 15.375 
Q 12.109375 21.296875 21 21.484375 
L 33.203125 21.484375 
z
" id="DINAlternate-Bold-61"/>
       <path d="M 17.484375 2 
L 14.703125 -6.5 
Q 14.015625 -8.6875 12.3125 -9.8125 
Q 10.59375 -10.890625 8.59375 -10.890625 
L 5.609375 -10.890625 
L 5.609375 -20.515625 
L 8.984375 -20.515625 
Q 13.71875 -20.515625 17.484375 -18.40625 
Q 21.1875 -16.21875 23.296875 -10.5 
L 45.125 50.6875 
L 34.28125 50.6875 
L 22.3125 15.1875 
L 22.125 15.1875 
L 10.109375 50.6875 
L -0.6875 50.6875 
z
" id="DINAlternate-Bold-79"/>
       <path d="M 6.59375 17 
Q 6.6875 8.40625 12.203125 4 
Q 17.28125 -0.484375 23.578125 -0.59375 
Q 31.6875 -0.59375 36.71875 5.421875 
L 36.921875 5.421875 
L 36.921875 0 
L 47.125 0 
L 47.125 50.6875 
L 36.921875 50.6875 
L 36.921875 20.515625 
Q 36.921875 15.375 34.078125 12.5 
Q 31.296875 9.625 26.90625 9.625 
Q 22.515625 9.625 19.671875 12.5 
Q 16.796875 15.375 16.796875 20.515625 
L 16.796875 50.6875 
L 6.59375 50.6875 
z
" id="DINAlternate-Bold-75"/>
      </defs>
      <g transform="translate(66.989844 474.923062)scale(0.15 -0.15)">
       <use xlink:href="#DINAlternate-Bold-50"/>
       <use x="59.277344" xlink:href="#DINAlternate-Bold-6c"/>
       <use x="85.058594" xlink:href="#DINAlternate-Bold-61"/>
       <use x="135.058594" xlink:href="#DINAlternate-Bold-79"/>
       <use x="179.443359" xlink:href="#DINAlternate-Bold-66"/>
       <use x="207.226562" xlink:href="#DINAlternate-Bold-75"/>
       <use x="260.9375" xlink:href="#DINAlternate-Bold-6c"/>
      </g>
     </g>
    </g>
    <g id="ytick_6">
     <g id="text_13">
      <!-- Happy -->
      <defs>
       <path d="M 46.484375 0 
L 57.28125 0 
L 57.28125 71.1875 
L 46.484375 71.1875 
L 46.484375 40.671875 
L 18.3125 40.671875 
L 18.3125 71.1875 
L 7.515625 71.1875 
L 7.515625 0 
L 18.3125 0 
L 18.3125 31.109375 
L 46.484375 31.109375 
z
" id="DINAlternate-Bold-48"/>
       <path d="M 6.59375 -20.515625 
L 16.796875 -20.515625 
L 16.796875 5.421875 
L 16.796875 5.421875 
Q 19.578125 2.6875 22.90625 1.125 
Q 25.984375 -0.59375 29.890625 -0.59375 
Q 34.625 -0.484375 37.984375 1.3125 
Q 41.40625 3.078125 43.5 6 
Q 45.609375 8.5 46.390625 12.40625 
Q 47.125 16.3125 47.125 25.296875 
Q 47.125 34.515625 46.390625 38.375 
Q 45.609375 42.28125 43.5 44.671875 
Q 39.203125 51.078125 29.890625 51.3125 
Q 21.875 51.078125 16.796875 45.40625 
L 16.796875 45.40625 
L 16.796875 50.6875 
L 6.59375 50.6875 
z
M 26.8125 9.625 
Q 23.390625 9.625 21.390625 11.078125 
Q 19.28125 12.5 18.3125 14.796875 
Q 17.390625 17.09375 17.09375 19.921875 
Q 16.796875 22.609375 16.796875 25.296875 
Q 16.796875 28.171875 17.09375 31 
Q 17.390625 33.6875 18.3125 35.984375 
Q 19.28125 38.28125 21.390625 39.703125 
Q 23.390625 41.109375 26.8125 41.109375 
Q 30.421875 41.109375 32.515625 39.890625 
Q 34.625 38.578125 35.5 36.28125 
Q 36.46875 34.078125 36.8125 31.203125 
Q 36.921875 28.328125 36.921875 25.296875 
Q 36.921875 22.40625 36.8125 19.671875 
Q 36.46875 16.890625 35.5 14.59375 
Q 34.625 12.40625 32.515625 10.984375 
Q 30.421875 9.625 26.8125 9.625 
z
" id="DINAlternate-Bold-70"/>
      </defs>
      <g transform="translate(70.55 408.395062)scale(0.15 -0.15)">
       <use xlink:href="#DINAlternate-Bold-48"/>
       <use x="64.794922" xlink:href="#DINAlternate-Bold-61"/>
       <use x="114.794922" xlink:href="#DINAlternate-Bold-70"/>
       <use x="166.699219" xlink:href="#DINAlternate-Bold-70"/>
       <use x="218.603516" xlink:href="#DINAlternate-Bold-79"/>
      </g>
     </g>
    </g>
    <g id="ytick_7">
     <g id="text_14">
      <!-- Friendly -->
      <defs>
       <path d="M 7.515625 0 
L 18.3125 0 
L 18.3125 30.421875 
L 47.90625 30.421875 
L 47.90625 39.984375 
L 18.3125 39.984375 
L 18.3125 60.984375 
L 52.984375 60.984375 
L 52.984375 71.1875 
L 7.515625 71.1875 
z
" id="DINAlternate-Bold-46"/>
       <path d="M 36.921875 5.328125 
L 36.921875 0 
L 47.125 0 
L 47.125 71.1875 
L 36.921875 71.1875 
L 36.921875 45.3125 
L 36.921875 45.3125 
Q 34.078125 48 31 49.703125 
Q 27.6875 51.3125 23.78125 51.3125 
Q 14.5 51.078125 10.203125 44.671875 
Q 8.109375 42.28125 7.421875 38.375 
Q 6.59375 34.515625 6.59375 25.390625 
Q 6.59375 16.40625 7.421875 12.5 
Q 8.109375 8.40625 10.203125 6 
Q 12.5 3.078125 15.921875 1.3125 
Q 19.1875 -0.484375 23.78125 -0.59375 
Q 31.890625 -0.390625 36.921875 5.328125 
z
M 26.90625 41.109375 
Q 30.515625 41.109375 32.625 39.703125 
Q 34.71875 38.28125 35.5 35.984375 
Q 36.46875 33.6875 36.8125 31 
Q 36.921875 28.328125 36.921875 25.390625 
Q 36.921875 22.703125 36.8125 19.921875 
Q 36.46875 17.09375 35.5 14.796875 
Q 34.71875 12.5 32.625 11.078125 
Q 30.515625 9.625 26.90625 9.625 
Q 23.296875 9.625 21.390625 10.984375 
Q 19.28125 12.40625 18.3125 14.59375 
Q 17.390625 16.890625 17.09375 19.78125 
Q 16.796875 22.515625 16.796875 25.390625 
Q 16.796875 28.421875 17.09375 31.296875 
Q 17.390625 33.984375 18.3125 36.28125 
Q 19.28125 38.578125 21.390625 39.890625 
Q 23.296875 41.109375 26.90625 41.109375 
z
" id="DINAlternate-Bold-64"/>
      </defs>
      <g transform="translate(58.641406 341.867062)scale(0.15 -0.15)">
       <use xlink:href="#DINAlternate-Bold-46"/>
       <use x="53.695312" xlink:href="#DINAlternate-Bold-72"/>
       <use x="92.611328" xlink:href="#DINAlternate-Bold-69"/>
       <use x="116.585938" xlink:href="#DINAlternate-Bold-65"/>
       <use x="166.585938" xlink:href="#DINAlternate-Bold-6e"/>
       <use x="220.296875" xlink:href="#DINAlternate-Bold-64"/>
       <use x="272.201172" xlink:href="#DINAlternate-Bold-6c"/>
       <use x="297.982422" xlink:href="#DINAlternate-Bold-79"/>
      </g>
     </g>
    </g>
    <g id="ytick_8">
     <g id="text_15">
      <!-- Good -->
      <defs>
       <path d="M 4.109375 25.390625 
Q 4.109375 17.390625 5.421875 13.1875 
Q 6.78125 8.984375 9.625 5.90625 
Q 11.71875 3.515625 15.484375 1.609375 
Q 19.1875 -0.484375 25 -0.59375 
Q 31 -0.484375 34.71875 1.609375 
Q 36.71875 2.484375 37.984375 3.71875 
Q 39.40625 4.78125 40.375 5.90625 
Q 43.40625 8.984375 44.671875 13.1875 
Q 45.90625 17.390625 45.90625 25.390625 
Q 45.90625 33.40625 44.671875 37.703125 
Q 43.40625 41.890625 40.375 44.78125 
Q 38.375 47.3125 34.71875 49.3125 
Q 31 51.21875 25 51.3125 
Q 19.1875 51.21875 15.484375 49.3125 
Q 11.71875 47.3125 9.625 44.78125 
Q 6.78125 41.890625 5.421875 37.703125 
Q 4.109375 33.40625 4.109375 25.390625 
z
M 35.6875 25.296875 
Q 35.6875 20.125 35.203125 17.671875 
Q 34.71875 15.1875 33.203125 13.28125 
Q 32.078125 11.8125 29.890625 10.6875 
Q 27.78125 9.625 25 9.625 
Q 22.40625 9.625 20.21875 10.6875 
Q 18.109375 11.8125 16.796875 13.28125 
Q 15.484375 15.1875 14.890625 17.671875 
Q 14.3125 20.125 14.3125 25.390625 
Q 14.3125 30.71875 14.890625 33.203125 
Q 15.484375 35.59375 16.796875 37.40625 
Q 18.109375 39.109375 20.21875 40.09375 
Q 22.40625 41.109375 25 41.109375 
Q 27.78125 41.109375 29.890625 40.09375 
Q 32.078125 39.109375 33.203125 37.40625 
Q 34.71875 35.59375 35.203125 33.203125 
Q 35.6875 30.71875 35.6875 25.296875 
z
" id="DINAlternate-Bold-6f"/>
      </defs>
      <g transform="translate(78.066406 275.339062)scale(0.15 -0.15)">
       <use xlink:href="#DINAlternate-Bold-47"/>
       <use x="60.986328" xlink:href="#DINAlternate-Bold-6f"/>
       <use x="110.986328" xlink:href="#DINAlternate-Bold-6f"/>
       <use x="160.986328" xlink:href="#DINAlternate-Bold-64"/>
      </g>
     </g>
    </g>
    <g id="ytick_9">
     <g id="text_16">
      <!-- Great -->
      <g transform="translate(75.849219 208.811062)scale(0.15 -0.15)">
       <use xlink:href="#DINAlternate-Bold-47"/>
       <use x="60.986328" xlink:href="#DINAlternate-Bold-72"/>
       <use x="99.886719" xlink:href="#DINAlternate-Bold-65"/>
       <use x="149.886719" xlink:href="#DINAlternate-Bold-61"/>
       <use x="199.886719" xlink:href="#DINAlternate-Bold-74"/>
      </g>
     </g>
    </g>
    <g id="ytick_10">
     <g id="text_17">
      <!-- Sweet -->
      <defs>
       <path d="M 8.40625 17.28125 
L 1.3125 9.1875 
Q 12.703125 -0.59375 28.515625 -0.59375 
Q 52.984375 -0.296875 53.515625 20.125 
Q 53.515625 27.6875 48.78125 33.40625 
Q 44 39.203125 33.984375 40.578125 
Q 28.90625 41.21875 25.984375 41.703125 
Q 20.703125 42.671875 18.3125 45.21875 
Q 15.921875 47.703125 15.921875 50.78125 
Q 16.015625 55.90625 19.484375 58.5 
Q 22.796875 60.984375 27.78125 60.984375 
Q 37.40625 60.796875 45.40625 55.515625 
L 45.40625 55.515625 
L 51.421875 64.40625 
Q 41.609375 71.484375 28.328125 71.78125 
Q 17.28125 71.6875 11.28125 66.015625 
Q 5.078125 60.296875 5.078125 50.984375 
Q 5.078125 43.21875 10.015625 37.796875 
Q 14.796875 32.515625 23.96875 31 
Q 29.109375 30.28125 33.40625 29.6875 
Q 42.78125 28.078125 42.671875 20.125 
Q 42.484375 10.40625 28.609375 10.203125 
Q 16.890625 10.296875 8.40625 17.28125 
z
" id="DINAlternate-Bold-53"/>
       <path d="M 46.78125 0 
L 55.8125 0 
L 71.96875 50.6875 
L 61.1875 50.6875 
L 51.515625 15.1875 
L 51.3125 15.1875 
L 39.796875 50.6875 
L 32.421875 50.6875 
L 20.90625 15.1875 
L 20.703125 15.1875 
L 10.984375 50.6875 
L 0.203125 50.6875 
L 16.40625 0 
L 25.390625 0 
L 35.984375 35.5 
L 36.1875 35.5 
z
" id="DINAlternate-Bold-77"/>
      </defs>
      <g transform="translate(71.39375 142.283062)scale(0.15 -0.15)">
       <use xlink:href="#DINAlternate-Bold-53"/>
       <use x="57.373047" xlink:href="#DINAlternate-Bold-77"/>
       <use x="129.589844" xlink:href="#DINAlternate-Bold-65"/>
       <use x="179.589844" xlink:href="#DINAlternate-Bold-65"/>
       <use x="229.589844" xlink:href="#DINAlternate-Bold-74"/>
      </g>
     </g>
    </g>
   </g>
   <g id="patch_3">
    <path clip-path="url(#p0af20b8f9d)" d="M 117 752.328 
L 411.4637 752.328 
L 411.4637 735.696 
L 117 735.696 
z
" style="fill:#333333;"/>
   </g>
   <g id="patch_4">
    <path clip-path="url(#p0af20b8f9d)" d="M 117 685.8 
L 337.847775 685.8 
L 337.847775 669.168 
L 117 669.168 
z
" style="fill:#333333;"/>
   </g>
   <g id="patch_5">
    <path clip-path="url(#p0af20b8f9d)" d="M 117 619.272 
L 417.126464 619.272 
L 417.126464 602.64 
L 117 602.64 
z
" style="fill:#333333;"/>
   </g>
   <g id="patch_6">
    <path clip-path="url(#p0af20b8f9d)" d="M 117 552.744 
L 422.789227 552.744 
L 422.789227 536.112 
L 117 536.112 
z
" style="fill:#333333;"/>
   </g>
   <g id="patch_7">
    <path clip-path="url(#p0af20b8f9d)" d="M 117 486.216 
L 343.510539 486.216 
L 343.510539 469.584 
L 117 469.584 
z
" style="fill:#333333;"/>
   </g>
   <g id="patch_8">
    <path clip-path="url(#p0af20b8f9d)" d="M 117 419.688 
L 445.440281 419.688 
L 445.440281 403.056 
L 117 403.056 
z
" style="fill:#333333;"/>
   </g>
   <g id="patch_9">
    <path clip-path="url(#p0af20b8f9d)" d="M 117 353.16 
L 349.173302 353.16 
L 349.173302 336.528 
L 117 336.528 
z
" style="fill:#333333;"/>
   </g>
   <g id="patch_10">
    <path clip-path="url(#p0af20b8f9d)" d="M 117 286.632 
L 734.241218 286.632 
L 734.241218 270 
L 117 270 
z
" style="fill:#333333;"/>
   </g>
   <g id="patch_11">
    <path clip-path="url(#p0af20b8f9d)" d="M 117 220.104 
L 807.857143 220.104 
L 807.857143 203.472 
L 117 203.472 
z
" style="fill:#333333;"/>
   </g>
   <g id="patch_12">
    <path clip-path="url(#p0af20b8f9d)" d="M 117 153.576 
L 694.601874 153.576 
L 694.601874 136.944 
L 117 136.944 
z
" style="fill:#333333;"/>
   </g>
   <g id="patch_13">
    <path clip-path="url(#p0af20b8f9d)" d="M 117 735.696 
L 179.290398 735.696 
L 179.290398 719.064 
L 117 719.064 
z
" style="fill:#006699;"/>
   </g>
   <g id="patch_14">
    <path clip-path="url(#p0af20b8f9d)" d="M 117 669.168 
L 286.882904 669.168 
L 286.882904 652.536 
L 117 652.536 
z
" style="fill:#006699;"/>
   </g>
   <g id="patch_15">
    <path clip-path="url(#p0af20b8f9d)" d="M 117 602.64 
L 213.266979 602.64 
L 213.266979 586.008 
L 117 586.008 
z
" style="fill:#006699;"/>
   </g>
   <g id="patch_16">
    <path clip-path="url(#p0af20b8f9d)" d="M 117 536.112 
L 241.580796 536.112 
L 241.580796 519.48 
L 117 519.48 
z
" style="fill:#006699;"/>
   </g>
   <g id="patch_17">
    <path clip-path="url(#p0af20b8f9d)" d="M 117 469.584 
L 320.859485 469.584 
L 320.859485 452.952 
L 117 452.952 
z
" style="fill:#006699;"/>
   </g>
   <g id="patch_18">
    <path clip-path="url(#p0af20b8f9d)" d="M 117 403.056 
L 269.894614 403.056 
L 269.894614 386.424 
L 117 386.424 
z
" style="fill:#006699;"/>
   </g>
   <g id="patch_19">
    <path clip-path="url(#p0af20b8f9d)" d="M 117 336.528 
L 371.824356 336.528 
L 371.824356 319.896 
L 117 319.896 
z
" style="fill:#006699;"/>
   </g>
   <g id="patch_20">
    <path clip-path="url(#p0af20b8f9d)" d="M 117 270 
L 286.882904 270 
L 286.882904 253.368 
L 117 253.368 
z
" style="fill:#006699;"/>
   </g>
   <g id="patch_21">
    <path clip-path="url(#p0af20b8f9d)" d="M 117 203.472 
L 258.569087 203.472 
L 258.569087 186.84 
L 117 186.84 
z
" style="fill:#006699;"/>
   </g>
   <g id="patch_22">
    <path clip-path="url(#p0af20b8f9d)" d="M 117 136.944 
L 547.370023 136.944 
L 547.370023 120.312 
L 117 120.312 
z
" style="fill:#006699;"/>
   </g>
   <g id="patch_23">
    <path d="M 117 768.96 
L 117 103.68 
" style="fill:none;stroke:#000000;stroke-linecap:square;stroke-linejoin:miter;stroke-width:0.8;"/>
   </g>
   <g id="text_18">
    <!-- How boring people describe pets -->
    <defs>
     <path id="DINAlternate-Bold-20"/>
     <path d="M 6.59375 0 
L 16.796875 0 
L 16.796875 5.328125 
L 16.796875 5.328125 
Q 21.875 -0.390625 29.890625 -0.59375 
Q 34.625 -0.484375 37.984375 1.3125 
Q 41.40625 3.078125 43.5 6 
Q 45.609375 8.40625 46.390625 12.5 
Q 47.125 16.40625 47.125 25.390625 
Q 47.125 34.515625 46.390625 38.375 
Q 45.609375 42.28125 43.5 44.671875 
Q 39.203125 51.078125 29.890625 51.3125 
Q 25.984375 51.3125 22.90625 49.703125 
Q 19.578125 48 16.796875 45.3125 
L 16.796875 45.3125 
L 16.796875 71.1875 
L 6.59375 71.1875 
z
M 26.8125 41.109375 
Q 30.421875 41.109375 32.515625 39.890625 
Q 34.625 38.578125 35.5 36.28125 
Q 36.46875 33.984375 36.8125 31.296875 
Q 36.921875 28.421875 36.921875 25.390625 
Q 36.921875 22.515625 36.8125 19.78125 
Q 36.46875 16.890625 35.5 14.59375 
Q 34.625 12.40625 32.515625 10.984375 
Q 30.421875 9.625 26.8125 9.625 
Q 23.390625 9.625 21.390625 11.078125 
Q 19.28125 12.5 18.3125 14.796875 
Q 17.390625 17.09375 17.09375 19.921875 
Q 16.796875 22.703125 16.796875 25.390625 
Q 16.796875 28.328125 17.09375 31 
Q 17.390625 33.6875 18.3125 35.984375 
Q 19.28125 38.28125 21.390625 39.703125 
Q 23.390625 41.109375 26.8125 41.109375 
z
" id="DINAlternate-Bold-62"/>
     <path d="M 35.109375 5.328125 
L 35.109375 0.09375 
Q 35.015625 -5.078125 31.890625 -8.015625 
Q 28.71875 -10.890625 23.484375 -10.890625 
Q 20.703125 -10.796875 18.109375 -9.375 
Q 15.578125 -8.109375 13.625 -6.296875 
L 13.625 -6.296875 
L 5.71875 -12.59375 
Q 12.984375 -20.90625 23.296875 -21.09375 
Q 32.28125 -21.09375 38.71875 -15.578125 
Q 45.125 -10.203125 45.3125 1.21875 
L 45.3125 50.6875 
L 35.109375 50.6875 
L 35.109375 45.3125 
L 35.109375 45.3125 
Q 29.59375 51.3125 22.015625 51.3125 
Q 17.09375 51.21875 13.8125 49.421875 
Q 10.40625 47.515625 8.59375 45.125 
Q 6.59375 42.671875 5.71875 39.109375 
Q 4.78125 35.5 4.78125 25.296875 
Q 4.78125 15.28125 5.71875 11.71875 
Q 6.59375 8.109375 8.59375 5.609375 
Q 10.40625 3.421875 13.8125 1.515625 
Q 17.09375 -0.484375 22.015625 -0.59375 
Q 30.078125 -0.390625 35.109375 5.328125 
z
M 14.984375 25.296875 
Q 14.984375 31.203125 15.375 33.5 
Q 15.71875 35.796875 17 37.203125 
Q 18.015625 38.578125 20.125 39.890625 
Q 22.125 41.015625 25.09375 41.109375 
Q 28.078125 41.015625 30.078125 39.890625 
Q 32.078125 38.578125 33.109375 37.203125 
Q 34.375 35.796875 34.8125 33.5 
Q 35.109375 31.203125 35.109375 25.296875 
Q 35.109375 19.484375 34.8125 17.28125 
Q 34.375 14.984375 33.109375 13.484375 
Q 32.078125 12.109375 30.078125 10.984375 
Q 28.078125 9.625 25.09375 9.625 
Q 22.125 9.625 20.125 10.984375 
Q 18.015625 12.109375 17 13.484375 
Q 15.71875 14.984375 15.375 17.28125 
Q 14.984375 19.484375 14.984375 25.296875 
z
" id="DINAlternate-Bold-67"/>
    </defs>
    <g transform="translate(274.246875 68.68)scale(0.3 -0.3)">
     <use xlink:href="#DINAlternate-Bold-48"/>
     <use x="64.794922" xlink:href="#DINAlternate-Bold-6f"/>
     <use x="114.794922" xlink:href="#DINAlternate-Bold-77"/>
     <use x="187.011719" xlink:href="#DINAlternate-Bold-20"/>
     <use x="210.986328" xlink:href="#DINAlternate-Bold-62"/>
     <use x="262.890625" xlink:href="#DINAlternate-Bold-6f"/>
     <use x="312.890625" xlink:href="#DINAlternate-Bold-72"/>
     <use x="351.806641" xlink:href="#DINAlternate-Bold-69"/>
     <use x="375.78125" xlink:href="#DINAlternate-Bold-6e"/>
     <use x="429.492188" xlink:href="#DINAlternate-Bold-67"/>
     <use x="481.396484" xlink:href="#DINAlternate-Bold-20"/>
     <use x="505.371094" xlink:href="#DINAlternate-Bold-70"/>
     <use x="557.275391" xlink:href="#DINAlternate-Bold-65"/>
     <use x="607.275391" xlink:href="#DINAlternate-Bold-6f"/>
     <use x="657.275391" xlink:href="#DINAlternate-Bold-70"/>
     <use x="709.179688" xlink:href="#DINAlternate-Bold-6c"/>
     <use x="734.960938" xlink:href="#DINAlternate-Bold-65"/>
     <use x="784.960938" xlink:href="#DINAlternate-Bold-20"/>
     <use x="808.935547" xlink:href="#DINAlternate-Bold-64"/>
     <use x="860.839844" xlink:href="#DINAlternate-Bold-65"/>
     <use x="910.839844" xlink:href="#DINAlternate-Bold-73"/>
     <use x="958.837891" xlink:href="#DINAlternate-Bold-63"/>
     <use x="1003.222656" xlink:href="#DINAlternate-Bold-72"/>
     <use x="1042.138672" xlink:href="#DINAlternate-Bold-69"/>
     <use x="1066.113281" xlink:href="#DINAlternate-Bold-62"/>
     <use x="1118.017578" xlink:href="#DINAlternate-Bold-65"/>
     <use x="1168.017578" xlink:href="#DINAlternate-Bold-20"/>
     <use x="1191.992188" xlink:href="#DINAlternate-Bold-70"/>
     <use x="1243.896484" xlink:href="#DINAlternate-Bold-65"/>
     <use x="1293.896484" xlink:href="#DINAlternate-Bold-74"/>
     <use x="1321.679688" xlink:href="#DINAlternate-Bold-73"/>
    </g>
   </g>
   <g id="legend_1">
    <g id="patch_24">
     <path d="M 411.16 90.917825 
L 431.16 90.917825 
L 431.16 83.917825 
L 411.16 83.917825 
z
" style="fill:#333333;"/>
    </g>
    <g id="text_19">
     <!-- Dog -->
     <defs>
      <path d="M 7.515625 0 
L 31.6875 0 
Q 39.703125 0 45.21875 3.515625 
Q 50.78125 6.78125 53.90625 11.8125 
Q 55.078125 13.71875 55.90625 15.484375 
Q 56.6875 17.28125 57.078125 19.578125 
Q 57.90625 24.125 57.90625 35.59375 
Q 57.90625 46.390625 57.375 50.78125 
Q 56.6875 55.171875 54.109375 59.1875 
Q 46.875 71.09375 32.421875 71.1875 
L 7.515625 71.1875 
z
M 18.3125 60.984375 
L 31.203125 60.984375 
Q 39.40625 61.1875 43.890625 54.984375 
Q 46.09375 52.484375 46.6875 48.484375 
Q 47.125 44.484375 47.125 35.203125 
Q 47.125 25.6875 46.6875 22.21875 
Q 46.1875 18.703125 44.390625 16.40625 
Q 40.28125 10.203125 31.203125 10.203125 
L 18.3125 10.203125 
z
" id="DINAlternate-Bold-44"/>
     </defs>
     <g transform="translate(439.16 90.917825)scale(0.1 -0.1)">
      <use xlink:href="#DINAlternate-Bold-44"/>
      <use x="62.988281" xlink:href="#DINAlternate-Bold-6f"/>
      <use x="112.988281" xlink:href="#DINAlternate-Bold-67"/>
     </g>
    </g>
    <g id="patch_25">
     <path d="M 465.649063 90.917825 
L 485.649063 90.917825 
L 485.649063 83.917825 
L 465.649063 83.917825 
z
" style="fill:#006699;"/>
    </g>
    <g id="text_20">
     <!-- Cat -->
     <defs>
      <path d="M 44.09375 19.921875 
Q 39.59375 10.203125 30.515625 10.203125 
Q 26.703125 10.203125 23.96875 11.8125 
Q 21.1875 13.1875 19.484375 15.375 
Q 17.390625 17.671875 16.703125 21.390625 
Q 15.921875 25.09375 15.921875 35.59375 
Q 15.921875 46.09375 16.703125 49.90625 
Q 17.390625 53.515625 19.484375 55.8125 
Q 21.1875 58.015625 23.96875 59.46875 
Q 26.703125 60.890625 30.515625 60.984375 
Q 35.6875 60.890625 39.3125 58.015625 
Q 42.78125 54.984375 44.09375 50.6875 
L 55.515625 50.6875 
Q 53.8125 59.625 47.3125 65.671875 
Q 40.828125 71.6875 30.515625 71.78125 
Q 22.125 71.6875 16.5 67.78125 
Q 10.796875 63.921875 8.203125 58.984375 
Q 6.59375 56.390625 5.8125 52.203125 
Q 5.078125 48 5.078125 35.59375 
Q 5.078125 23.390625 5.8125 19.09375 
Q 6.203125 16.796875 6.78125 15.28125 
Q 7.421875 13.8125 8.203125 12.203125 
Q 10.796875 7.28125 16.5 3.515625 
Q 22.125 -0.390625 30.515625 -0.59375 
Q 39.796875 -0.59375 46.578125 4.6875 
Q 53.171875 10.015625 55.515625 19.921875 
z
" id="DINAlternate-Bold-43"/>
     </defs>
     <g transform="translate(493.649063 90.917825)scale(0.1 -0.1)">
      <use xlink:href="#DINAlternate-Bold-43"/>
      <use x="55.615234" xlink:href="#DINAlternate-Bold-61"/>
      <use x="105.615234" xlink:href="#DINAlternate-Bold-74"/>
     </g>
    </g>
   </g>
  </g>
 </g>
 <defs>
  <clipPath id="p0af20b8f9d">
   <rect height="665.28" width="725.4" x="117" y="103.68"/>
  </clipPath>
 </defs>
</svg>
