<?xml version="1.0" encoding="utf-8" standalone="no"?>
<!DOCTYPE svg PUBLIC "-//W3C//DTD SVG 1.1//EN"
  "http://www.w3.org/Graphics/SVG/1.1/DTD/svg11.dtd">
<!-- Created with matplotlib (http://matplotlib.org/) -->
<svg height="504pt" version="1.1" viewBox="0 0 1296 504" width="1296pt" xmlns="http://www.w3.org/2000/svg" xmlns:xlink="http://www.w3.org/1999/xlink">
 <defs>
  <style type="text/css">
*{stroke-linecap:butt;stroke-linejoin:round;}
  </style>
 </defs>
 <g id="figure_1">
  <g id="patch_1">
   <path d="M 0 504 
L 1296 504 
L 1296 0 
L 0 0 
z
" style="fill:#f5f5f5;"/>
  </g>
  <g id="axes_1">
   <g id="patch_2">
    <path d="M 162 448.56 
L 1166.4 448.56 
L 1166.4 60.48 
L 162 60.48 
z
" style="fill:none;"/>
   </g>
   <g id="matplotlib.axis_1">
    <g id="xtick_1">
     <g id="line2d_1">
      <path clip-path="url(#p8229da3578)" d="M 162 448.56 
L 162 60.48 
" style="fill:none;stroke:#c0c0c0;stroke-linecap:square;stroke-width:0.8;"/>
     </g>
     <g id="text_1">
      <!-- 0 -->
      <defs>
       <path d="M 33.984375 20.515625 
Q 33.6875 9.71875 23.96875 9.625 
Q 14.203125 9.71875 14.015625 20.515625 
L 14.015625 50.6875 
Q 14.203125 61.375 23.96875 61.578125 
Q 33.6875 61.375 33.984375 50.6875 
z
M 3.8125 19.921875 
Q 3.90625 10.109375 10.109375 4.78125 
Q 15.921875 -0.484375 23.96875 -0.59375 
Q 32.28125 -0.484375 38.09375 4.78125 
Q 44 10.109375 44.1875 19.921875 
L 44.1875 51.3125 
Q 44 61.1875 38.09375 66.5 
Q 32.28125 71.78125 23.96875 71.78125 
Q 15.921875 71.78125 10.109375 66.5 
Q 3.90625 61.1875 3.8125 51.3125 
z
" id="DINAlternate-Bold-30"/>
      </defs>
      <g transform="translate(159.6 462.67875)scale(0.1 -0.1)">
       <use xlink:href="#DINAlternate-Bold-30"/>
      </g>
     </g>
    </g>
    <g id="xtick_2">
     <g id="line2d_2">
      <path clip-path="url(#p8229da3578)" d="M 278.155102 448.56 
L 278.155102 60.48 
" style="fill:none;stroke:#c0c0c0;stroke-linecap:square;stroke-width:0.8;"/>
     </g>
    </g>
    <g id="xtick_3">
     <g id="line2d_3">
      <path clip-path="url(#p8229da3578)" d="M 394.310204 448.56 
L 394.310204 60.48 
" style="fill:none;stroke:#c0c0c0;stroke-linecap:square;stroke-width:0.8;"/>
     </g>
     <g id="text_2">
      <!-- 5 -->
      <defs>
       <path d="M 4.984375 32.71875 
L 14.59375 32.71875 
Q 16.40625 35.984375 18.703125 37.3125 
Q 21 38.578125 23.78125 38.578125 
Q 26.90625 38.578125 29 37.703125 
Q 31.109375 36.625 32.171875 34.8125 
Q 34.1875 31 34.078125 24.90625 
Q 34.078125 22.40625 33.984375 19.78125 
Q 33.796875 17.09375 32.90625 14.796875 
Q 32.078125 12.5 29.984375 11.078125 
Q 27.78125 9.625 24.125 9.625 
Q 15.578125 9.71875 13.921875 17.921875 
L 3.71875 17.921875 
Q 5.171875 8.109375 11.28125 3.71875 
Q 17.28125 -0.59375 24.515625 -0.59375 
Q 29.890625 -0.484375 33.796875 1.90625 
Q 37.796875 4.203125 39.890625 6.984375 
Q 42.28125 9.8125 43.3125 13.484375 
Q 44.28125 17.1875 44.28125 24.125 
Q 44.28125 28.609375 44 31.6875 
Q 43.703125 34.71875 43.015625 36.8125 
Q 41.703125 40.671875 38.71875 43.609375 
Q 36.71875 45.796875 33.5 47.3125 
Q 30.078125 48.6875 25.984375 48.78125 
Q 19.578125 48.78125 14.59375 44.875 
L 14.59375 44.875 
L 14.59375 60.984375 
L 42.921875 60.984375 
L 42.921875 71.1875 
L 4.984375 71.1875 
z
" id="DINAlternate-Bold-35"/>
      </defs>
      <g transform="translate(391.910204 462.67875)scale(0.1 -0.1)">
       <use xlink:href="#DINAlternate-Bold-35"/>
      </g>
     </g>
    </g>
    <g id="xtick_4">
     <g id="line2d_4">
      <path clip-path="url(#p8229da3578)" d="M 510.465306 448.56 
L 510.465306 60.48 
" style="fill:none;stroke:#c0c0c0;stroke-linecap:square;stroke-width:0.8;"/>
     </g>
    </g>
    <g id="xtick_5">
     <g id="line2d_5">
      <path clip-path="url(#p8229da3578)" d="M 626.620408 448.56 
L 626.620408 60.48 
" style="fill:none;stroke:#c0c0c0;stroke-linecap:square;stroke-width:0.8;"/>
     </g>
     <g id="text_3">
      <!-- 10 -->
      <defs>
       <path d="M 19.390625 60.40625 
L 19.390625 0 
L 29.59375 0 
L 29.59375 71.1875 
L 19.390625 71.1875 
L 9.28125 63.8125 
L 9.28125 52.984375 
L 9.28125 52.984375 
L 19.390625 60.40625 
z
" id="DINAlternate-Bold-31"/>
      </defs>
      <g transform="translate(621.820408 462.67875)scale(0.1 -0.1)">
       <use xlink:href="#DINAlternate-Bold-31"/>
       <use x="47.998047" xlink:href="#DINAlternate-Bold-30"/>
      </g>
     </g>
    </g>
    <g id="xtick_6">
     <g id="line2d_6">
      <path clip-path="url(#p8229da3578)" d="M 742.77551 448.56 
L 742.77551 60.48 
" style="fill:none;stroke:#c0c0c0;stroke-linecap:square;stroke-width:0.8;"/>
     </g>
    </g>
    <g id="xtick_7">
     <g id="line2d_7">
      <path clip-path="url(#p8229da3578)" d="M 858.930612 448.56 
L 858.930612 60.48 
" style="fill:none;stroke:#c0c0c0;stroke-linecap:square;stroke-width:0.8;"/>
     </g>
     <g id="text_4">
      <!-- 15 -->
      <g transform="translate(854.130612 462.67875)scale(0.1 -0.1)">
       <use xlink:href="#DINAlternate-Bold-31"/>
       <use x="47.998047" xlink:href="#DINAlternate-Bold-35"/>
      </g>
     </g>
    </g>
    <g id="xtick_8">
     <g id="line2d_8">
      <path clip-path="url(#p8229da3578)" d="M 975.085714 448.56 
L 975.085714 60.48 
" style="fill:none;stroke:#c0c0c0;stroke-linecap:square;stroke-width:0.8;"/>
     </g>
    </g>
    <g id="xtick_9">
     <g id="line2d_9">
      <path clip-path="url(#p8229da3578)" d="M 1091.240816 448.56 
L 1091.240816 60.48 
" style="fill:none;stroke:#c0c0c0;stroke-linecap:square;stroke-width:0.8;"/>
     </g>
     <g id="text_5">
      <!-- 20 percent -->
      <defs>
       <path d="M 3.21875 0 
L 43.796875 0 
L 43.796875 10.203125 
L 16.609375 10.203125 
L 39.5 38.921875 
Q 43.796875 44.390625 43.796875 51.421875 
Q 43.703125 60.203125 37.890625 65.921875 
Q 32.171875 71.6875 23 71.78125 
Q 14.796875 71.6875 9.1875 66.015625 
Q 3.609375 60.203125 3.21875 51.3125 
L 13.375 51.3125 
Q 13.921875 56.203125 16.796875 58.890625 
Q 19.578125 61.578125 23.78125 61.578125 
Q 28.515625 61.46875 31.109375 58.5 
Q 33.59375 55.515625 33.59375 51.515625 
Q 33.59375 50 33.203125 48.296875 
Q 32.625 46.484375 31 44.390625 
L 3.21875 9.625 
z
" id="DINAlternate-Bold-32"/>
       <path id="DINAlternate-Bold-20"/>
       <path d="M 6.59375 -20.515625 
L 16.796875 -20.515625 
L 16.796875 5.421875 
L 16.796875 5.421875 
Q 19.578125 2.6875 22.90625 1.125 
Q 25.984375 -0.59375 29.890625 -0.59375 
Q 34.625 -0.484375 37.984375 1.3125 
Q 41.40625 3.078125 43.5 6 
Q 45.609375 8.5 46.390625 12.40625 
Q 47.125 16.3125 47.125 25.296875 
Q 47.125 34.515625 46.390625 38.375 
Q 45.609375 42.28125 43.5 44.671875 
Q 39.203125 51.078125 29.890625 51.3125 
Q 21.875 51.078125 16.796875 45.40625 
L 16.796875 45.40625 
L 16.796875 50.6875 
L 6.59375 50.6875 
z
M 26.8125 9.625 
Q 23.390625 9.625 21.390625 11.078125 
Q 19.28125 12.5 18.3125 14.796875 
Q 17.390625 17.09375 17.09375 19.921875 
Q 16.796875 22.609375 16.796875 25.296875 
Q 16.796875 28.171875 17.09375 31 
Q 17.390625 33.6875 18.3125 35.984375 
Q 19.28125 38.28125 21.390625 39.703125 
Q 23.390625 41.109375 26.8125 41.109375 
Q 30.421875 41.109375 32.515625 39.890625 
Q 34.625 38.578125 35.5 36.28125 
Q 36.46875 34.078125 36.8125 31.203125 
Q 36.921875 28.328125 36.921875 25.296875 
Q 36.921875 22.40625 36.8125 19.671875 
Q 36.46875 16.890625 35.5 14.59375 
Q 34.625 12.40625 32.515625 10.984375 
Q 30.421875 9.625 26.8125 9.625 
z
" id="DINAlternate-Bold-70"/>
       <path d="M 45.90625 21.484375 
L 45.90625 29.890625 
Q 45.796875 39.890625 39.703125 45.609375 
Q 33.6875 51.21875 25 51.3125 
Q 21.390625 51.3125 17.671875 50 
Q 13.921875 48.6875 10.890625 45.703125 
Q 7.90625 42.78125 6 37.703125 
Q 4.109375 32.71875 4.109375 25.203125 
Q 4.109375 17.390625 6.296875 12.5 
Q 8.296875 7.421875 11.53125 4.59375 
Q 13.1875 3.21875 15.09375 2.296875 
Q 16.890625 1.21875 18.796875 0.59375 
Q 22.609375 -0.59375 26.609375 -0.59375 
Q 37.109375 -0.6875 44.875 7.625 
L 37.5 13.921875 
L 37.5 13.921875 
Q 32.625 8.984375 26.421875 8.984375 
Q 21.09375 8.984375 17.828125 12.203125 
Q 14.3125 15.375 14.3125 21.484375 
z
M 14.3125 29.890625 
Q 14.59375 35.796875 17.484375 38.8125 
Q 20.40625 41.703125 25 41.703125 
Q 29.59375 41.703125 32.515625 38.8125 
Q 35.5 35.796875 35.6875 29.890625 
z
" id="DINAlternate-Bold-65"/>
       <path d="M 6.59375 0 
L 16.796875 0 
L 16.796875 30.515625 
Q 16.890625 36.078125 20.015625 38.578125 
Q 22.796875 41.109375 26.703125 41.109375 
Q 30.171875 41.109375 33.40625 38.578125 
L 33.40625 38.578125 
L 40.828125 47.40625 
Q 36.28125 51.21875 30.171875 51.3125 
Q 22.015625 51.3125 17 45.3125 
L 16.796875 45.3125 
L 16.796875 50.6875 
L 6.59375 50.6875 
z
" id="DINAlternate-Bold-72"/>
       <path d="M 36.375 14.890625 
L 36.375 14.890625 
Q 32.515625 9.71875 26.078125 9.625 
Q 13.09375 9.375 12.890625 25.296875 
Q 13.09375 41.3125 26.078125 41.109375 
Q 32.515625 40.921875 36.375 35.796875 
L 36.375 35.796875 
L 43.890625 42.484375 
Q 40.578125 46.484375 36.078125 48.875 
Q 31.59375 51.21875 25.6875 51.3125 
Q 16.703125 51.421875 9.90625 45.3125 
Q 2.875 39.109375 2.6875 25.296875 
Q 2.875 11.625 9.90625 5.515625 
Q 16.703125 -0.59375 25.6875 -0.59375 
Q 31.59375 -0.484375 36.078125 2 
Q 40.578125 4.390625 43.890625 8.203125 
z
" id="DINAlternate-Bold-63"/>
       <path d="M 6.59375 0 
L 16.796875 0 
L 16.796875 30.171875 
Q 16.796875 35.5 19.671875 38.28125 
Q 22.515625 41.109375 26.90625 41.109375 
Q 31.296875 41.109375 34.078125 38.28125 
Q 36.921875 35.5 36.921875 30.171875 
L 36.921875 0 
L 47.125 0 
L 47.125 33.6875 
Q 46.875 42.390625 41.703125 46.875 
Q 36.46875 51.3125 30.171875 51.3125 
Q 22.015625 51.3125 17 45.3125 
L 16.796875 45.3125 
L 16.796875 50.6875 
L 6.59375 50.6875 
z
" id="DINAlternate-Bold-6e"/>
       <path d="M 7.171875 50.6875 
L 2.09375 50.6875 
L 2.09375 42.921875 
L 7.171875 42.921875 
L 7.171875 12.5 
Q 7.171875 6.5 10.6875 3.328125 
Q 14.109375 0 19.484375 0 
L 24.8125 0 
L 24.8125 9.625 
L 21 9.625 
Q 17.28125 9.515625 17.390625 13.375 
L 17.390625 42.921875 
L 24.8125 42.921875 
L 24.8125 50.6875 
L 17.390625 50.6875 
L 17.390625 66.109375 
L 7.171875 66.109375 
z
" id="DINAlternate-Bold-74"/>
      </defs>
      <g transform="translate(1069.407223 462.738125)scale(0.1 -0.1)">
       <use xlink:href="#DINAlternate-Bold-32"/>
       <use x="47.998047" xlink:href="#DINAlternate-Bold-30"/>
       <use x="95.996094" xlink:href="#DINAlternate-Bold-20"/>
       <use x="119.970703" xlink:href="#DINAlternate-Bold-70"/>
       <use x="171.875" xlink:href="#DINAlternate-Bold-65"/>
       <use x="221.875" xlink:href="#DINAlternate-Bold-72"/>
       <use x="260.775391" xlink:href="#DINAlternate-Bold-63"/>
       <use x="305.160156" xlink:href="#DINAlternate-Bold-65"/>
       <use x="355.160156" xlink:href="#DINAlternate-Bold-6e"/>
       <use x="408.871094" xlink:href="#DINAlternate-Bold-74"/>
      </g>
     </g>
    </g>
   </g>
   <g id="matplotlib.axis_2">
    <g id="ytick_1">
     <g id="text_6">
      <!-- Terrier -->
      <defs>
       <path d="M 19.578125 0 
L 30.421875 0 
L 30.421875 61.578125 
L 49.90625 61.578125 
L 49.90625 71.1875 
L 0.09375 71.1875 
L 0.09375 61.578125 
L 19.578125 61.578125 
z
" id="DINAlternate-Bold-54"/>
       <path d="M 6.890625 0 
L 17.09375 0 
L 17.09375 50.6875 
L 6.890625 50.6875 
z
M 6.890625 60.984375 
L 17.09375 60.984375 
L 17.09375 71.1875 
L 6.890625 71.1875 
z
" id="DINAlternate-Bold-69"/>
      </defs>
      <g transform="translate(111.413281 415.091063)scale(0.15 -0.15)">
       <use xlink:href="#DINAlternate-Bold-54"/>
       <use x="49.84375" xlink:href="#DINAlternate-Bold-65"/>
       <use x="99.84375" xlink:href="#DINAlternate-Bold-72"/>
       <use x="138.759766" xlink:href="#DINAlternate-Bold-72"/>
       <use x="177.675781" xlink:href="#DINAlternate-Bold-69"/>
       <use x="201.650391" xlink:href="#DINAlternate-Bold-65"/>
       <use x="251.650391" xlink:href="#DINAlternate-Bold-72"/>
      </g>
     </g>
    </g>
    <g id="ytick_2">
     <g id="text_7">
      <!-- American Staffordshire -->
      <defs>
       <path d="M 20.125 25.484375 
L 30.421875 56.59375 
L 30.609375 56.59375 
L 40.921875 25.484375 
z
M 49.515625 0 
L 60.890625 0 
L 35.015625 71.1875 
L 25.984375 71.1875 
L 0.09375 0 
L 11.53125 0 
L 17 15.921875 
L 44 15.921875 
z
" id="DINAlternate-Bold-41"/>
       <path d="M 7.171875 0 
L 17.390625 0 
L 17.390625 30.171875 
Q 17.390625 35.5 20.3125 38.28125 
Q 23.09375 41.109375 27.484375 41.109375 
Q 31.890625 41.109375 34.71875 38.28125 
Q 37.5 35.5 37.5 30.171875 
L 37.5 0 
L 47.703125 0 
L 47.703125 30.171875 
Q 47.703125 35.5 50.59375 38.28125 
Q 53.421875 41.109375 57.8125 41.109375 
Q 62.203125 41.109375 64.984375 38.28125 
Q 67.78125 35.5 67.78125 30.171875 
L 67.78125 0 
L 77.984375 0 
L 77.984375 33.6875 
Q 77.78125 42.390625 72.609375 46.875 
Q 67.390625 51.3125 61.078125 51.3125 
Q 51.078125 51.421875 45.125 44.671875 
L 45.125 44.671875 
Q 42.484375 47.609375 39.3125 49.515625 
Q 36.078125 51.21875 30.8125 51.3125 
Q 22.609375 51.3125 17.578125 45.3125 
L 17.390625 45.3125 
L 17.390625 50.6875 
L 7.171875 50.6875 
z
" id="DINAlternate-Bold-6d"/>
       <path d="M 33.203125 0 
L 43.40625 0 
L 43.40625 34.625 
Q 43.3125 43.890625 37.59375 47.703125 
Q 31.890625 51.421875 22.3125 51.3125 
Q 10.984375 51.515625 5.171875 43.890625 
L 13.1875 37.796875 
L 13.1875 37.796875 
Q 14.5 39.984375 16.796875 40.921875 
Q 19 41.703125 22.796875 41.703125 
Q 33.296875 41.890625 33.203125 35.203125 
L 33.203125 29.890625 
L 19.09375 29.890625 
Q 10.984375 29.78125 6.78125 25.484375 
Q 2.59375 21.296875 2.59375 14.890625 
Q 2.59375 8.203125 7.421875 3.90625 
Q 12.015625 -0.484375 20.515625 -0.59375 
Q 25.6875 -0.59375 28.609375 0.6875 
Q 31.59375 1.90625 33.015625 4.5 
L 33.203125 4.5 
z
M 33.203125 17.828125 
Q 33.203125 12.109375 30.8125 10.5 
Q 28.171875 8.890625 21.78125 8.984375 
Q 16.703125 8.984375 14.5 10.984375 
Q 12.203125 12.796875 12.203125 15.375 
Q 12.109375 21.296875 21 21.484375 
L 33.203125 21.484375 
z
" id="DINAlternate-Bold-61"/>
       <path d="M 8.40625 17.28125 
L 1.3125 9.1875 
Q 12.703125 -0.59375 28.515625 -0.59375 
Q 52.984375 -0.296875 53.515625 20.125 
Q 53.515625 27.6875 48.78125 33.40625 
Q 44 39.203125 33.984375 40.578125 
Q 28.90625 41.21875 25.984375 41.703125 
Q 20.703125 42.671875 18.3125 45.21875 
Q 15.921875 47.703125 15.921875 50.78125 
Q 16.015625 55.90625 19.484375 58.5 
Q 22.796875 60.984375 27.78125 60.984375 
Q 37.40625 60.796875 45.40625 55.515625 
L 45.40625 55.515625 
L 51.421875 64.40625 
Q 41.609375 71.484375 28.328125 71.78125 
Q 17.28125 71.6875 11.28125 66.015625 
Q 5.078125 60.296875 5.078125 50.984375 
Q 5.078125 43.21875 10.015625 37.796875 
Q 14.796875 32.515625 23.96875 31 
Q 29.109375 30.28125 33.40625 29.6875 
Q 42.78125 28.078125 42.671875 20.125 
Q 42.484375 10.40625 28.609375 10.203125 
Q 16.890625 10.296875 8.40625 17.28125 
z
" id="DINAlternate-Bold-53"/>
       <path d="M 8.203125 0 
L 18.40625 0 
L 18.40625 42.921875 
L 28.609375 42.921875 
L 28.609375 50.6875 
L 18.40625 50.6875 
L 18.40625 57.375 
Q 18.21875 61.71875 22.796875 61.578125 
L 28.609375 61.578125 
L 28.609375 71.1875 
L 22.015625 71.1875 
Q 16.109375 71.1875 12.203125 68.015625 
Q 8.203125 64.59375 8.203125 57.375 
L 8.203125 50.6875 
L 3.078125 50.6875 
L 3.078125 42.921875 
L 8.203125 42.921875 
z
" id="DINAlternate-Bold-66"/>
       <path d="M 4.109375 25.390625 
Q 4.109375 17.390625 5.421875 13.1875 
Q 6.78125 8.984375 9.625 5.90625 
Q 11.71875 3.515625 15.484375 1.609375 
Q 19.1875 -0.484375 25 -0.59375 
Q 31 -0.484375 34.71875 1.609375 
Q 36.71875 2.484375 37.984375 3.71875 
Q 39.40625 4.78125 40.375 5.90625 
Q 43.40625 8.984375 44.671875 13.1875 
Q 45.90625 17.390625 45.90625 25.390625 
Q 45.90625 33.40625 44.671875 37.703125 
Q 43.40625 41.890625 40.375 44.78125 
Q 38.375 47.3125 34.71875 49.3125 
Q 31 51.21875 25 51.3125 
Q 19.1875 51.21875 15.484375 49.3125 
Q 11.71875 47.3125 9.625 44.78125 
Q 6.78125 41.890625 5.421875 37.703125 
Q 4.109375 33.40625 4.109375 25.390625 
z
M 35.6875 25.296875 
Q 35.6875 20.125 35.203125 17.671875 
Q 34.71875 15.1875 33.203125 13.28125 
Q 32.078125 11.8125 29.890625 10.6875 
Q 27.78125 9.625 25 9.625 
Q 22.40625 9.625 20.21875 10.6875 
Q 18.109375 11.8125 16.796875 13.28125 
Q 15.484375 15.1875 14.890625 17.671875 
Q 14.3125 20.125 14.3125 25.390625 
Q 14.3125 30.71875 14.890625 33.203125 
Q 15.484375 35.59375 16.796875 37.40625 
Q 18.109375 39.109375 20.21875 40.09375 
Q 22.40625 41.109375 25 41.109375 
Q 27.78125 41.109375 29.890625 40.09375 
Q 32.078125 39.109375 33.203125 37.40625 
Q 34.71875 35.59375 35.203125 33.203125 
Q 35.6875 30.71875 35.6875 25.296875 
z
" id="DINAlternate-Bold-6f"/>
       <path d="M 36.921875 5.328125 
L 36.921875 0 
L 47.125 0 
L 47.125 71.1875 
L 36.921875 71.1875 
L 36.921875 45.3125 
L 36.921875 45.3125 
Q 34.078125 48 31 49.703125 
Q 27.6875 51.3125 23.78125 51.3125 
Q 14.5 51.078125 10.203125 44.671875 
Q 8.109375 42.28125 7.421875 38.375 
Q 6.59375 34.515625 6.59375 25.390625 
Q 6.59375 16.40625 7.421875 12.5 
Q 8.109375 8.40625 10.203125 6 
Q 12.5 3.078125 15.921875 1.3125 
Q 19.1875 -0.484375 23.78125 -0.59375 
Q 31.890625 -0.390625 36.921875 5.328125 
z
M 26.90625 41.109375 
Q 30.515625 41.109375 32.625 39.703125 
Q 34.71875 38.28125 35.5 35.984375 
Q 36.46875 33.6875 36.8125 31 
Q 36.921875 28.328125 36.921875 25.390625 
Q 36.921875 22.703125 36.8125 19.921875 
Q 36.46875 17.09375 35.5 14.796875 
Q 34.71875 12.5 32.625 11.078125 
Q 30.515625 9.625 26.90625 9.625 
Q 23.296875 9.625 21.390625 10.984375 
Q 19.28125 12.40625 18.3125 14.59375 
Q 17.390625 16.890625 17.09375 19.78125 
Q 16.796875 22.515625 16.796875 25.390625 
Q 16.796875 28.421875 17.09375 31.296875 
Q 17.390625 33.984375 18.3125 36.28125 
Q 19.28125 38.578125 21.390625 39.890625 
Q 23.296875 41.109375 26.90625 41.109375 
z
" id="DINAlternate-Bold-64"/>
       <path d="M 8.109375 15.484375 
L 0.984375 8.5 
Q 10.890625 -0.59375 23.296875 -0.59375 
Q 32.421875 -0.484375 38.28125 3.609375 
Q 44.1875 7.625 44.28125 14.984375 
Q 44.28125 21.296875 41.015625 25.390625 
Q 37.5 29.59375 29.59375 30.171875 
L 21.1875 30.8125 
Q 17.484375 31.203125 16.015625 32.625 
Q 14.40625 33.890625 14.5 35.59375 
Q 14.5 38.28125 16.5 39.984375 
Q 18.40625 41.703125 23.1875 41.703125 
Q 27.390625 41.703125 30.609375 40.484375 
Q 33.890625 39.109375 36.8125 37.015625 
L 36.8125 37.015625 
L 43.109375 44.390625 
Q 39.40625 47.609375 34.71875 49.515625 
Q 32.28125 50.390625 29.5 50.875 
Q 26.703125 51.3125 23.1875 51.3125 
Q 15.09375 51.3125 9.8125 47.40625 
Q 4.390625 43.5 4.296875 35.6875 
Q 4.390625 29.203125 8.5 25.59375 
Q 12.5 21.875 18.890625 21.296875 
L 27.875 20.515625 
Q 30.71875 20.40625 32.421875 19.28125 
Q 34.078125 18.21875 34.078125 15.484375 
Q 34.078125 12.40625 31.296875 10.6875 
Q 28.515625 8.984375 24.125 8.984375 
Q 14.3125 8.984375 8.109375 15.484375 
z
" id="DINAlternate-Bold-73"/>
       <path d="M 6.59375 0 
L 16.796875 0 
L 16.796875 30.171875 
Q 16.796875 35.5 19.671875 38.28125 
Q 22.515625 41.109375 26.90625 41.109375 
Q 31.296875 41.109375 34.078125 38.28125 
Q 36.921875 35.5 36.921875 30.171875 
L 36.921875 0 
L 47.125 0 
L 47.125 33.6875 
Q 46.875 42.390625 41.703125 46.875 
Q 36.46875 51.3125 30.171875 51.3125 
Q 22.015625 51.3125 17 45.3125 
L 16.796875 45.3125 
L 16.796875 71.1875 
L 6.59375 71.1875 
z
" id="DINAlternate-Bold-68"/>
      </defs>
      <g transform="translate(8.410156 337.475063)scale(0.15 -0.15)">
       <use xlink:href="#DINAlternate-Bold-41"/>
       <use x="60.986328" xlink:href="#DINAlternate-Bold-6d"/>
       <use x="146.191406" xlink:href="#DINAlternate-Bold-65"/>
       <use x="196.191406" xlink:href="#DINAlternate-Bold-72"/>
       <use x="235.107422" xlink:href="#DINAlternate-Bold-69"/>
       <use x="259.082031" xlink:href="#DINAlternate-Bold-63"/>
       <use x="303.466797" xlink:href="#DINAlternate-Bold-61"/>
       <use x="353.466797" xlink:href="#DINAlternate-Bold-6e"/>
       <use x="407.177734" xlink:href="#DINAlternate-Bold-20"/>
       <use x="431.152344" xlink:href="#DINAlternate-Bold-53"/>
       <use x="488.525391" xlink:href="#DINAlternate-Bold-74"/>
       <use x="516.308594" xlink:href="#DINAlternate-Bold-61"/>
       <use x="566.308594" xlink:href="#DINAlternate-Bold-66"/>
       <use x="594.076172" xlink:href="#DINAlternate-Bold-66"/>
       <use x="621.859375" xlink:href="#DINAlternate-Bold-6f"/>
       <use x="671.859375" xlink:href="#DINAlternate-Bold-72"/>
       <use x="710.759766" xlink:href="#DINAlternate-Bold-64"/>
       <use x="762.664062" xlink:href="#DINAlternate-Bold-73"/>
       <use x="810.662109" xlink:href="#DINAlternate-Bold-68"/>
       <use x="864.373047" xlink:href="#DINAlternate-Bold-69"/>
       <use x="888.347656" xlink:href="#DINAlternate-Bold-72"/>
       <use x="927.248047" xlink:href="#DINAlternate-Bold-65"/>
      </g>
     </g>
    </g>
    <g id="ytick_3">
     <g id="text_8">
      <!-- Chihuahua -->
      <defs>
       <path d="M 44.09375 19.921875 
Q 39.59375 10.203125 30.515625 10.203125 
Q 26.703125 10.203125 23.96875 11.8125 
Q 21.1875 13.1875 19.484375 15.375 
Q 17.390625 17.671875 16.703125 21.390625 
Q 15.921875 25.09375 15.921875 35.59375 
Q 15.921875 46.09375 16.703125 49.90625 
Q 17.390625 53.515625 19.484375 55.8125 
Q 21.1875 58.015625 23.96875 59.46875 
Q 26.703125 60.890625 30.515625 60.984375 
Q 35.6875 60.890625 39.3125 58.015625 
Q 42.78125 54.984375 44.09375 50.6875 
L 55.515625 50.6875 
Q 53.8125 59.625 47.3125 65.671875 
Q 40.828125 71.6875 30.515625 71.78125 
Q 22.125 71.6875 16.5 67.78125 
Q 10.796875 63.921875 8.203125 58.984375 
Q 6.59375 56.390625 5.8125 52.203125 
Q 5.078125 48 5.078125 35.59375 
Q 5.078125 23.390625 5.8125 19.09375 
Q 6.203125 16.796875 6.78125 15.28125 
Q 7.421875 13.8125 8.203125 12.203125 
Q 10.796875 7.28125 16.5 3.515625 
Q 22.125 -0.390625 30.515625 -0.59375 
Q 39.796875 -0.59375 46.578125 4.6875 
Q 53.171875 10.015625 55.515625 19.921875 
z
" id="DINAlternate-Bold-43"/>
       <path d="M 6.59375 17 
Q 6.6875 8.40625 12.203125 4 
Q 17.28125 -0.484375 23.578125 -0.59375 
Q 31.6875 -0.59375 36.71875 5.421875 
L 36.921875 5.421875 
L 36.921875 0 
L 47.125 0 
L 47.125 50.6875 
L 36.921875 50.6875 
L 36.921875 20.515625 
Q 36.921875 15.375 34.078125 12.5 
Q 31.296875 9.625 26.90625 9.625 
Q 22.515625 9.625 19.671875 12.5 
Q 16.796875 15.375 16.796875 20.515625 
L 16.796875 50.6875 
L 6.59375 50.6875 
z
" id="DINAlternate-Bold-75"/>
      </defs>
      <g transform="translate(87.774219 259.859063)scale(0.15 -0.15)">
       <use xlink:href="#DINAlternate-Bold-43"/>
       <use x="55.615234" xlink:href="#DINAlternate-Bold-68"/>
       <use x="109.326172" xlink:href="#DINAlternate-Bold-69"/>
       <use x="133.300781" xlink:href="#DINAlternate-Bold-68"/>
       <use x="187.011719" xlink:href="#DINAlternate-Bold-75"/>
       <use x="240.722656" xlink:href="#DINAlternate-Bold-61"/>
       <use x="290.722656" xlink:href="#DINAlternate-Bold-68"/>
       <use x="344.433594" xlink:href="#DINAlternate-Bold-75"/>
       <use x="398.144531" xlink:href="#DINAlternate-Bold-61"/>
      </g>
     </g>
    </g>
    <g id="ytick_4">
     <g id="text_9">
      <!-- Mixed Breed -->
      <defs>
       <path d="M 7.515625 0 
L 18.3125 0 
L 18.3125 44.390625 
L 18.5 44.390625 
L 33.40625 10.203125 
L 42.390625 10.203125 
L 57.28125 44.390625 
L 57.515625 44.390625 
L 57.515625 0 
L 68.3125 0 
L 68.3125 71.1875 
L 58.109375 71.1875 
L 38.09375 24.8125 
L 38.09375 24.8125 
L 17.671875 71.1875 
L 7.515625 71.1875 
z
" id="DINAlternate-Bold-4d"/>
       <path d="M 18.3125 25.875 
L 0.984375 0 
L 13.1875 0 
L 23.96875 16.890625 
L 23.96875 16.890625 
L 34.8125 0 
L 46.96875 0 
L 29.6875 25.875 
L 46.296875 50.6875 
L 34.078125 50.6875 
L 23.96875 34.28125 
L 23.96875 34.28125 
L 13.921875 50.6875 
L 1.703125 50.6875 
z
" id="DINAlternate-Bold-78"/>
       <path d="M 7.515625 0 
L 37.5 0 
Q 45.90625 0 51.515625 5.609375 
Q 57.171875 10.984375 57.28125 20.21875 
Q 57.28125 25.78125 54.5 30.515625 
Q 51.515625 35.109375 45.703125 36.625 
L 45.703125 36.8125 
Q 48.78125 38.28125 50.875 40.09375 
Q 52.984375 41.796875 54.109375 43.703125 
Q 56.296875 47.703125 56.203125 52.09375 
Q 56.203125 60.6875 50.875 65.921875 
Q 45.609375 71.09375 35.109375 71.1875 
L 7.515625 71.1875 
z
M 34.90625 31.59375 
Q 40.921875 31.5 43.703125 28.421875 
Q 46.484375 25.296875 46.484375 20.90625 
Q 46.484375 16.609375 43.703125 13.484375 
Q 40.921875 10.296875 34.90625 10.203125 
L 18.3125 10.203125 
L 18.3125 31.59375 
z
M 33.890625 61.578125 
Q 39.796875 61.46875 42.578125 58.6875 
Q 45.40625 55.71875 45.40625 51.421875 
Q 45.40625 47.125 42.578125 44.28125 
Q 39.796875 41.21875 33.890625 41.21875 
L 18.3125 41.21875 
L 18.3125 61.578125 
z
" id="DINAlternate-Bold-42"/>
      </defs>
      <g transform="translate(76.186719 182.243063)scale(0.15 -0.15)">
       <use xlink:href="#DINAlternate-Bold-4d"/>
       <use x="75.78125" xlink:href="#DINAlternate-Bold-69"/>
       <use x="99.755859" xlink:href="#DINAlternate-Bold-78"/>
       <use x="147.753906" xlink:href="#DINAlternate-Bold-65"/>
       <use x="197.753906" xlink:href="#DINAlternate-Bold-64"/>
       <use x="249.658203" xlink:href="#DINAlternate-Bold-20"/>
       <use x="273.632812" xlink:href="#DINAlternate-Bold-42"/>
       <use x="334.619141" xlink:href="#DINAlternate-Bold-72"/>
       <use x="373.519531" xlink:href="#DINAlternate-Bold-65"/>
       <use x="423.519531" xlink:href="#DINAlternate-Bold-65"/>
       <use x="473.519531" xlink:href="#DINAlternate-Bold-64"/>
      </g>
     </g>
    </g>
    <g id="ytick_5">
     <g id="text_10">
      <!-- Pit Bull Terrier -->
      <defs>
       <path d="M 18.3125 60.984375 
L 33.890625 60.984375 
Q 38.28125 61.078125 41.609375 58.984375 
Q 43.796875 57.71875 45.015625 55.515625 
Q 46.1875 53.078125 46.1875 49.515625 
Q 46.1875 45.21875 43.3125 41.703125 
Q 40.28125 38.09375 34.28125 37.984375 
L 18.3125 37.984375 
z
M 7.515625 0 
L 18.3125 0 
L 18.3125 27.78125 
L 34.71875 27.78125 
Q 45.703125 27.984375 51.421875 34.8125 
Q 56.984375 41.3125 56.984375 49.21875 
Q 56.984375 55.078125 54.78125 59.375 
Q 52.6875 63.8125 49.3125 66.21875 
Q 45.3125 69.390625 41.40625 70.40625 
Q 37.5 71.1875 33.296875 71.1875 
L 7.515625 71.1875 
z
" id="DINAlternate-Bold-50"/>
       <path d="M 6.59375 12.3125 
Q 6.59375 5.609375 10.40625 2.78125 
Q 14.015625 0 19.578125 0 
L 24.125 0 
L 24.125 9.625 
L 20.609375 9.625 
Q 16.796875 9.625 16.796875 13.09375 
L 16.796875 71.1875 
L 6.59375 71.1875 
z
" id="DINAlternate-Bold-6c"/>
      </defs>
      <g transform="translate(62.628125 104.627063)scale(0.15 -0.15)">
       <use xlink:href="#DINAlternate-Bold-50"/>
       <use x="59.277344" xlink:href="#DINAlternate-Bold-69"/>
       <use x="83.251953" xlink:href="#DINAlternate-Bold-74"/>
       <use x="111.035156" xlink:href="#DINAlternate-Bold-20"/>
       <use x="135.009766" xlink:href="#DINAlternate-Bold-42"/>
       <use x="195.996094" xlink:href="#DINAlternate-Bold-75"/>
       <use x="249.707031" xlink:href="#DINAlternate-Bold-6c"/>
       <use x="275.488281" xlink:href="#DINAlternate-Bold-6c"/>
       <use x="301.269531" xlink:href="#DINAlternate-Bold-20"/>
       <use x="325.244141" xlink:href="#DINAlternate-Bold-54"/>
       <use x="375.087891" xlink:href="#DINAlternate-Bold-65"/>
       <use x="425.087891" xlink:href="#DINAlternate-Bold-72"/>
       <use x="464.003906" xlink:href="#DINAlternate-Bold-72"/>
       <use x="502.919922" xlink:href="#DINAlternate-Bold-69"/>
       <use x="526.894531" xlink:href="#DINAlternate-Bold-65"/>
       <use x="576.894531" xlink:href="#DINAlternate-Bold-72"/>
      </g>
     </g>
    </g>
   </g>
   <g id="patch_3">
    <path clip-path="url(#p8229da3578)" d="M 162 429.156 
L 366.979592 429.156 
L 366.979592 390.348 
L 162 390.348 
z
" style="fill:#333333;"/>
   </g>
   <g id="patch_4">
    <path clip-path="url(#p8229da3578)" d="M 162 351.54 
L 366.979592 351.54 
L 366.979592 312.732 
L 162 312.732 
z
" style="fill:#333333;"/>
   </g>
   <g id="patch_5">
    <path clip-path="url(#p8229da3578)" d="M 162 273.924 
L 708.612245 273.924 
L 708.612245 235.116 
L 162 235.116 
z
" style="fill:#333333;"/>
   </g>
   <g id="patch_6">
    <path clip-path="url(#p8229da3578)" d="M 162 196.308 
L 776.938776 196.308 
L 776.938776 157.5 
L 162 157.5 
z
" style="fill:#333333;"/>
   </g>
   <g id="patch_7">
    <path clip-path="url(#p8229da3578)" d="M 162 118.692 
L 1118.571429 118.692 
L 1118.571429 79.884 
L 162 79.884 
z
" style="fill:#006699;"/>
   </g>
   <g id="patch_8">
    <path d="M 162 448.56 
L 162 60.48 
" style="fill:none;stroke:#000000;stroke-linecap:square;stroke-linejoin:miter;stroke-width:0.8;"/>
   </g>
   <g id="text_11">
    <!-- The majority of adoptable dogs are pit bull terriers -->
    <defs>
     <path d="M 7.90625 -5.515625 
Q 7.8125 -10.890625 2.203125 -10.890625 
L -0.6875 -10.890625 
L -0.6875 -20.515625 
L 3.328125 -20.515625 
Q 9.90625 -20.40625 14.015625 -16.5 
Q 18.015625 -12.703125 18.109375 -6.296875 
L 18.109375 50.6875 
L 7.90625 50.6875 
z
M 7.90625 60.984375 
L 18.109375 60.984375 
L 18.109375 71.1875 
L 7.90625 71.1875 
z
" id="DINAlternate-Bold-6a"/>
     <path d="M 17.484375 2 
L 14.703125 -6.5 
Q 14.015625 -8.6875 12.3125 -9.8125 
Q 10.59375 -10.890625 8.59375 -10.890625 
L 5.609375 -10.890625 
L 5.609375 -20.515625 
L 8.984375 -20.515625 
Q 13.71875 -20.515625 17.484375 -18.40625 
Q 21.1875 -16.21875 23.296875 -10.5 
L 45.125 50.6875 
L 34.28125 50.6875 
L 22.3125 15.1875 
L 22.125 15.1875 
L 10.109375 50.6875 
L -0.6875 50.6875 
z
" id="DINAlternate-Bold-79"/>
     <path d="M 6.59375 0 
L 16.796875 0 
L 16.796875 5.328125 
L 16.796875 5.328125 
Q 21.875 -0.390625 29.890625 -0.59375 
Q 34.625 -0.484375 37.984375 1.3125 
Q 41.40625 3.078125 43.5 6 
Q 45.609375 8.40625 46.390625 12.5 
Q 47.125 16.40625 47.125 25.390625 
Q 47.125 34.515625 46.390625 38.375 
Q 45.609375 42.28125 43.5 44.671875 
Q 39.203125 51.078125 29.890625 51.3125 
Q 25.984375 51.3125 22.90625 49.703125 
Q 19.578125 48 16.796875 45.3125 
L 16.796875 45.3125 
L 16.796875 71.1875 
L 6.59375 71.1875 
z
M 26.8125 41.109375 
Q 30.421875 41.109375 32.515625 39.890625 
Q 34.625 38.578125 35.5 36.28125 
Q 36.46875 33.984375 36.8125 31.296875 
Q 36.921875 28.421875 36.921875 25.390625 
Q 36.921875 22.515625 36.8125 19.78125 
Q 36.46875 16.890625 35.5 14.59375 
Q 34.625 12.40625 32.515625 10.984375 
Q 30.421875 9.625 26.8125 9.625 
Q 23.390625 9.625 21.390625 11.078125 
Q 19.28125 12.5 18.3125 14.796875 
Q 17.390625 17.09375 17.09375 19.921875 
Q 16.796875 22.703125 16.796875 25.390625 
Q 16.796875 28.328125 17.09375 31 
Q 17.390625 33.6875 18.3125 35.984375 
Q 19.28125 38.28125 21.390625 39.703125 
Q 23.390625 41.109375 26.8125 41.109375 
z
" id="DINAlternate-Bold-62"/>
     <path d="M 35.109375 5.328125 
L 35.109375 0.09375 
Q 35.015625 -5.078125 31.890625 -8.015625 
Q 28.71875 -10.890625 23.484375 -10.890625 
Q 20.703125 -10.796875 18.109375 -9.375 
Q 15.578125 -8.109375 13.625 -6.296875 
L 13.625 -6.296875 
L 5.71875 -12.59375 
Q 12.984375 -20.90625 23.296875 -21.09375 
Q 32.28125 -21.09375 38.71875 -15.578125 
Q 45.125 -10.203125 45.3125 1.21875 
L 45.3125 50.6875 
L 35.109375 50.6875 
L 35.109375 45.3125 
L 35.109375 45.3125 
Q 29.59375 51.3125 22.015625 51.3125 
Q 17.09375 51.21875 13.8125 49.421875 
Q 10.40625 47.515625 8.59375 45.125 
Q 6.59375 42.671875 5.71875 39.109375 
Q 4.78125 35.5 4.78125 25.296875 
Q 4.78125 15.28125 5.71875 11.71875 
Q 6.59375 8.109375 8.59375 5.609375 
Q 10.40625 3.421875 13.8125 1.515625 
Q 17.09375 -0.484375 22.015625 -0.59375 
Q 30.078125 -0.390625 35.109375 5.328125 
z
M 14.984375 25.296875 
Q 14.984375 31.203125 15.375 33.5 
Q 15.71875 35.796875 17 37.203125 
Q 18.015625 38.578125 20.125 39.890625 
Q 22.125 41.015625 25.09375 41.109375 
Q 28.078125 41.015625 30.078125 39.890625 
Q 32.078125 38.578125 33.109375 37.203125 
Q 34.375 35.796875 34.8125 33.5 
Q 35.109375 31.203125 35.109375 25.296875 
Q 35.109375 19.484375 34.8125 17.28125 
Q 34.375 14.984375 33.109375 13.484375 
Q 32.078125 12.109375 30.078125 10.984375 
Q 28.078125 9.625 25.09375 9.625 
Q 22.125 9.625 20.125 10.984375 
Q 18.015625 12.109375 17 13.484375 
Q 15.71875 14.984375 15.375 17.28125 
Q 14.984375 19.484375 14.984375 25.296875 
z
" id="DINAlternate-Bold-67"/>
    </defs>
    <g transform="translate(349.703906 45.48)scale(0.3 -0.3)">
     <use xlink:href="#DINAlternate-Bold-54"/>
     <use x="49.984375" xlink:href="#DINAlternate-Bold-68"/>
     <use x="103.695312" xlink:href="#DINAlternate-Bold-65"/>
     <use x="153.695312" xlink:href="#DINAlternate-Bold-20"/>
     <use x="177.669922" xlink:href="#DINAlternate-Bold-6d"/>
     <use x="262.875" xlink:href="#DINAlternate-Bold-61"/>
     <use x="312.875" xlink:href="#DINAlternate-Bold-6a"/>
     <use x="338.65625" xlink:href="#DINAlternate-Bold-6f"/>
     <use x="388.65625" xlink:href="#DINAlternate-Bold-72"/>
     <use x="427.572266" xlink:href="#DINAlternate-Bold-69"/>
     <use x="451.546875" xlink:href="#DINAlternate-Bold-74"/>
     <use x="479.330078" xlink:href="#DINAlternate-Bold-79"/>
     <use x="523.714844" xlink:href="#DINAlternate-Bold-20"/>
     <use x="547.689453" xlink:href="#DINAlternate-Bold-6f"/>
     <use x="597.689453" xlink:href="#DINAlternate-Bold-66"/>
     <use x="625.472656" xlink:href="#DINAlternate-Bold-20"/>
     <use x="649.447266" xlink:href="#DINAlternate-Bold-61"/>
     <use x="699.447266" xlink:href="#DINAlternate-Bold-64"/>
     <use x="751.351562" xlink:href="#DINAlternate-Bold-6f"/>
     <use x="801.351562" xlink:href="#DINAlternate-Bold-70"/>
     <use x="853.255859" xlink:href="#DINAlternate-Bold-74"/>
     <use x="881.039062" xlink:href="#DINAlternate-Bold-61"/>
     <use x="931.039062" xlink:href="#DINAlternate-Bold-62"/>
     <use x="982.943359" xlink:href="#DINAlternate-Bold-6c"/>
     <use x="1008.724609" xlink:href="#DINAlternate-Bold-65"/>
     <use x="1058.724609" xlink:href="#DINAlternate-Bold-20"/>
     <use x="1082.699219" xlink:href="#DINAlternate-Bold-64"/>
     <use x="1134.603516" xlink:href="#DINAlternate-Bold-6f"/>
     <use x="1184.603516" xlink:href="#DINAlternate-Bold-67"/>
     <use x="1236.507812" xlink:href="#DINAlternate-Bold-73"/>
     <use x="1284.505859" xlink:href="#DINAlternate-Bold-20"/>
     <use x="1308.480469" xlink:href="#DINAlternate-Bold-61"/>
     <use x="1358.480469" xlink:href="#DINAlternate-Bold-72"/>
     <use x="1397.380859" xlink:href="#DINAlternate-Bold-65"/>
     <use x="1447.380859" xlink:href="#DINAlternate-Bold-20"/>
     <use x="1471.355469" xlink:href="#DINAlternate-Bold-70"/>
     <use x="1523.259766" xlink:href="#DINAlternate-Bold-69"/>
     <use x="1547.234375" xlink:href="#DINAlternate-Bold-74"/>
     <use x="1575.017578" xlink:href="#DINAlternate-Bold-20"/>
     <use x="1598.992188" xlink:href="#DINAlternate-Bold-62"/>
     <use x="1650.896484" xlink:href="#DINAlternate-Bold-75"/>
     <use x="1704.607422" xlink:href="#DINAlternate-Bold-6c"/>
     <use x="1730.388672" xlink:href="#DINAlternate-Bold-6c"/>
     <use x="1756.169922" xlink:href="#DINAlternate-Bold-20"/>
     <use x="1780.144531" xlink:href="#DINAlternate-Bold-74"/>
     <use x="1807.927734" xlink:href="#DINAlternate-Bold-65"/>
     <use x="1857.927734" xlink:href="#DINAlternate-Bold-72"/>
     <use x="1896.84375" xlink:href="#DINAlternate-Bold-72"/>
     <use x="1935.759766" xlink:href="#DINAlternate-Bold-69"/>
     <use x="1959.734375" xlink:href="#DINAlternate-Bold-65"/>
     <use x="2009.734375" xlink:href="#DINAlternate-Bold-72"/>
     <use x="2048.650391" xlink:href="#DINAlternate-Bold-73"/>
    </g>
   </g>
  </g>
 </g>
 <defs>
  <clipPath id="p8229da3578">
   <rect height="388.08" width="1004.4" x="162" y="60.48"/>
  </clipPath>
 </defs>
</svg>
