<?xml version="1.0" encoding="utf-8" standalone="no"?>
<!DOCTYPE svg PUBLIC "-//W3C//DTD SVG 1.1//EN"
  "http://www.w3.org/Graphics/SVG/1.1/DTD/svg11.dtd">
<!-- Created with matplotlib (http://matplotlib.org/) -->
<svg height="341.787pt" version="1.1" viewBox="0 0 645.417187 341.787" width="645.417187pt" xmlns="http://www.w3.org/2000/svg" xmlns:xlink="http://www.w3.org/1999/xlink">
 <defs>
  <style type="text/css">
*{stroke-linecap:butt;stroke-linejoin:round;}
  </style>
 </defs>
 <g id="figure_1">
  <g id="patch_1">
   <path d="M 0 341.787 
L 645.417187 341.787 
L 645.417187 0 
L 0 0 
z
" style="fill:#f5f5f5;"/>
  </g>
  <g id="axes_1">
   <g id="patch_2">
    <path d="M 76.717188 331.087 
L 634.717188 331.087 
L 634.717188 53.887 
L 76.717188 53.887 
z
" style="fill:none;"/>
   </g>
   <g id="matplotlib.axis_1">
    <g id="xtick_1">
     <g id="line2d_1">
      <path clip-path="url(#p6574e8f9c2)" d="M 76.717188 331.087 
L 76.717188 53.887 
" style="fill:none;stroke:#c0c0c0;stroke-linecap:square;stroke-width:0.8;"/>
     </g>
     <g id="line2d_2">
      <defs>
       <path d="M 0 0 
L 0 -3.5 
" id="m4fc74391b1" style="stroke:#d3d3d3;stroke-width:0.8;"/>
      </defs>
      <g>
       <use style="fill:#d3d3d3;stroke:#d3d3d3;stroke-width:0.8;" x="76.717188" xlink:href="#m4fc74391b1" y="53.887"/>
      </g>
     </g>
     <g id="text_1">
      <!-- 0 -->
      <defs>
       <path d="M 33.984375 20.515625 
Q 33.6875 9.71875 23.96875 9.625 
Q 14.203125 9.71875 14.015625 20.515625 
L 14.015625 50.6875 
Q 14.203125 61.375 23.96875 61.578125 
Q 33.6875 61.375 33.984375 50.6875 
z
M 3.8125 19.921875 
Q 3.90625 10.109375 10.109375 4.78125 
Q 15.921875 -0.484375 23.96875 -0.59375 
Q 32.28125 -0.484375 38.09375 4.78125 
Q 44 10.109375 44.1875 19.921875 
L 44.1875 51.3125 
Q 44 61.1875 38.09375 66.5 
Q 32.28125 71.78125 23.96875 71.78125 
Q 15.921875 71.78125 10.109375 66.5 
Q 3.90625 61.1875 3.8125 51.3125 
z
" id="DINAlternate-Bold-30"/>
      </defs>
      <g transform="translate(74.077188 44.630281)scale(0.11 -0.11)">
       <use xlink:href="#DINAlternate-Bold-30"/>
      </g>
     </g>
    </g>
    <g id="xtick_2">
     <g id="line2d_3">
      <path clip-path="url(#p6574e8f9c2)" d="M 189.689251 331.087 
L 189.689251 53.887 
" style="fill:none;stroke:#c0c0c0;stroke-linecap:square;stroke-width:0.8;"/>
     </g>
     <g id="line2d_4">
      <g>
       <use style="fill:#d3d3d3;stroke:#d3d3d3;stroke-width:0.8;" x="189.689251" xlink:href="#m4fc74391b1" y="53.887"/>
      </g>
     </g>
     <g id="text_2">
      <!-- 10 -->
      <defs>
       <path d="M 19.390625 60.40625 
L 19.390625 0 
L 29.59375 0 
L 29.59375 71.1875 
L 19.390625 71.1875 
L 9.28125 63.8125 
L 9.28125 52.984375 
L 9.28125 52.984375 
L 19.390625 60.40625 
z
" id="DINAlternate-Bold-31"/>
      </defs>
      <g transform="translate(184.409251 44.630281)scale(0.11 -0.11)">
       <use xlink:href="#DINAlternate-Bold-31"/>
       <use x="47.998047" xlink:href="#DINAlternate-Bold-30"/>
      </g>
     </g>
    </g>
    <g id="xtick_3">
     <g id="line2d_5">
      <path clip-path="url(#p6574e8f9c2)" d="M 302.661314 331.087 
L 302.661314 53.887 
" style="fill:none;stroke:#c0c0c0;stroke-linecap:square;stroke-width:0.8;"/>
     </g>
     <g id="line2d_6">
      <g>
       <use style="fill:#d3d3d3;stroke:#d3d3d3;stroke-width:0.8;" x="302.661314" xlink:href="#m4fc74391b1" y="53.887"/>
      </g>
     </g>
     <g id="text_3">
      <!-- 20 -->
      <defs>
       <path d="M 3.21875 0 
L 43.796875 0 
L 43.796875 10.203125 
L 16.609375 10.203125 
L 39.5 38.921875 
Q 43.796875 44.390625 43.796875 51.421875 
Q 43.703125 60.203125 37.890625 65.921875 
Q 32.171875 71.6875 23 71.78125 
Q 14.796875 71.6875 9.1875 66.015625 
Q 3.609375 60.203125 3.21875 51.3125 
L 13.375 51.3125 
Q 13.921875 56.203125 16.796875 58.890625 
Q 19.578125 61.578125 23.78125 61.578125 
Q 28.515625 61.46875 31.109375 58.5 
Q 33.59375 55.515625 33.59375 51.515625 
Q 33.59375 50 33.203125 48.296875 
Q 32.625 46.484375 31 44.390625 
L 3.21875 9.625 
z
" id="DINAlternate-Bold-32"/>
      </defs>
      <g transform="translate(297.381314 44.630281)scale(0.11 -0.11)">
       <use xlink:href="#DINAlternate-Bold-32"/>
       <use x="47.998047" xlink:href="#DINAlternate-Bold-30"/>
      </g>
     </g>
    </g>
    <g id="xtick_4">
     <g id="line2d_7">
      <path clip-path="url(#p6574e8f9c2)" d="M 415.633377 331.087 
L 415.633377 53.887 
" style="fill:none;stroke:#c0c0c0;stroke-linecap:square;stroke-width:0.8;"/>
     </g>
     <g id="line2d_8">
      <g>
       <use style="fill:#d3d3d3;stroke:#d3d3d3;stroke-width:0.8;" x="415.633377" xlink:href="#m4fc74391b1" y="53.887"/>
      </g>
     </g>
     <g id="text_4">
      <!-- 30 -->
      <defs>
       <path d="M 17.578125 32.171875 
L 21.875 32.171875 
Q 26.609375 32.171875 29.6875 29.296875 
Q 32.8125 26.3125 32.90625 20.90625 
Q 32.8125 15.578125 29.6875 12.703125 
Q 26.609375 9.625 22.125 9.625 
Q 17.921875 9.625 15.375 11.921875 
Q 12.890625 14.109375 11.53125 17.671875 
L 1.3125 17.671875 
Q 2.984375 8.796875 8.59375 4.109375 
Q 14.203125 -0.59375 21.484375 -0.59375 
Q 30.90625 -0.484375 36.921875 5.421875 
Q 43.015625 11.1875 43.109375 21.1875 
Q 43.109375 25.6875 41.21875 29.78125 
Q 39.203125 33.890625 34.71875 36.8125 
Q 39.109375 39.796875 40.828125 43.609375 
Q 42.28125 47.40625 42.28125 51.515625 
Q 42.1875 59.625 36.71875 65.578125 
Q 31 71.6875 21.296875 71.78125 
Q 13.625 71.6875 8.109375 66.3125 
Q 2.484375 60.890625 1.703125 52.984375 
L 11.921875 52.984375 
Q 12.890625 57.375 15.71875 59.46875 
Q 18.40625 61.578125 21.6875 61.578125 
Q 26.21875 61.46875 29.109375 58.6875 
Q 31.984375 55.8125 32.078125 51.3125 
Q 32.078125 46.875 29.203125 44.09375 
Q 26.3125 41.21875 21.09375 41.21875 
L 17.578125 41.21875 
z
" id="DINAlternate-Bold-33"/>
      </defs>
      <g transform="translate(410.353377 44.630281)scale(0.11 -0.11)">
       <use xlink:href="#DINAlternate-Bold-33"/>
       <use x="47.998047" xlink:href="#DINAlternate-Bold-30"/>
      </g>
     </g>
    </g>
    <g id="xtick_5">
     <g id="line2d_9">
      <path clip-path="url(#p6574e8f9c2)" d="M 528.60544 331.087 
L 528.60544 53.887 
" style="fill:none;stroke:#c0c0c0;stroke-linecap:square;stroke-width:0.8;"/>
     </g>
     <g id="line2d_10">
      <g>
       <use style="fill:#d3d3d3;stroke:#d3d3d3;stroke-width:0.8;" x="528.60544" xlink:href="#m4fc74391b1" y="53.887"/>
      </g>
     </g>
     <g id="text_5">
      <!-- 40 tons of garbage per capita -->
      <defs>
       <path d="M 1.21875 10.59375 
L 30.90625 10.59375 
L 30.90625 0 
L 41.109375 0 
L 41.109375 10.59375 
L 46.78125 10.59375 
L 46.78125 20.21875 
L 41.109375 20.21875 
L 41.109375 40.671875 
L 30.90625 40.671875 
L 30.90625 20.21875 
L 12.3125 20.21875 
L 36.375 71.1875 
L 25 71.1875 
L 1.21875 20.21875 
z
" id="DINAlternate-Bold-34"/>
       <path id="DINAlternate-Bold-20"/>
       <path d="M 7.171875 50.6875 
L 2.09375 50.6875 
L 2.09375 42.921875 
L 7.171875 42.921875 
L 7.171875 12.5 
Q 7.171875 6.5 10.6875 3.328125 
Q 14.109375 0 19.484375 0 
L 24.8125 0 
L 24.8125 9.625 
L 21 9.625 
Q 17.28125 9.515625 17.390625 13.375 
L 17.390625 42.921875 
L 24.8125 42.921875 
L 24.8125 50.6875 
L 17.390625 50.6875 
L 17.390625 66.109375 
L 7.171875 66.109375 
z
" id="DINAlternate-Bold-74"/>
       <path d="M 4.109375 25.390625 
Q 4.109375 17.390625 5.421875 13.1875 
Q 6.78125 8.984375 9.625 5.90625 
Q 11.71875 3.515625 15.484375 1.609375 
Q 19.1875 -0.484375 25 -0.59375 
Q 31 -0.484375 34.71875 1.609375 
Q 36.71875 2.484375 37.984375 3.71875 
Q 39.40625 4.78125 40.375 5.90625 
Q 43.40625 8.984375 44.671875 13.1875 
Q 45.90625 17.390625 45.90625 25.390625 
Q 45.90625 33.40625 44.671875 37.703125 
Q 43.40625 41.890625 40.375 44.78125 
Q 38.375 47.3125 34.71875 49.3125 
Q 31 51.21875 25 51.3125 
Q 19.1875 51.21875 15.484375 49.3125 
Q 11.71875 47.3125 9.625 44.78125 
Q 6.78125 41.890625 5.421875 37.703125 
Q 4.109375 33.40625 4.109375 25.390625 
z
M 35.6875 25.296875 
Q 35.6875 20.125 35.203125 17.671875 
Q 34.71875 15.1875 33.203125 13.28125 
Q 32.078125 11.8125 29.890625 10.6875 
Q 27.78125 9.625 25 9.625 
Q 22.40625 9.625 20.21875 10.6875 
Q 18.109375 11.8125 16.796875 13.28125 
Q 15.484375 15.1875 14.890625 17.671875 
Q 14.3125 20.125 14.3125 25.390625 
Q 14.3125 30.71875 14.890625 33.203125 
Q 15.484375 35.59375 16.796875 37.40625 
Q 18.109375 39.109375 20.21875 40.09375 
Q 22.40625 41.109375 25 41.109375 
Q 27.78125 41.109375 29.890625 40.09375 
Q 32.078125 39.109375 33.203125 37.40625 
Q 34.71875 35.59375 35.203125 33.203125 
Q 35.6875 30.71875 35.6875 25.296875 
z
" id="DINAlternate-Bold-6f"/>
       <path d="M 6.59375 0 
L 16.796875 0 
L 16.796875 30.171875 
Q 16.796875 35.5 19.671875 38.28125 
Q 22.515625 41.109375 26.90625 41.109375 
Q 31.296875 41.109375 34.078125 38.28125 
Q 36.921875 35.5 36.921875 30.171875 
L 36.921875 0 
L 47.125 0 
L 47.125 33.6875 
Q 46.875 42.390625 41.703125 46.875 
Q 36.46875 51.3125 30.171875 51.3125 
Q 22.015625 51.3125 17 45.3125 
L 16.796875 45.3125 
L 16.796875 50.6875 
L 6.59375 50.6875 
z
" id="DINAlternate-Bold-6e"/>
       <path d="M 8.109375 15.484375 
L 0.984375 8.5 
Q 10.890625 -0.59375 23.296875 -0.59375 
Q 32.421875 -0.484375 38.28125 3.609375 
Q 44.1875 7.625 44.28125 14.984375 
Q 44.28125 21.296875 41.015625 25.390625 
Q 37.5 29.59375 29.59375 30.171875 
L 21.1875 30.8125 
Q 17.484375 31.203125 16.015625 32.625 
Q 14.40625 33.890625 14.5 35.59375 
Q 14.5 38.28125 16.5 39.984375 
Q 18.40625 41.703125 23.1875 41.703125 
Q 27.390625 41.703125 30.609375 40.484375 
Q 33.890625 39.109375 36.8125 37.015625 
L 36.8125 37.015625 
L 43.109375 44.390625 
Q 39.40625 47.609375 34.71875 49.515625 
Q 32.28125 50.390625 29.5 50.875 
Q 26.703125 51.3125 23.1875 51.3125 
Q 15.09375 51.3125 9.8125 47.40625 
Q 4.390625 43.5 4.296875 35.6875 
Q 4.390625 29.203125 8.5 25.59375 
Q 12.5 21.875 18.890625 21.296875 
L 27.875 20.515625 
Q 30.71875 20.40625 32.421875 19.28125 
Q 34.078125 18.21875 34.078125 15.484375 
Q 34.078125 12.40625 31.296875 10.6875 
Q 28.515625 8.984375 24.125 8.984375 
Q 14.3125 8.984375 8.109375 15.484375 
z
" id="DINAlternate-Bold-73"/>
       <path d="M 8.203125 0 
L 18.40625 0 
L 18.40625 42.921875 
L 28.609375 42.921875 
L 28.609375 50.6875 
L 18.40625 50.6875 
L 18.40625 57.375 
Q 18.21875 61.71875 22.796875 61.578125 
L 28.609375 61.578125 
L 28.609375 71.1875 
L 22.015625 71.1875 
Q 16.109375 71.1875 12.203125 68.015625 
Q 8.203125 64.59375 8.203125 57.375 
L 8.203125 50.6875 
L 3.078125 50.6875 
L 3.078125 42.921875 
L 8.203125 42.921875 
z
" id="DINAlternate-Bold-66"/>
       <path d="M 35.109375 5.328125 
L 35.109375 0.09375 
Q 35.015625 -5.078125 31.890625 -8.015625 
Q 28.71875 -10.890625 23.484375 -10.890625 
Q 20.703125 -10.796875 18.109375 -9.375 
Q 15.578125 -8.109375 13.625 -6.296875 
L 13.625 -6.296875 
L 5.71875 -12.59375 
Q 12.984375 -20.90625 23.296875 -21.09375 
Q 32.28125 -21.09375 38.71875 -15.578125 
Q 45.125 -10.203125 45.3125 1.21875 
L 45.3125 50.6875 
L 35.109375 50.6875 
L 35.109375 45.3125 
L 35.109375 45.3125 
Q 29.59375 51.3125 22.015625 51.3125 
Q 17.09375 51.21875 13.8125 49.421875 
Q 10.40625 47.515625 8.59375 45.125 
Q 6.59375 42.671875 5.71875 39.109375 
Q 4.78125 35.5 4.78125 25.296875 
Q 4.78125 15.28125 5.71875 11.71875 
Q 6.59375 8.109375 8.59375 5.609375 
Q 10.40625 3.421875 13.8125 1.515625 
Q 17.09375 -0.484375 22.015625 -0.59375 
Q 30.078125 -0.390625 35.109375 5.328125 
z
M 14.984375 25.296875 
Q 14.984375 31.203125 15.375 33.5 
Q 15.71875 35.796875 17 37.203125 
Q 18.015625 38.578125 20.125 39.890625 
Q 22.125 41.015625 25.09375 41.109375 
Q 28.078125 41.015625 30.078125 39.890625 
Q 32.078125 38.578125 33.109375 37.203125 
Q 34.375 35.796875 34.8125 33.5 
Q 35.109375 31.203125 35.109375 25.296875 
Q 35.109375 19.484375 34.8125 17.28125 
Q 34.375 14.984375 33.109375 13.484375 
Q 32.078125 12.109375 30.078125 10.984375 
Q 28.078125 9.625 25.09375 9.625 
Q 22.125 9.625 20.125 10.984375 
Q 18.015625 12.109375 17 13.484375 
Q 15.71875 14.984375 15.375 17.28125 
Q 14.984375 19.484375 14.984375 25.296875 
z
" id="DINAlternate-Bold-67"/>
       <path d="M 33.203125 0 
L 43.40625 0 
L 43.40625 34.625 
Q 43.3125 43.890625 37.59375 47.703125 
Q 31.890625 51.421875 22.3125 51.3125 
Q 10.984375 51.515625 5.171875 43.890625 
L 13.1875 37.796875 
L 13.1875 37.796875 
Q 14.5 39.984375 16.796875 40.921875 
Q 19 41.703125 22.796875 41.703125 
Q 33.296875 41.890625 33.203125 35.203125 
L 33.203125 29.890625 
L 19.09375 29.890625 
Q 10.984375 29.78125 6.78125 25.484375 
Q 2.59375 21.296875 2.59375 14.890625 
Q 2.59375 8.203125 7.421875 3.90625 
Q 12.015625 -0.484375 20.515625 -0.59375 
Q 25.6875 -0.59375 28.609375 0.6875 
Q 31.59375 1.90625 33.015625 4.5 
L 33.203125 4.5 
z
M 33.203125 17.828125 
Q 33.203125 12.109375 30.8125 10.5 
Q 28.171875 8.890625 21.78125 8.984375 
Q 16.703125 8.984375 14.5 10.984375 
Q 12.203125 12.796875 12.203125 15.375 
Q 12.109375 21.296875 21 21.484375 
L 33.203125 21.484375 
z
" id="DINAlternate-Bold-61"/>
       <path d="M 6.59375 0 
L 16.796875 0 
L 16.796875 30.515625 
Q 16.890625 36.078125 20.015625 38.578125 
Q 22.796875 41.109375 26.703125 41.109375 
Q 30.171875 41.109375 33.40625 38.578125 
L 33.40625 38.578125 
L 40.828125 47.40625 
Q 36.28125 51.21875 30.171875 51.3125 
Q 22.015625 51.3125 17 45.3125 
L 16.796875 45.3125 
L 16.796875 50.6875 
L 6.59375 50.6875 
z
" id="DINAlternate-Bold-72"/>
       <path d="M 6.59375 0 
L 16.796875 0 
L 16.796875 5.328125 
L 16.796875 5.328125 
Q 21.875 -0.390625 29.890625 -0.59375 
Q 34.625 -0.484375 37.984375 1.3125 
Q 41.40625 3.078125 43.5 6 
Q 45.609375 8.40625 46.390625 12.5 
Q 47.125 16.40625 47.125 25.390625 
Q 47.125 34.515625 46.390625 38.375 
Q 45.609375 42.28125 43.5 44.671875 
Q 39.203125 51.078125 29.890625 51.3125 
Q 25.984375 51.3125 22.90625 49.703125 
Q 19.578125 48 16.796875 45.3125 
L 16.796875 45.3125 
L 16.796875 71.1875 
L 6.59375 71.1875 
z
M 26.8125 41.109375 
Q 30.421875 41.109375 32.515625 39.890625 
Q 34.625 38.578125 35.5 36.28125 
Q 36.46875 33.984375 36.8125 31.296875 
Q 36.921875 28.421875 36.921875 25.390625 
Q 36.921875 22.515625 36.8125 19.78125 
Q 36.46875 16.890625 35.5 14.59375 
Q 34.625 12.40625 32.515625 10.984375 
Q 30.421875 9.625 26.8125 9.625 
Q 23.390625 9.625 21.390625 11.078125 
Q 19.28125 12.5 18.3125 14.796875 
Q 17.390625 17.09375 17.09375 19.921875 
Q 16.796875 22.703125 16.796875 25.390625 
Q 16.796875 28.328125 17.09375 31 
Q 17.390625 33.6875 18.3125 35.984375 
Q 19.28125 38.28125 21.390625 39.703125 
Q 23.390625 41.109375 26.8125 41.109375 
z
" id="DINAlternate-Bold-62"/>
       <path d="M 45.90625 21.484375 
L 45.90625 29.890625 
Q 45.796875 39.890625 39.703125 45.609375 
Q 33.6875 51.21875 25 51.3125 
Q 21.390625 51.3125 17.671875 50 
Q 13.921875 48.6875 10.890625 45.703125 
Q 7.90625 42.78125 6 37.703125 
Q 4.109375 32.71875 4.109375 25.203125 
Q 4.109375 17.390625 6.296875 12.5 
Q 8.296875 7.421875 11.53125 4.59375 
Q 13.1875 3.21875 15.09375 2.296875 
Q 16.890625 1.21875 18.796875 0.59375 
Q 22.609375 -0.59375 26.609375 -0.59375 
Q 37.109375 -0.6875 44.875 7.625 
L 37.5 13.921875 
L 37.5 13.921875 
Q 32.625 8.984375 26.421875 8.984375 
Q 21.09375 8.984375 17.828125 12.203125 
Q 14.3125 15.375 14.3125 21.484375 
z
M 14.3125 29.890625 
Q 14.59375 35.796875 17.484375 38.8125 
Q 20.40625 41.703125 25 41.703125 
Q 29.59375 41.703125 32.515625 38.8125 
Q 35.5 35.796875 35.6875 29.890625 
z
" id="DINAlternate-Bold-65"/>
       <path d="M 6.59375 -20.515625 
L 16.796875 -20.515625 
L 16.796875 5.421875 
L 16.796875 5.421875 
Q 19.578125 2.6875 22.90625 1.125 
Q 25.984375 -0.59375 29.890625 -0.59375 
Q 34.625 -0.484375 37.984375 1.3125 
Q 41.40625 3.078125 43.5 6 
Q 45.609375 8.5 46.390625 12.40625 
Q 47.125 16.3125 47.125 25.296875 
Q 47.125 34.515625 46.390625 38.375 
Q 45.609375 42.28125 43.5 44.671875 
Q 39.203125 51.078125 29.890625 51.3125 
Q 21.875 51.078125 16.796875 45.40625 
L 16.796875 45.40625 
L 16.796875 50.6875 
L 6.59375 50.6875 
z
M 26.8125 9.625 
Q 23.390625 9.625 21.390625 11.078125 
Q 19.28125 12.5 18.3125 14.796875 
Q 17.390625 17.09375 17.09375 19.921875 
Q 16.796875 22.609375 16.796875 25.296875 
Q 16.796875 28.171875 17.09375 31 
Q 17.390625 33.6875 18.3125 35.984375 
Q 19.28125 38.28125 21.390625 39.703125 
Q 23.390625 41.109375 26.8125 41.109375 
Q 30.421875 41.109375 32.515625 39.890625 
Q 34.625 38.578125 35.5 36.28125 
Q 36.46875 34.078125 36.8125 31.203125 
Q 36.921875 28.328125 36.921875 25.296875 
Q 36.921875 22.40625 36.8125 19.671875 
Q 36.46875 16.890625 35.5 14.59375 
Q 34.625 12.40625 32.515625 10.984375 
Q 30.421875 9.625 26.8125 9.625 
z
" id="DINAlternate-Bold-70"/>
       <path d="M 36.375 14.890625 
L 36.375 14.890625 
Q 32.515625 9.71875 26.078125 9.625 
Q 13.09375 9.375 12.890625 25.296875 
Q 13.09375 41.3125 26.078125 41.109375 
Q 32.515625 40.921875 36.375 35.796875 
L 36.375 35.796875 
L 43.890625 42.484375 
Q 40.578125 46.484375 36.078125 48.875 
Q 31.59375 51.21875 25.6875 51.3125 
Q 16.703125 51.421875 9.90625 45.3125 
Q 2.875 39.109375 2.6875 25.296875 
Q 2.875 11.625 9.90625 5.515625 
Q 16.703125 -0.59375 25.6875 -0.59375 
Q 31.59375 -0.484375 36.078125 2 
Q 40.578125 4.390625 43.890625 8.203125 
z
" id="DINAlternate-Bold-63"/>
       <path d="M 6.890625 0 
L 17.09375 0 
L 17.09375 50.6875 
L 6.890625 50.6875 
z
M 6.890625 60.984375 
L 17.09375 60.984375 
L 17.09375 71.1875 
L 6.890625 71.1875 
z
" id="DINAlternate-Bold-69"/>
      </defs>
      <g transform="translate(462.240206 44.566688)scale(0.11 -0.11)">
       <use xlink:href="#DINAlternate-Bold-34"/>
       <use x="47.998047" xlink:href="#DINAlternate-Bold-30"/>
       <use x="95.996094" xlink:href="#DINAlternate-Bold-20"/>
       <use x="119.970703" xlink:href="#DINAlternate-Bold-74"/>
       <use x="147.753906" xlink:href="#DINAlternate-Bold-6f"/>
       <use x="197.753906" xlink:href="#DINAlternate-Bold-6e"/>
       <use x="251.464844" xlink:href="#DINAlternate-Bold-73"/>
       <use x="299.462891" xlink:href="#DINAlternate-Bold-20"/>
       <use x="323.4375" xlink:href="#DINAlternate-Bold-6f"/>
       <use x="373.4375" xlink:href="#DINAlternate-Bold-66"/>
       <use x="401.220703" xlink:href="#DINAlternate-Bold-20"/>
       <use x="425.195312" xlink:href="#DINAlternate-Bold-67"/>
       <use x="477.099609" xlink:href="#DINAlternate-Bold-61"/>
       <use x="527.099609" xlink:href="#DINAlternate-Bold-72"/>
       <use x="566.015625" xlink:href="#DINAlternate-Bold-62"/>
       <use x="617.919922" xlink:href="#DINAlternate-Bold-61"/>
       <use x="667.919922" xlink:href="#DINAlternate-Bold-67"/>
       <use x="719.824219" xlink:href="#DINAlternate-Bold-65"/>
       <use x="769.824219" xlink:href="#DINAlternate-Bold-20"/>
       <use x="793.798828" xlink:href="#DINAlternate-Bold-70"/>
       <use x="845.703125" xlink:href="#DINAlternate-Bold-65"/>
       <use x="895.703125" xlink:href="#DINAlternate-Bold-72"/>
       <use x="934.619141" xlink:href="#DINAlternate-Bold-20"/>
       <use x="958.59375" xlink:href="#DINAlternate-Bold-63"/>
       <use x="1002.978516" xlink:href="#DINAlternate-Bold-61"/>
       <use x="1052.978516" xlink:href="#DINAlternate-Bold-70"/>
       <use x="1104.882812" xlink:href="#DINAlternate-Bold-69"/>
       <use x="1128.857422" xlink:href="#DINAlternate-Bold-74"/>
       <use x="1156.640625" xlink:href="#DINAlternate-Bold-61"/>
      </g>
     </g>
    </g>
   </g>
   <g id="matplotlib.axis_2">
    <g id="ytick_1">
     <g id="text_6">
      <!-- Arkansas -->
      <defs>
       <path d="M 20.125 25.484375 
L 30.421875 56.59375 
L 30.609375 56.59375 
L 40.921875 25.484375 
z
M 49.515625 0 
L 60.890625 0 
L 35.015625 71.1875 
L 25.984375 71.1875 
L 0.09375 0 
L 11.53125 0 
L 17 15.921875 
L 44 15.921875 
z
" id="DINAlternate-Bold-41"/>
       <path d="M 6.59375 0 
L 16.796875 0 
L 16.796875 14.59375 
L 24.8125 23.6875 
L 24.8125 23.6875 
L 38.28125 0 
L 51.078125 0 
L 31.203125 30.90625 
L 48.6875 50.6875 
L 36.46875 50.6875 
L 17 26.90625 
L 16.796875 26.90625 
L 16.796875 71.1875 
L 6.59375 71.1875 
z
" id="DINAlternate-Bold-6b"/>
      </defs>
      <g transform="translate(29.564063 325.406375)scale(0.1 -0.1)">
       <use xlink:href="#DINAlternate-Bold-41"/>
       <use x="60.986328" xlink:href="#DINAlternate-Bold-72"/>
       <use x="99.902344" xlink:href="#DINAlternate-Bold-6b"/>
       <use x="151.806641" xlink:href="#DINAlternate-Bold-61"/>
       <use x="201.806641" xlink:href="#DINAlternate-Bold-6e"/>
       <use x="255.517578" xlink:href="#DINAlternate-Bold-73"/>
       <use x="303.515625" xlink:href="#DINAlternate-Bold-61"/>
       <use x="353.515625" xlink:href="#DINAlternate-Bold-73"/>
      </g>
     </g>
    </g>
    <g id="ytick_2">
     <g id="text_7">
      <!-- Montana -->
      <defs>
       <path d="M 7.515625 0 
L 18.3125 0 
L 18.3125 44.390625 
L 18.5 44.390625 
L 33.40625 10.203125 
L 42.390625 10.203125 
L 57.28125 44.390625 
L 57.515625 44.390625 
L 57.515625 0 
L 68.3125 0 
L 68.3125 71.1875 
L 58.109375 71.1875 
L 38.09375 24.8125 
L 38.09375 24.8125 
L 17.671875 71.1875 
L 7.515625 71.1875 
z
" id="DINAlternate-Bold-4d"/>
      </defs>
      <g transform="translate(33.617188 306.926375)scale(0.1 -0.1)">
       <use xlink:href="#DINAlternate-Bold-4d"/>
       <use x="75.78125" xlink:href="#DINAlternate-Bold-6f"/>
       <use x="125.78125" xlink:href="#DINAlternate-Bold-6e"/>
       <use x="179.492188" xlink:href="#DINAlternate-Bold-74"/>
       <use x="207.275391" xlink:href="#DINAlternate-Bold-61"/>
       <use x="257.275391" xlink:href="#DINAlternate-Bold-6e"/>
       <use x="310.986328" xlink:href="#DINAlternate-Bold-61"/>
      </g>
     </g>
    </g>
    <g id="ytick_3">
     <g id="text_8">
      <!-- Florida -->
      <defs>
       <path d="M 7.515625 0 
L 18.3125 0 
L 18.3125 30.421875 
L 47.90625 30.421875 
L 47.90625 39.984375 
L 18.3125 39.984375 
L 18.3125 60.984375 
L 52.984375 60.984375 
L 52.984375 71.1875 
L 7.515625 71.1875 
z
" id="DINAlternate-Bold-46"/>
       <path d="M 6.59375 12.3125 
Q 6.59375 5.609375 10.40625 2.78125 
Q 14.015625 0 19.578125 0 
L 24.125 0 
L 24.125 9.625 
L 20.609375 9.625 
Q 16.796875 9.625 16.796875 13.09375 
L 16.796875 71.1875 
L 6.59375 71.1875 
z
" id="DINAlternate-Bold-6c"/>
       <path d="M 36.921875 5.328125 
L 36.921875 0 
L 47.125 0 
L 47.125 71.1875 
L 36.921875 71.1875 
L 36.921875 45.3125 
L 36.921875 45.3125 
Q 34.078125 48 31 49.703125 
Q 27.6875 51.3125 23.78125 51.3125 
Q 14.5 51.078125 10.203125 44.671875 
Q 8.109375 42.28125 7.421875 38.375 
Q 6.59375 34.515625 6.59375 25.390625 
Q 6.59375 16.40625 7.421875 12.5 
Q 8.109375 8.40625 10.203125 6 
Q 12.5 3.078125 15.921875 1.3125 
Q 19.1875 -0.484375 23.78125 -0.59375 
Q 31.890625 -0.390625 36.921875 5.328125 
z
M 26.90625 41.109375 
Q 30.515625 41.109375 32.625 39.703125 
Q 34.71875 38.28125 35.5 35.984375 
Q 36.46875 33.6875 36.8125 31 
Q 36.921875 28.328125 36.921875 25.390625 
Q 36.921875 22.703125 36.8125 19.921875 
Q 36.46875 17.09375 35.5 14.796875 
Q 34.71875 12.5 32.625 11.078125 
Q 30.515625 9.625 26.90625 9.625 
Q 23.296875 9.625 21.390625 10.984375 
Q 19.28125 12.40625 18.3125 14.59375 
Q 17.390625 16.890625 17.09375 19.78125 
Q 16.796875 22.515625 16.796875 25.390625 
Q 16.796875 28.421875 17.09375 31.296875 
Q 17.390625 33.984375 18.3125 36.28125 
Q 19.28125 38.578125 21.390625 39.890625 
Q 23.296875 41.109375 26.90625 41.109375 
z
" id="DINAlternate-Bold-64"/>
      </defs>
      <g transform="translate(40.2875 288.446375)scale(0.1 -0.1)">
       <use xlink:href="#DINAlternate-Bold-46"/>
       <use x="53.710938" xlink:href="#DINAlternate-Bold-6c"/>
       <use x="79.492188" xlink:href="#DINAlternate-Bold-6f"/>
       <use x="129.492188" xlink:href="#DINAlternate-Bold-72"/>
       <use x="168.408203" xlink:href="#DINAlternate-Bold-69"/>
       <use x="192.382812" xlink:href="#DINAlternate-Bold-64"/>
       <use x="244.287109" xlink:href="#DINAlternate-Bold-61"/>
      </g>
     </g>
    </g>
    <g id="ytick_4">
     <g id="text_9">
      <!-- South Dakota -->
      <defs>
       <path d="M 8.40625 17.28125 
L 1.3125 9.1875 
Q 12.703125 -0.59375 28.515625 -0.59375 
Q 52.984375 -0.296875 53.515625 20.125 
Q 53.515625 27.6875 48.78125 33.40625 
Q 44 39.203125 33.984375 40.578125 
Q 28.90625 41.21875 25.984375 41.703125 
Q 20.703125 42.671875 18.3125 45.21875 
Q 15.921875 47.703125 15.921875 50.78125 
Q 16.015625 55.90625 19.484375 58.5 
Q 22.796875 60.984375 27.78125 60.984375 
Q 37.40625 60.796875 45.40625 55.515625 
L 45.40625 55.515625 
L 51.421875 64.40625 
Q 41.609375 71.484375 28.328125 71.78125 
Q 17.28125 71.6875 11.28125 66.015625 
Q 5.078125 60.296875 5.078125 50.984375 
Q 5.078125 43.21875 10.015625 37.796875 
Q 14.796875 32.515625 23.96875 31 
Q 29.109375 30.28125 33.40625 29.6875 
Q 42.78125 28.078125 42.671875 20.125 
Q 42.484375 10.40625 28.609375 10.203125 
Q 16.890625 10.296875 8.40625 17.28125 
z
" id="DINAlternate-Bold-53"/>
       <path d="M 6.59375 17 
Q 6.6875 8.40625 12.203125 4 
Q 17.28125 -0.484375 23.578125 -0.59375 
Q 31.6875 -0.59375 36.71875 5.421875 
L 36.921875 5.421875 
L 36.921875 0 
L 47.125 0 
L 47.125 50.6875 
L 36.921875 50.6875 
L 36.921875 20.515625 
Q 36.921875 15.375 34.078125 12.5 
Q 31.296875 9.625 26.90625 9.625 
Q 22.515625 9.625 19.671875 12.5 
Q 16.796875 15.375 16.796875 20.515625 
L 16.796875 50.6875 
L 6.59375 50.6875 
z
" id="DINAlternate-Bold-75"/>
       <path d="M 6.59375 0 
L 16.796875 0 
L 16.796875 30.171875 
Q 16.796875 35.5 19.671875 38.28125 
Q 22.515625 41.109375 26.90625 41.109375 
Q 31.296875 41.109375 34.078125 38.28125 
Q 36.921875 35.5 36.921875 30.171875 
L 36.921875 0 
L 47.125 0 
L 47.125 33.6875 
Q 46.875 42.390625 41.703125 46.875 
Q 36.46875 51.3125 30.171875 51.3125 
Q 22.015625 51.3125 17 45.3125 
L 16.796875 45.3125 
L 16.796875 71.1875 
L 6.59375 71.1875 
z
" id="DINAlternate-Bold-68"/>
       <path d="M 7.515625 0 
L 31.6875 0 
Q 39.703125 0 45.21875 3.515625 
Q 50.78125 6.78125 53.90625 11.8125 
Q 55.078125 13.71875 55.90625 15.484375 
Q 56.6875 17.28125 57.078125 19.578125 
Q 57.90625 24.125 57.90625 35.59375 
Q 57.90625 46.390625 57.375 50.78125 
Q 56.6875 55.171875 54.109375 59.1875 
Q 46.875 71.09375 32.421875 71.1875 
L 7.515625 71.1875 
z
M 18.3125 60.984375 
L 31.203125 60.984375 
Q 39.40625 61.1875 43.890625 54.984375 
Q 46.09375 52.484375 46.6875 48.484375 
Q 47.125 44.484375 47.125 35.203125 
Q 47.125 25.6875 46.6875 22.21875 
Q 46.1875 18.703125 44.390625 16.40625 
Q 40.28125 10.203125 31.203125 10.203125 
L 18.3125 10.203125 
z
" id="DINAlternate-Bold-44"/>
      </defs>
      <g transform="translate(13.795313 269.966375)scale(0.1 -0.1)">
       <use xlink:href="#DINAlternate-Bold-53"/>
       <use x="57.373047" xlink:href="#DINAlternate-Bold-6f"/>
       <use x="107.373047" xlink:href="#DINAlternate-Bold-75"/>
       <use x="161.083984" xlink:href="#DINAlternate-Bold-74"/>
       <use x="188.867188" xlink:href="#DINAlternate-Bold-68"/>
       <use x="242.578125" xlink:href="#DINAlternate-Bold-20"/>
       <use x="266.552734" xlink:href="#DINAlternate-Bold-44"/>
       <use x="329.541016" xlink:href="#DINAlternate-Bold-61"/>
       <use x="379.541016" xlink:href="#DINAlternate-Bold-6b"/>
       <use x="431.429688" xlink:href="#DINAlternate-Bold-6f"/>
       <use x="481.429688" xlink:href="#DINAlternate-Bold-74"/>
       <use x="509.212891" xlink:href="#DINAlternate-Bold-61"/>
      </g>
     </g>
    </g>
    <g id="ytick_5">
     <g id="text_10">
      <!-- New Jersey -->
      <defs>
       <path d="M 7.515625 0 
L 18.3125 0 
L 18.3125 50.59375 
L 18.5 50.59375 
L 50.6875 0 
L 60.890625 0 
L 60.890625 71.1875 
L 50.09375 71.1875 
L 50.09375 20.609375 
L 49.90625 20.609375 
L 17.671875 71.1875 
L 7.515625 71.1875 
z
" id="DINAlternate-Bold-4e"/>
       <path d="M 46.78125 0 
L 55.8125 0 
L 71.96875 50.6875 
L 61.1875 50.6875 
L 51.515625 15.1875 
L 51.3125 15.1875 
L 39.796875 50.6875 
L 32.421875 50.6875 
L 20.90625 15.1875 
L 20.703125 15.1875 
L 10.984375 50.6875 
L 0.203125 50.6875 
L 16.40625 0 
L 25.390625 0 
L 35.984375 35.5 
L 36.1875 35.5 
z
" id="DINAlternate-Bold-77"/>
       <path d="M 8.796875 14.984375 
L 0.09375 8.6875 
Q 6.203125 -0.296875 18.609375 -0.59375 
Q 27.59375 -0.484375 34.375 5.515625 
Q 41.21875 11.375 41.40625 22.125 
L 41.40625 71.1875 
L 30.609375 71.1875 
L 30.609375 23.1875 
Q 30.609375 19.578125 29.5 17.1875 
Q 28.421875 14.703125 26.515625 13.1875 
Q 22.609375 10.109375 18.3125 10.203125 
Q 15.09375 10.203125 12.703125 11.71875 
Q 10.296875 12.984375 8.796875 14.984375 
z
" id="DINAlternate-Bold-4a"/>
       <path d="M 17.484375 2 
L 14.703125 -6.5 
Q 14.015625 -8.6875 12.3125 -9.8125 
Q 10.59375 -10.890625 8.59375 -10.890625 
L 5.609375 -10.890625 
L 5.609375 -20.515625 
L 8.984375 -20.515625 
Q 13.71875 -20.515625 17.484375 -18.40625 
Q 21.1875 -16.21875 23.296875 -10.5 
L 45.125 50.6875 
L 34.28125 50.6875 
L 22.3125 15.1875 
L 22.125 15.1875 
L 10.109375 50.6875 
L -0.6875 50.6875 
z
" id="DINAlternate-Bold-79"/>
      </defs>
      <g transform="translate(20.317188 251.486375)scale(0.1 -0.1)">
       <use xlink:href="#DINAlternate-Bold-4e"/>
       <use x="68.408203" xlink:href="#DINAlternate-Bold-65"/>
       <use x="118.408203" xlink:href="#DINAlternate-Bold-77"/>
       <use x="190.625" xlink:href="#DINAlternate-Bold-20"/>
       <use x="214.599609" xlink:href="#DINAlternate-Bold-4a"/>
       <use x="262.695312" xlink:href="#DINAlternate-Bold-65"/>
       <use x="312.695312" xlink:href="#DINAlternate-Bold-72"/>
       <use x="351.611328" xlink:href="#DINAlternate-Bold-73"/>
       <use x="399.609375" xlink:href="#DINAlternate-Bold-65"/>
       <use x="449.609375" xlink:href="#DINAlternate-Bold-79"/>
      </g>
     </g>
    </g>
    <g id="ytick_6">
     <g id="text_11">
      <!-- Maine -->
      <g transform="translate(44.370313 233.006375)scale(0.1 -0.1)">
       <use xlink:href="#DINAlternate-Bold-4d"/>
       <use x="75.78125" xlink:href="#DINAlternate-Bold-61"/>
       <use x="125.78125" xlink:href="#DINAlternate-Bold-69"/>
       <use x="149.755859" xlink:href="#DINAlternate-Bold-6e"/>
       <use x="203.466797" xlink:href="#DINAlternate-Bold-65"/>
      </g>
     </g>
    </g>
    <g id="ytick_7">
     <g id="text_12">
      <!-- New York -->
      <defs>
       <path d="M 19.921875 0 
L 30.078125 0 
L 30.078125 29.296875 
L 51.515625 71.1875 
L 40.09375 71.1875 
L 25 39.59375 
L 25 39.59375 
L 9.90625 71.1875 
L -1.515625 71.1875 
L 19.921875 29.296875 
z
" id="DINAlternate-Bold-59"/>
      </defs>
      <g transform="translate(29.1875 214.526375)scale(0.1 -0.1)">
       <use xlink:href="#DINAlternate-Bold-4e"/>
       <use x="68.408203" xlink:href="#DINAlternate-Bold-65"/>
       <use x="118.408203" xlink:href="#DINAlternate-Bold-77"/>
       <use x="190.625" xlink:href="#DINAlternate-Bold-20"/>
       <use x="214.599609" xlink:href="#DINAlternate-Bold-59"/>
       <use x="264.474609" xlink:href="#DINAlternate-Bold-6f"/>
       <use x="314.474609" xlink:href="#DINAlternate-Bold-72"/>
       <use x="353.390625" xlink:href="#DINAlternate-Bold-6b"/>
      </g>
     </g>
    </g>
    <g id="ytick_8">
     <g id="text_13">
      <!-- North Dakota -->
      <g transform="translate(14.171875 196.046375)scale(0.1 -0.1)">
       <use xlink:href="#DINAlternate-Bold-4e"/>
       <use x="68.408203" xlink:href="#DINAlternate-Bold-6f"/>
       <use x="118.408203" xlink:href="#DINAlternate-Bold-72"/>
       <use x="157.324219" xlink:href="#DINAlternate-Bold-74"/>
       <use x="185.107422" xlink:href="#DINAlternate-Bold-68"/>
       <use x="238.818359" xlink:href="#DINAlternate-Bold-20"/>
       <use x="262.792969" xlink:href="#DINAlternate-Bold-44"/>
       <use x="325.78125" xlink:href="#DINAlternate-Bold-61"/>
       <use x="375.78125" xlink:href="#DINAlternate-Bold-6b"/>
       <use x="427.669922" xlink:href="#DINAlternate-Bold-6f"/>
       <use x="477.669922" xlink:href="#DINAlternate-Bold-74"/>
       <use x="505.453125" xlink:href="#DINAlternate-Bold-61"/>
      </g>
     </g>
    </g>
    <g id="ytick_9">
     <g id="text_14">
      <!-- Vermont -->
      <defs>
       <path d="M 23.578125 0 
L 31.984375 0 
L 55.515625 71.1875 
L 44.09375 71.1875 
L 27.875 17 
L 27.6875 17 
L 11.53125 71.1875 
L 0.09375 71.1875 
z
" id="DINAlternate-Bold-56"/>
       <path d="M 7.171875 0 
L 17.390625 0 
L 17.390625 30.171875 
Q 17.390625 35.5 20.3125 38.28125 
Q 23.09375 41.109375 27.484375 41.109375 
Q 31.890625 41.109375 34.71875 38.28125 
Q 37.5 35.5 37.5 30.171875 
L 37.5 0 
L 47.703125 0 
L 47.703125 30.171875 
Q 47.703125 35.5 50.59375 38.28125 
Q 53.421875 41.109375 57.8125 41.109375 
Q 62.203125 41.109375 64.984375 38.28125 
Q 67.78125 35.5 67.78125 30.171875 
L 67.78125 0 
L 77.984375 0 
L 77.984375 33.6875 
Q 77.78125 42.390625 72.609375 46.875 
Q 67.390625 51.3125 61.078125 51.3125 
Q 51.078125 51.421875 45.125 44.671875 
L 45.125 44.671875 
Q 42.484375 47.609375 39.3125 49.515625 
Q 36.078125 51.21875 30.8125 51.3125 
Q 22.609375 51.3125 17.578125 45.3125 
L 17.390625 45.3125 
L 17.390625 50.6875 
L 7.171875 50.6875 
z
" id="DINAlternate-Bold-6d"/>
      </defs>
      <g transform="translate(33.601563 177.566375)scale(0.1 -0.1)">
       <use xlink:href="#DINAlternate-Bold-56"/>
       <use x="55.537109" xlink:href="#DINAlternate-Bold-65"/>
       <use x="105.537109" xlink:href="#DINAlternate-Bold-72"/>
       <use x="144.453125" xlink:href="#DINAlternate-Bold-6d"/>
       <use x="229.658203" xlink:href="#DINAlternate-Bold-6f"/>
       <use x="279.658203" xlink:href="#DINAlternate-Bold-6e"/>
       <use x="333.369141" xlink:href="#DINAlternate-Bold-74"/>
      </g>
     </g>
    </g>
    <g id="ytick_10">
     <g id="text_15">
      <!-- Idaho -->
      <defs>
       <path d="M 7.515625 0 
L 18.3125 0 
L 18.3125 71.1875 
L 7.515625 71.1875 
z
" id="DINAlternate-Bold-49"/>
      </defs>
      <g transform="translate(46.576563 159.086375)scale(0.1 -0.1)">
       <use xlink:href="#DINAlternate-Bold-49"/>
       <use x="25.78125" xlink:href="#DINAlternate-Bold-64"/>
       <use x="77.685547" xlink:href="#DINAlternate-Bold-61"/>
       <use x="127.685547" xlink:href="#DINAlternate-Bold-68"/>
       <use x="181.396484" xlink:href="#DINAlternate-Bold-6f"/>
      </g>
     </g>
    </g>
    <g id="ytick_11">
     <g id="text_16">
      <!-- Maryland -->
      <g transform="translate(30.667188 140.606375)scale(0.1 -0.1)">
       <use xlink:href="#DINAlternate-Bold-4d"/>
       <use x="75.78125" xlink:href="#DINAlternate-Bold-61"/>
       <use x="125.78125" xlink:href="#DINAlternate-Bold-72"/>
       <use x="164.697266" xlink:href="#DINAlternate-Bold-79"/>
       <use x="209.082031" xlink:href="#DINAlternate-Bold-6c"/>
       <use x="234.863281" xlink:href="#DINAlternate-Bold-61"/>
       <use x="284.863281" xlink:href="#DINAlternate-Bold-6e"/>
       <use x="338.574219" xlink:href="#DINAlternate-Bold-64"/>
      </g>
     </g>
    </g>
    <g id="ytick_12">
     <g id="text_17">
      <!-- Wyoming -->
      <defs>
       <path d="M 18.890625 0 
L 27.875 0 
L 41.5 51.3125 
L 41.703125 51.3125 
L 55.28125 0 
L 64.3125 0 
L 82.078125 71.1875 
L 70.703125 71.1875 
L 59.46875 20.609375 
L 59.28125 20.609375 
L 45.515625 71.1875 
L 37.703125 71.1875 
L 23.875 20.609375 
L 23.6875 20.609375 
L 12.5 71.1875 
L 1.125 71.1875 
z
" id="DINAlternate-Bold-57"/>
      </defs>
      <g transform="translate(30.478125 122.126375)scale(0.1 -0.1)">
       <use xlink:href="#DINAlternate-Bold-57"/>
       <use x="83.203125" xlink:href="#DINAlternate-Bold-79"/>
       <use x="127.587891" xlink:href="#DINAlternate-Bold-6f"/>
       <use x="177.587891" xlink:href="#DINAlternate-Bold-6d"/>
       <use x="262.792969" xlink:href="#DINAlternate-Bold-69"/>
       <use x="286.767578" xlink:href="#DINAlternate-Bold-6e"/>
       <use x="340.478516" xlink:href="#DINAlternate-Bold-67"/>
      </g>
     </g>
    </g>
    <g id="ytick_13">
     <g id="text_18">
      <!-- Minnesota -->
      <g transform="translate(26.420313 103.646375)scale(0.1 -0.1)">
       <use xlink:href="#DINAlternate-Bold-4d"/>
       <use x="75.78125" xlink:href="#DINAlternate-Bold-69"/>
       <use x="99.755859" xlink:href="#DINAlternate-Bold-6e"/>
       <use x="153.466797" xlink:href="#DINAlternate-Bold-6e"/>
       <use x="207.177734" xlink:href="#DINAlternate-Bold-65"/>
       <use x="257.177734" xlink:href="#DINAlternate-Bold-73"/>
       <use x="305.175781" xlink:href="#DINAlternate-Bold-6f"/>
       <use x="355.175781" xlink:href="#DINAlternate-Bold-74"/>
       <use x="382.958984" xlink:href="#DINAlternate-Bold-61"/>
      </g>
     </g>
    </g>
    <g id="ytick_14">
     <g id="text_19">
      <!-- Massachusetts -->
      <g transform="translate(7.2 85.166375)scale(0.1 -0.1)">
       <use xlink:href="#DINAlternate-Bold-4d"/>
       <use x="75.78125" xlink:href="#DINAlternate-Bold-61"/>
       <use x="125.78125" xlink:href="#DINAlternate-Bold-73"/>
       <use x="173.779297" xlink:href="#DINAlternate-Bold-73"/>
       <use x="221.777344" xlink:href="#DINAlternate-Bold-61"/>
       <use x="271.777344" xlink:href="#DINAlternate-Bold-63"/>
       <use x="316.162109" xlink:href="#DINAlternate-Bold-68"/>
       <use x="369.873047" xlink:href="#DINAlternate-Bold-75"/>
       <use x="423.583984" xlink:href="#DINAlternate-Bold-73"/>
       <use x="471.582031" xlink:href="#DINAlternate-Bold-65"/>
       <use x="521.582031" xlink:href="#DINAlternate-Bold-74"/>
       <use x="549.365234" xlink:href="#DINAlternate-Bold-74"/>
       <use x="577.148438" xlink:href="#DINAlternate-Bold-73"/>
      </g>
     </g>
    </g>
    <g id="ytick_15">
     <g id="text_20">
      <!-- Connecticut -->
      <defs>
       <path d="M 44.09375 19.921875 
Q 39.59375 10.203125 30.515625 10.203125 
Q 26.703125 10.203125 23.96875 11.8125 
Q 21.1875 13.1875 19.484375 15.375 
Q 17.390625 17.671875 16.703125 21.390625 
Q 15.921875 25.09375 15.921875 35.59375 
Q 15.921875 46.09375 16.703125 49.90625 
Q 17.390625 53.515625 19.484375 55.8125 
Q 21.1875 58.015625 23.96875 59.46875 
Q 26.703125 60.890625 30.515625 60.984375 
Q 35.6875 60.890625 39.3125 58.015625 
Q 42.78125 54.984375 44.09375 50.6875 
L 55.515625 50.6875 
Q 53.8125 59.625 47.3125 65.671875 
Q 40.828125 71.6875 30.515625 71.78125 
Q 22.125 71.6875 16.5 67.78125 
Q 10.796875 63.921875 8.203125 58.984375 
Q 6.59375 56.390625 5.8125 52.203125 
Q 5.078125 48 5.078125 35.59375 
Q 5.078125 23.390625 5.8125 19.09375 
Q 6.203125 16.796875 6.78125 15.28125 
Q 7.421875 13.8125 8.203125 12.203125 
Q 10.796875 7.28125 16.5 3.515625 
Q 22.125 -0.390625 30.515625 -0.59375 
Q 39.796875 -0.59375 46.578125 4.6875 
Q 53.171875 10.015625 55.515625 19.921875 
z
" id="DINAlternate-Bold-43"/>
      </defs>
      <g transform="translate(21.209375 66.686375)scale(0.1 -0.1)">
       <use xlink:href="#DINAlternate-Bold-43"/>
       <use x="55.615234" xlink:href="#DINAlternate-Bold-6f"/>
       <use x="105.615234" xlink:href="#DINAlternate-Bold-6e"/>
       <use x="159.326172" xlink:href="#DINAlternate-Bold-6e"/>
       <use x="213.037109" xlink:href="#DINAlternate-Bold-65"/>
       <use x="263.037109" xlink:href="#DINAlternate-Bold-63"/>
       <use x="307.421875" xlink:href="#DINAlternate-Bold-74"/>
       <use x="335.205078" xlink:href="#DINAlternate-Bold-69"/>
       <use x="359.179688" xlink:href="#DINAlternate-Bold-63"/>
       <use x="403.564453" xlink:href="#DINAlternate-Bold-75"/>
       <use x="457.275391" xlink:href="#DINAlternate-Bold-74"/>
      </g>
     </g>
    </g>
   </g>
   <g id="patch_3">
    <path clip-path="url(#p6574e8f9c2)" d="M 76.717188 326.467 
L 608.145759 326.467 
L 608.145759 317.227 
L 76.717188 317.227 
z
" style="fill:#006699;"/>
   </g>
   <g id="patch_4">
    <path clip-path="url(#p6574e8f9c2)" d="M 76.717188 307.987 
L 601.362428 307.987 
L 601.362428 298.747 
L 76.717188 298.747 
z
" style="fill:#006699;"/>
   </g>
   <g id="patch_5">
    <path clip-path="url(#p6574e8f9c2)" d="M 76.717188 289.507 
L 599.444827 289.507 
L 599.444827 280.267 
L 76.717188 280.267 
z
" style="fill:#006699;"/>
   </g>
   <g id="patch_6">
    <path clip-path="url(#p6574e8f9c2)" d="M 76.717188 271.027 
L 558.744686 271.027 
L 558.744686 261.787 
L 76.717188 261.787 
z
" style="fill:#006699;"/>
   </g>
   <g id="patch_7">
    <path clip-path="url(#p6574e8f9c2)" d="M 76.717188 252.547 
L 533.957294 252.547 
L 533.957294 243.307 
L 76.717188 243.307 
z
" style="fill:#006699;"/>
   </g>
   <g id="patch_8">
    <path clip-path="url(#p6574e8f9c2)" d="M 76.717188 234.067 
L 531.234405 234.067 
L 531.234405 224.827 
L 76.717188 224.827 
z
" style="fill:#006699;"/>
   </g>
   <g id="patch_9">
    <path clip-path="url(#p6574e8f9c2)" d="M 76.717188 215.587 
L 529.908335 215.587 
L 529.908335 206.347 
L 76.717188 206.347 
z
" style="fill:#006699;"/>
   </g>
   <g id="patch_10">
    <path clip-path="url(#p6574e8f9c2)" d="M 76.717188 197.107 
L 516.579621 197.107 
L 516.579621 187.867 
L 76.717188 187.867 
z
" style="fill:#006699;"/>
   </g>
   <g id="patch_11">
    <path clip-path="url(#p6574e8f9c2)" d="M 76.717188 178.627 
L 510.309732 178.627 
L 510.309732 169.387 
L 76.717188 169.387 
z
" style="fill:#006699;"/>
   </g>
   <g id="patch_12">
    <path clip-path="url(#p6574e8f9c2)" d="M 76.717188 160.147 
L 489.982832 160.147 
L 489.982832 150.907 
L 76.717188 150.907 
z
" style="fill:#006699;"/>
   </g>
   <g id="patch_13">
    <path clip-path="url(#p6574e8f9c2)" d="M 76.717188 141.667 
L 481.232954 141.667 
L 481.232954 132.427 
L 76.717188 132.427 
z
" style="fill:#006699;"/>
   </g>
   <g id="patch_14">
    <path clip-path="url(#p6574e8f9c2)" d="M 76.717188 123.187 
L 442.427714 123.187 
L 442.427714 113.947 
L 76.717188 113.947 
z
" style="fill:#006699;"/>
   </g>
   <g id="patch_15">
    <path clip-path="url(#p6574e8f9c2)" d="M 76.717188 104.707 
L 442.297518 104.707 
L 442.297518 95.467 
L 76.717188 95.467 
z
" style="fill:#006699;"/>
   </g>
   <g id="patch_16">
    <path clip-path="url(#p6574e8f9c2)" d="M 76.717188 86.227 
L 412.635803 86.227 
L 412.635803 76.987 
L 76.717188 76.987 
z
" style="fill:#006699;"/>
   </g>
   <g id="patch_17">
    <path clip-path="url(#p6574e8f9c2)" d="M 76.717188 67.747 
L 264.116681 67.747 
L 264.116681 58.507 
L 76.717188 58.507 
z
" style="fill:#423316;"/>
   </g>
   <g id="patch_18">
    <path d="M 76.717188 331.087 
L 76.717188 53.887 
" style="fill:none;stroke:#000000;stroke-linecap:square;stroke-linejoin:miter;stroke-width:0.8;"/>
   </g>
   <g id="text_21">
    <!-- Connecticut Is the Least Garbage State -->
    <defs>
     <path d="M 7.515625 0 
L 52.984375 0 
L 52.984375 10.203125 
L 18.3125 10.203125 
L 18.3125 71.1875 
L 7.515625 71.1875 
z
" id="DINAlternate-Bold-4c"/>
     <path d="M 30.609375 29 
L 45.125 29 
L 45.125 25.296875 
Q 45.015625 18.609375 40.921875 14.5 
Q 36.8125 10.203125 30.515625 10.203125 
Q 26.703125 10.203125 23.96875 11.8125 
Q 21.1875 13.1875 19.484375 15.375 
Q 17.390625 17.671875 16.703125 21.390625 
Q 15.921875 25.09375 15.921875 35.59375 
Q 15.921875 46.09375 16.703125 49.90625 
Q 17.390625 53.515625 19.484375 55.8125 
Q 21.1875 58.015625 23.96875 59.46875 
Q 26.703125 60.890625 30.515625 60.984375 
Q 35.6875 60.890625 39.3125 58.015625 
Q 42.78125 54.984375 44.09375 50.6875 
L 55.515625 50.6875 
Q 53.8125 59.625 47.3125 65.671875 
Q 40.828125 71.6875 30.515625 71.78125 
Q 22.125 71.6875 16.5 67.78125 
Q 10.796875 63.921875 8.203125 58.984375 
Q 6.59375 56.390625 5.8125 52.203125 
Q 5.078125 48 5.078125 35.59375 
Q 5.078125 23.390625 5.8125 19.09375 
Q 6.203125 16.796875 6.78125 15.28125 
Q 7.421875 13.8125 8.203125 12.203125 
Q 10.796875 7.28125 16.5 3.515625 
Q 22.125 -0.390625 30.515625 -0.59375 
Q 41.40625 -0.390625 48.578125 6.78125 
Q 55.71875 14.015625 55.90625 24.703125 
L 55.90625 39.203125 
L 30.609375 39.203125 
z
" id="DINAlternate-Bold-47"/>
    </defs>
    <g transform="translate(239.923188 17.5365)scale(0.144 -0.144)">
     <use xlink:href="#DINAlternate-Bold-43"/>
     <use x="55.615234" xlink:href="#DINAlternate-Bold-6f"/>
     <use x="105.615234" xlink:href="#DINAlternate-Bold-6e"/>
     <use x="159.326172" xlink:href="#DINAlternate-Bold-6e"/>
     <use x="213.037109" xlink:href="#DINAlternate-Bold-65"/>
     <use x="263.037109" xlink:href="#DINAlternate-Bold-63"/>
     <use x="307.421875" xlink:href="#DINAlternate-Bold-74"/>
     <use x="335.205078" xlink:href="#DINAlternate-Bold-69"/>
     <use x="359.179688" xlink:href="#DINAlternate-Bold-63"/>
     <use x="403.564453" xlink:href="#DINAlternate-Bold-75"/>
     <use x="457.275391" xlink:href="#DINAlternate-Bold-74"/>
     <use x="485.058594" xlink:href="#DINAlternate-Bold-20"/>
     <use x="509.033203" xlink:href="#DINAlternate-Bold-49"/>
     <use x="534.814453" xlink:href="#DINAlternate-Bold-73"/>
     <use x="582.8125" xlink:href="#DINAlternate-Bold-20"/>
     <use x="606.787109" xlink:href="#DINAlternate-Bold-74"/>
     <use x="634.570312" xlink:href="#DINAlternate-Bold-68"/>
     <use x="688.28125" xlink:href="#DINAlternate-Bold-65"/>
     <use x="738.28125" xlink:href="#DINAlternate-Bold-20"/>
     <use x="762.255859" xlink:href="#DINAlternate-Bold-4c"/>
     <use x="817.871094" xlink:href="#DINAlternate-Bold-65"/>
     <use x="867.871094" xlink:href="#DINAlternate-Bold-61"/>
     <use x="917.871094" xlink:href="#DINAlternate-Bold-73"/>
     <use x="965.869141" xlink:href="#DINAlternate-Bold-74"/>
     <use x="993.652344" xlink:href="#DINAlternate-Bold-20"/>
     <use x="1017.626953" xlink:href="#DINAlternate-Bold-47"/>
     <use x="1078.613281" xlink:href="#DINAlternate-Bold-61"/>
     <use x="1128.613281" xlink:href="#DINAlternate-Bold-72"/>
     <use x="1167.529297" xlink:href="#DINAlternate-Bold-62"/>
     <use x="1219.433594" xlink:href="#DINAlternate-Bold-61"/>
     <use x="1269.433594" xlink:href="#DINAlternate-Bold-67"/>
     <use x="1321.337891" xlink:href="#DINAlternate-Bold-65"/>
     <use x="1371.337891" xlink:href="#DINAlternate-Bold-20"/>
     <use x="1395.3125" xlink:href="#DINAlternate-Bold-53"/>
     <use x="1452.685547" xlink:href="#DINAlternate-Bold-74"/>
     <use x="1480.46875" xlink:href="#DINAlternate-Bold-61"/>
     <use x="1530.46875" xlink:href="#DINAlternate-Bold-74"/>
     <use x="1558.251953" xlink:href="#DINAlternate-Bold-65"/>
    </g>
   </g>
  </g>
 </g>
 <defs>
  <clipPath id="p6574e8f9c2">
   <rect height="277.2" width="558" x="76.717188" y="53.887"/>
  </clipPath>
 </defs>
</svg>
