<?xml version="1.0" encoding="utf-8" standalone="no"?>
<!DOCTYPE svg PUBLIC "-//W3C//DTD SVG 1.1//EN"
  "http://www.w3.org/Graphics/SVG/1.1/DTD/svg11.dtd">
<!-- Created with matplotlib (http://matplotlib.org/) -->
<svg height="322.021313pt" version="1.1" viewBox="0 0 597.3 322.021313" width="597.3pt" xmlns="http://www.w3.org/2000/svg" xmlns:xlink="http://www.w3.org/1999/xlink">
 <defs>
  <style type="text/css">
*{stroke-linecap:butt;stroke-linejoin:round;}
  </style>
 </defs>
 <g id="figure_1">
  <g id="patch_1">
   <path d="M 0 322.021313 
L 597.3 322.021313 
L 597.3 -0 
L 0 -0 
z
" style="fill:#f5f5f5;"/>
  </g>
  <g id="axes_1">
   <g id="patch_2">
    <path d="M 28.6 298.651 
L 586.6 298.651 
L 586.6 21.451 
L 28.6 21.451 
z
" style="fill:none;"/>
   </g>
   <g id="matplotlib.axis_1">
    <g id="xtick_1">
     <g id="text_1">
      <!-- 1895 -->
      <defs>
       <path d="M 19.390625 60.40625 
L 19.390625 0 
L 29.59375 0 
L 29.59375 71.1875 
L 19.390625 71.1875 
L 9.28125 63.8125 
L 9.28125 52.984375 
L 9.28125 52.984375 
L 19.390625 60.40625 
z
" id="DINAlternate-Bold-31"/>
       <path d="M 13.8125 51.421875 
Q 13.921875 56.5 17 59.078125 
Q 20.015625 61.578125 23.96875 61.578125 
Q 28.078125 61.578125 31.109375 59.078125 
Q 34.078125 56.5 34.1875 51.421875 
Q 34.078125 46.484375 31.109375 43.890625 
Q 28.078125 41.21875 23.96875 41.21875 
Q 20.015625 41.21875 17 43.890625 
Q 13.921875 46.484375 13.8125 51.421875 
z
M 2.296875 20.796875 
Q 2.390625 11.1875 8.796875 5.421875 
Q 14.890625 -0.484375 23.96875 -0.59375 
Q 33.109375 -0.484375 39.40625 5.421875 
Q 45.609375 11.1875 45.703125 20.796875 
Q 45.609375 31.109375 37.3125 36.8125 
Q 40.484375 39.59375 42.484375 43.21875 
Q 44.390625 46.578125 44.390625 51.21875 
Q 44.28125 60.109375 38.578125 65.921875 
Q 32.90625 71.6875 23.96875 71.78125 
Q 15.1875 71.6875 9.625 65.921875 
Q 3.71875 60.109375 3.609375 51.21875 
Q 3.609375 46.578125 5.71875 43.21875 
Q 7.515625 39.59375 10.6875 36.8125 
Q 2.390625 31.109375 2.296875 20.796875 
z
M 12.5 20.90625 
Q 12.59375 25.875 16.015625 29 
Q 19.28125 32.078125 23.96875 32.171875 
Q 28.8125 32.078125 32.078125 29 
Q 35.40625 25.875 35.5 20.90625 
Q 35.40625 16.015625 32.078125 12.890625 
Q 28.8125 9.625 23.96875 9.625 
Q 19.28125 9.625 16.015625 12.890625 
Q 12.59375 16.015625 12.5 20.90625 
z
" id="DINAlternate-Bold-38"/>
       <path d="M 3.8125 44.78125 
Q 3.71875 34.515625 8.59375 29.78125 
Q 13.484375 24.90625 20.40625 25 
Q 26.703125 24.90625 33.984375 27.203125 
L 33.984375 27.203125 
L 33.984375 20.515625 
Q 33.6875 9.71875 23.96875 9.625 
Q 17.09375 9.625 14.703125 15.578125 
L 4.203125 15.578125 
Q 5.8125 7.8125 11.375 3.71875 
Q 16.890625 -0.484375 23.96875 -0.59375 
Q 32.28125 -0.484375 38.09375 4.78125 
Q 44 10.109375 44.1875 19.921875 
L 44.1875 51.3125 
Q 44 61.1875 38.09375 66.5 
Q 32.28125 71.78125 23.96875 71.78125 
Q 15.921875 71.78125 10.109375 66.5 
Q 3.90625 61.1875 3.8125 51.3125 
z
M 14.015625 50.6875 
Q 14.203125 61.375 23.96875 61.578125 
Q 33.6875 61.375 33.984375 50.6875 
L 33.984375 44.875 
Q 33.6875 34.078125 23.96875 33.984375 
Q 14.203125 34.078125 14.015625 44.875 
z
" id="DINAlternate-Bold-39"/>
       <path d="M 4.984375 32.71875 
L 14.59375 32.71875 
Q 16.40625 35.984375 18.703125 37.3125 
Q 21 38.578125 23.78125 38.578125 
Q 26.90625 38.578125 29 37.703125 
Q 31.109375 36.625 32.171875 34.8125 
Q 34.1875 31 34.078125 24.90625 
Q 34.078125 22.40625 33.984375 19.78125 
Q 33.796875 17.09375 32.90625 14.796875 
Q 32.078125 12.5 29.984375 11.078125 
Q 27.78125 9.625 24.125 9.625 
Q 15.578125 9.71875 13.921875 17.921875 
L 3.71875 17.921875 
Q 5.171875 8.109375 11.28125 3.71875 
Q 17.28125 -0.59375 24.515625 -0.59375 
Q 29.890625 -0.484375 33.796875 1.90625 
Q 37.796875 4.203125 39.890625 6.984375 
Q 42.28125 9.8125 43.3125 13.484375 
Q 44.28125 17.1875 44.28125 24.125 
Q 44.28125 28.609375 44 31.6875 
Q 43.703125 34.71875 43.015625 36.8125 
Q 41.703125 40.671875 38.71875 43.609375 
Q 36.71875 45.796875 33.5 47.3125 
Q 30.078125 48.6875 25.984375 48.78125 
Q 19.578125 48.78125 14.59375 44.875 
L 14.59375 44.875 
L 14.59375 60.984375 
L 42.921875 60.984375 
L 42.921875 71.1875 
L 4.984375 71.1875 
z
" id="DINAlternate-Bold-35"/>
      </defs>
      <g transform="translate(22.685315 312.76975)scale(0.1 -0.1)">
       <use xlink:href="#DINAlternate-Bold-31"/>
       <use x="47.998047" xlink:href="#DINAlternate-Bold-38"/>
       <use x="95.996094" xlink:href="#DINAlternate-Bold-39"/>
       <use x="143.994141" xlink:href="#DINAlternate-Bold-35"/>
      </g>
     </g>
    </g>
    <g id="xtick_2">
     <g id="text_2">
      <!-- 1920 -->
      <defs>
       <path d="M 3.21875 0 
L 43.796875 0 
L 43.796875 10.203125 
L 16.609375 10.203125 
L 39.5 38.921875 
Q 43.796875 44.390625 43.796875 51.421875 
Q 43.703125 60.203125 37.890625 65.921875 
Q 32.171875 71.6875 23 71.78125 
Q 14.796875 71.6875 9.1875 66.015625 
Q 3.609375 60.203125 3.21875 51.3125 
L 13.375 51.3125 
Q 13.921875 56.203125 16.796875 58.890625 
Q 19.578125 61.578125 23.78125 61.578125 
Q 28.515625 61.46875 31.109375 58.5 
Q 33.59375 55.515625 33.59375 51.515625 
Q 33.59375 50 33.203125 48.296875 
Q 32.625 46.484375 31 44.390625 
L 3.21875 9.625 
z
" id="DINAlternate-Bold-32"/>
       <path d="M 33.984375 20.515625 
Q 33.6875 9.71875 23.96875 9.625 
Q 14.203125 9.71875 14.015625 20.515625 
L 14.015625 50.6875 
Q 14.203125 61.375 23.96875 61.578125 
Q 33.6875 61.375 33.984375 50.6875 
z
M 3.8125 19.921875 
Q 3.90625 10.109375 10.109375 4.78125 
Q 15.921875 -0.484375 23.96875 -0.59375 
Q 32.28125 -0.484375 38.09375 4.78125 
Q 44 10.109375 44.1875 19.921875 
L 44.1875 51.3125 
Q 44 61.1875 38.09375 66.5 
Q 32.28125 71.78125 23.96875 71.78125 
Q 15.921875 71.78125 10.109375 66.5 
Q 3.90625 61.1875 3.8125 51.3125 
z
" id="DINAlternate-Bold-30"/>
      </defs>
      <g transform="translate(131.076923 312.76975)scale(0.1 -0.1)">
       <use xlink:href="#DINAlternate-Bold-31"/>
       <use x="47.998047" xlink:href="#DINAlternate-Bold-39"/>
       <use x="95.996094" xlink:href="#DINAlternate-Bold-32"/>
       <use x="143.994141" xlink:href="#DINAlternate-Bold-30"/>
      </g>
     </g>
    </g>
    <g id="xtick_3">
     <g id="text_3">
      <!-- 1945 -->
      <defs>
       <path d="M 1.21875 10.59375 
L 30.90625 10.59375 
L 30.90625 0 
L 41.109375 0 
L 41.109375 10.59375 
L 46.78125 10.59375 
L 46.78125 20.21875 
L 41.109375 20.21875 
L 41.109375 40.671875 
L 30.90625 40.671875 
L 30.90625 20.21875 
L 12.3125 20.21875 
L 36.375 71.1875 
L 25 71.1875 
L 1.21875 20.21875 
z
" id="DINAlternate-Bold-34"/>
      </defs>
      <g transform="translate(239.468531 312.76975)scale(0.1 -0.1)">
       <use xlink:href="#DINAlternate-Bold-31"/>
       <use x="47.998047" xlink:href="#DINAlternate-Bold-39"/>
       <use x="95.996094" xlink:href="#DINAlternate-Bold-34"/>
       <use x="143.994141" xlink:href="#DINAlternate-Bold-35"/>
      </g>
     </g>
    </g>
    <g id="xtick_4">
     <g id="text_4">
      <!-- 1970 -->
      <defs>
       <path d="M 5.078125 50.6875 
L 15.28125 50.6875 
L 15.28125 60.984375 
L 34.1875 60.984375 
L 10.109375 0 
L 21.484375 0 
L 45.609375 60.984375 
L 45.609375 71.1875 
L 5.078125 71.1875 
z
" id="DINAlternate-Bold-37"/>
      </defs>
      <g transform="translate(347.86014 312.76975)scale(0.1 -0.1)">
       <use xlink:href="#DINAlternate-Bold-31"/>
       <use x="47.998047" xlink:href="#DINAlternate-Bold-39"/>
       <use x="95.996094" xlink:href="#DINAlternate-Bold-37"/>
       <use x="143.994141" xlink:href="#DINAlternate-Bold-30"/>
      </g>
     </g>
    </g>
    <g id="xtick_5">
     <g id="text_5">
      <!-- 1995 -->
      <g transform="translate(456.251748 312.76975)scale(0.1 -0.1)">
       <use xlink:href="#DINAlternate-Bold-31"/>
       <use x="47.998047" xlink:href="#DINAlternate-Bold-39"/>
       <use x="95.996094" xlink:href="#DINAlternate-Bold-39"/>
       <use x="143.994141" xlink:href="#DINAlternate-Bold-35"/>
      </g>
     </g>
    </g>
    <g id="xtick_6">
     <g id="text_6">
      <!-- 2020 -->
      <g transform="translate(564.643357 312.76975)scale(0.1 -0.1)">
       <use xlink:href="#DINAlternate-Bold-32"/>
       <use x="47.998047" xlink:href="#DINAlternate-Bold-30"/>
       <use x="95.996094" xlink:href="#DINAlternate-Bold-32"/>
       <use x="143.994141" xlink:href="#DINAlternate-Bold-30"/>
      </g>
     </g>
    </g>
    <g id="xtick_7"/>
    <g id="xtick_8"/>
    <g id="xtick_9"/>
    <g id="xtick_10"/>
    <g id="xtick_11"/>
    <g id="xtick_12"/>
    <g id="xtick_13"/>
    <g id="xtick_14"/>
    <g id="xtick_15"/>
    <g id="xtick_16"/>
    <g id="xtick_17"/>
    <g id="xtick_18"/>
    <g id="xtick_19"/>
    <g id="xtick_20"/>
    <g id="xtick_21"/>
    <g id="xtick_22"/>
    <g id="xtick_23"/>
    <g id="xtick_24"/>
    <g id="xtick_25"/>
    <g id="xtick_26"/>
    <g id="xtick_27"/>
    <g id="xtick_28"/>
    <g id="xtick_29"/>
    <g id="xtick_30"/>
    <g id="xtick_31"/>
    <g id="xtick_32"/>
   </g>
   <g id="matplotlib.axis_2">
    <g id="ytick_1">
     <g id="text_7">
      <!-- 0 -->
      <g transform="translate(16.8 289.610375)scale(0.1 -0.1)">
       <use xlink:href="#DINAlternate-Bold-30"/>
      </g>
     </g>
    </g>
    <g id="ytick_2">
     <g id="text_8">
      <!-- 20 -->
      <g transform="translate(12 247.257434)scale(0.1 -0.1)">
       <use xlink:href="#DINAlternate-Bold-32"/>
       <use x="47.998047" xlink:href="#DINAlternate-Bold-30"/>
      </g>
     </g>
    </g>
    <g id="ytick_3">
     <g id="text_9">
      <!-- 40 -->
      <g transform="translate(12 204.904493)scale(0.1 -0.1)">
       <use xlink:href="#DINAlternate-Bold-34"/>
       <use x="47.998047" xlink:href="#DINAlternate-Bold-30"/>
      </g>
     </g>
    </g>
    <g id="ytick_4">
     <g id="text_10">
      <!-- 60 -->
      <defs>
       <path d="M 3.8125 19.921875 
Q 3.90625 10.109375 10.109375 4.78125 
Q 15.921875 -0.484375 23.96875 -0.59375 
Q 32.28125 -0.484375 38.09375 4.78125 
Q 44 10.109375 44.1875 19.921875 
L 44.1875 26.421875 
Q 44.28125 36.71875 39.5 41.5 
Q 34.625 46.1875 27.59375 46.1875 
Q 21.296875 46.296875 14.015625 44 
L 14.015625 44 
L 14.015625 50.6875 
Q 14.203125 61.375 23.96875 61.578125 
Q 30.90625 61.46875 33.296875 55.609375 
L 43.796875 55.609375 
Q 42.28125 63.484375 36.8125 67.671875 
Q 31.203125 71.78125 23.96875 71.78125 
Q 15.921875 71.78125 10.109375 66.5 
Q 3.90625 61.1875 3.8125 51.3125 
z
M 14.015625 26.3125 
Q 14.203125 37.015625 23.96875 37.203125 
Q 33.6875 37.015625 33.984375 26.3125 
L 33.984375 20.515625 
Q 33.6875 9.71875 23.96875 9.625 
Q 14.203125 9.71875 14.015625 20.515625 
z
" id="DINAlternate-Bold-36"/>
      </defs>
      <g transform="translate(12 162.551551)scale(0.1 -0.1)">
       <use xlink:href="#DINAlternate-Bold-36"/>
       <use x="47.998047" xlink:href="#DINAlternate-Bold-30"/>
      </g>
     </g>
    </g>
    <g id="ytick_5">
     <g id="text_11">
      <!-- 80 -->
      <g transform="translate(12 120.19861)scale(0.1 -0.1)">
       <use xlink:href="#DINAlternate-Bold-38"/>
       <use x="47.998047" xlink:href="#DINAlternate-Bold-30"/>
      </g>
     </g>
    </g>
    <g id="ytick_6">
     <g id="text_12">
      <!-- 100 -->
      <g transform="translate(7.2 77.845669)scale(0.1 -0.1)">
       <use xlink:href="#DINAlternate-Bold-31"/>
       <use x="47.998047" xlink:href="#DINAlternate-Bold-30"/>
       <use x="95.996094" xlink:href="#DINAlternate-Bold-30"/>
      </g>
     </g>
    </g>
    <g id="ytick_7">
     <g id="text_13">
      <!-- 120 -->
      <g transform="translate(7.2 35.492728)scale(0.1 -0.1)">
       <use xlink:href="#DINAlternate-Bold-31"/>
       <use x="47.998047" xlink:href="#DINAlternate-Bold-32"/>
       <use x="95.996094" xlink:href="#DINAlternate-Bold-30"/>
      </g>
     </g>
    </g>
   </g>
   <g id="line2d_1">
    <path clip-path="url(#pb5ed50351e)" d="M 53.963636 283.933353 
L 58.299301 286.051 
L 62.634965 286.051 
L 66.970629 286.051 
L 71.306294 286.051 
L 75.641958 286.051 
L 79.977622 286.051 
L 84.313287 286.051 
L 88.648951 286.051 
L 92.984615 286.051 
L 97.32028 286.051 
L 101.655944 281.815706 
L 105.991608 286.051 
L 110.327273 283.933353 
L 114.662937 286.051 
L 118.998601 286.051 
L 123.334266 286.051 
L 127.66993 286.051 
L 132.005594 286.051 
L 136.341259 286.051 
L 140.676923 283.933353 
L 145.012587 283.933353 
L 149.348252 283.933353 
L 153.683916 286.051 
L 158.01958 286.051 
L 162.355245 286.051 
L 166.690909 286.051 
L 171.026573 283.933353 
L 175.362238 283.933353 
L 179.697902 283.933353 
L 184.033566 277.580412 
L 188.369231 286.051 
L 192.704895 283.933353 
L 197.040559 286.051 
L 201.376224 283.933353 
L 205.711888 271.227471 
L 210.047552 283.933353 
L 214.383217 279.698059 
L 218.718881 281.815706 
L 223.054545 286.051 
L 227.39021 262.756882 
L 231.725874 279.698059 
L 236.061538 281.815706 
L 240.397203 281.815706 
L 244.732867 283.933353 
L 249.068531 275.462765 
L 253.404196 281.815706 
L 257.73986 281.815706 
L 262.075524 277.580412 
L 266.411189 279.698059 
L 270.746853 245.815706 
L 275.082517 273.345118 
L 279.418182 279.698059 
L 283.753846 273.345118 
L 288.08951 275.462765 
L 292.425175 252.168647 
L 296.760839 258.521588 
L 301.096503 262.756882 
L 305.432168 262.756882 
L 309.767832 269.109824 
L 314.103497 192.874529 
L 318.439161 264.874529 
L 322.774825 252.168647 
L 327.11049 230.992176 
L 331.446154 247.933353 
L 335.781818 199.227471 
L 340.117483 239.462765 
L 344.453147 226.756882 
L 348.788811 209.815706 
L 353.124476 207.698059 
L 357.46014 135.698059 
L 361.795804 144.168647 
L 366.131469 34.051 
L 370.467133 101.815706 
L 374.802797 137.815706 
L 379.138462 131.462765 
L 383.474126 120.874529 
L 387.80979 152.639235 
L 392.145455 188.639235 
L 396.481119 188.639235 
L 400.816783 161.109824 
L 405.152448 180.168647 
L 409.488112 178.051 
L 413.823776 175.933353 
L 418.159441 235.227471 
L 422.495105 205.580412 
L 426.830769 205.580412 
L 431.166434 207.698059 
L 435.502098 201.345118 
L 439.837762 224.639235 
L 444.173427 214.051 
L 448.509091 228.874529 
L 452.844755 222.521588 
L 457.18042 178.051 
L 461.516084 218.286294 
L 465.851748 250.051 
L 470.187413 252.168647 
L 474.523077 237.345118 
L 478.858741 247.933353 
L 483.194406 260.639235 
L 487.53007 266.992176 
L 491.865734 277.580412 
L 496.201399 271.227471 
L 500.537063 279.698059 
L 504.872727 269.109824 
L 509.208392 275.462765 
L 513.544056 273.345118 
L 517.87972 273.345118 
L 522.215385 281.815706 
L 526.551049 283.933353 
L 530.886713 275.462765 
L 535.222378 281.815706 
L 539.558042 286.051 
L 543.893706 283.933353 
L 548.229371 283.933353 
L 552.565035 286.051 
L 556.900699 283.933353 
L 561.236364 283.933353 
" style="fill:none;stroke:#423316;stroke-linecap:square;stroke-width:1.5;"/>
   </g>
   <g id="patch_3">
    <path d="M 28.6 298.651 
L 28.6 21.451 
" style="fill:none;stroke:#000000;stroke-linecap:square;stroke-linejoin:miter;stroke-width:0.8;"/>
   </g>
   <g id="patch_4">
    <path d="M 28.6 298.651 
L 586.6 298.651 
" style="fill:none;stroke:#000000;stroke-linecap:square;stroke-linejoin:miter;stroke-width:0.8;"/>
   </g>
   <g id="text_14">
    <!-- The Great Landfill Rush of 1972 -->
    <defs>
     <path d="M 19.578125 0 
L 30.421875 0 
L 30.421875 61.578125 
L 49.90625 61.578125 
L 49.90625 71.1875 
L 0.09375 71.1875 
L 0.09375 61.578125 
L 19.578125 61.578125 
z
" id="DINAlternate-Bold-54"/>
     <path d="M 6.59375 0 
L 16.796875 0 
L 16.796875 30.171875 
Q 16.796875 35.5 19.671875 38.28125 
Q 22.515625 41.109375 26.90625 41.109375 
Q 31.296875 41.109375 34.078125 38.28125 
Q 36.921875 35.5 36.921875 30.171875 
L 36.921875 0 
L 47.125 0 
L 47.125 33.6875 
Q 46.875 42.390625 41.703125 46.875 
Q 36.46875 51.3125 30.171875 51.3125 
Q 22.015625 51.3125 17 45.3125 
L 16.796875 45.3125 
L 16.796875 71.1875 
L 6.59375 71.1875 
z
" id="DINAlternate-Bold-68"/>
     <path d="M 45.90625 21.484375 
L 45.90625 29.890625 
Q 45.796875 39.890625 39.703125 45.609375 
Q 33.6875 51.21875 25 51.3125 
Q 21.390625 51.3125 17.671875 50 
Q 13.921875 48.6875 10.890625 45.703125 
Q 7.90625 42.78125 6 37.703125 
Q 4.109375 32.71875 4.109375 25.203125 
Q 4.109375 17.390625 6.296875 12.5 
Q 8.296875 7.421875 11.53125 4.59375 
Q 13.1875 3.21875 15.09375 2.296875 
Q 16.890625 1.21875 18.796875 0.59375 
Q 22.609375 -0.59375 26.609375 -0.59375 
Q 37.109375 -0.6875 44.875 7.625 
L 37.5 13.921875 
L 37.5 13.921875 
Q 32.625 8.984375 26.421875 8.984375 
Q 21.09375 8.984375 17.828125 12.203125 
Q 14.3125 15.375 14.3125 21.484375 
z
M 14.3125 29.890625 
Q 14.59375 35.796875 17.484375 38.8125 
Q 20.40625 41.703125 25 41.703125 
Q 29.59375 41.703125 32.515625 38.8125 
Q 35.5 35.796875 35.6875 29.890625 
z
" id="DINAlternate-Bold-65"/>
     <path id="DINAlternate-Bold-20"/>
     <path d="M 30.609375 29 
L 45.125 29 
L 45.125 25.296875 
Q 45.015625 18.609375 40.921875 14.5 
Q 36.8125 10.203125 30.515625 10.203125 
Q 26.703125 10.203125 23.96875 11.8125 
Q 21.1875 13.1875 19.484375 15.375 
Q 17.390625 17.671875 16.703125 21.390625 
Q 15.921875 25.09375 15.921875 35.59375 
Q 15.921875 46.09375 16.703125 49.90625 
Q 17.390625 53.515625 19.484375 55.8125 
Q 21.1875 58.015625 23.96875 59.46875 
Q 26.703125 60.890625 30.515625 60.984375 
Q 35.6875 60.890625 39.3125 58.015625 
Q 42.78125 54.984375 44.09375 50.6875 
L 55.515625 50.6875 
Q 53.8125 59.625 47.3125 65.671875 
Q 40.828125 71.6875 30.515625 71.78125 
Q 22.125 71.6875 16.5 67.78125 
Q 10.796875 63.921875 8.203125 58.984375 
Q 6.59375 56.390625 5.8125 52.203125 
Q 5.078125 48 5.078125 35.59375 
Q 5.078125 23.390625 5.8125 19.09375 
Q 6.203125 16.796875 6.78125 15.28125 
Q 7.421875 13.8125 8.203125 12.203125 
Q 10.796875 7.28125 16.5 3.515625 
Q 22.125 -0.390625 30.515625 -0.59375 
Q 41.40625 -0.390625 48.578125 6.78125 
Q 55.71875 14.015625 55.90625 24.703125 
L 55.90625 39.203125 
L 30.609375 39.203125 
z
" id="DINAlternate-Bold-47"/>
     <path d="M 6.59375 0 
L 16.796875 0 
L 16.796875 30.515625 
Q 16.890625 36.078125 20.015625 38.578125 
Q 22.796875 41.109375 26.703125 41.109375 
Q 30.171875 41.109375 33.40625 38.578125 
L 33.40625 38.578125 
L 40.828125 47.40625 
Q 36.28125 51.21875 30.171875 51.3125 
Q 22.015625 51.3125 17 45.3125 
L 16.796875 45.3125 
L 16.796875 50.6875 
L 6.59375 50.6875 
z
" id="DINAlternate-Bold-72"/>
     <path d="M 33.203125 0 
L 43.40625 0 
L 43.40625 34.625 
Q 43.3125 43.890625 37.59375 47.703125 
Q 31.890625 51.421875 22.3125 51.3125 
Q 10.984375 51.515625 5.171875 43.890625 
L 13.1875 37.796875 
L 13.1875 37.796875 
Q 14.5 39.984375 16.796875 40.921875 
Q 19 41.703125 22.796875 41.703125 
Q 33.296875 41.890625 33.203125 35.203125 
L 33.203125 29.890625 
L 19.09375 29.890625 
Q 10.984375 29.78125 6.78125 25.484375 
Q 2.59375 21.296875 2.59375 14.890625 
Q 2.59375 8.203125 7.421875 3.90625 
Q 12.015625 -0.484375 20.515625 -0.59375 
Q 25.6875 -0.59375 28.609375 0.6875 
Q 31.59375 1.90625 33.015625 4.5 
L 33.203125 4.5 
z
M 33.203125 17.828125 
Q 33.203125 12.109375 30.8125 10.5 
Q 28.171875 8.890625 21.78125 8.984375 
Q 16.703125 8.984375 14.5 10.984375 
Q 12.203125 12.796875 12.203125 15.375 
Q 12.109375 21.296875 21 21.484375 
L 33.203125 21.484375 
z
" id="DINAlternate-Bold-61"/>
     <path d="M 7.171875 50.6875 
L 2.09375 50.6875 
L 2.09375 42.921875 
L 7.171875 42.921875 
L 7.171875 12.5 
Q 7.171875 6.5 10.6875 3.328125 
Q 14.109375 0 19.484375 0 
L 24.8125 0 
L 24.8125 9.625 
L 21 9.625 
Q 17.28125 9.515625 17.390625 13.375 
L 17.390625 42.921875 
L 24.8125 42.921875 
L 24.8125 50.6875 
L 17.390625 50.6875 
L 17.390625 66.109375 
L 7.171875 66.109375 
z
" id="DINAlternate-Bold-74"/>
     <path d="M 7.515625 0 
L 52.984375 0 
L 52.984375 10.203125 
L 18.3125 10.203125 
L 18.3125 71.1875 
L 7.515625 71.1875 
z
" id="DINAlternate-Bold-4c"/>
     <path d="M 6.59375 0 
L 16.796875 0 
L 16.796875 30.171875 
Q 16.796875 35.5 19.671875 38.28125 
Q 22.515625 41.109375 26.90625 41.109375 
Q 31.296875 41.109375 34.078125 38.28125 
Q 36.921875 35.5 36.921875 30.171875 
L 36.921875 0 
L 47.125 0 
L 47.125 33.6875 
Q 46.875 42.390625 41.703125 46.875 
Q 36.46875 51.3125 30.171875 51.3125 
Q 22.015625 51.3125 17 45.3125 
L 16.796875 45.3125 
L 16.796875 50.6875 
L 6.59375 50.6875 
z
" id="DINAlternate-Bold-6e"/>
     <path d="M 36.921875 5.328125 
L 36.921875 0 
L 47.125 0 
L 47.125 71.1875 
L 36.921875 71.1875 
L 36.921875 45.3125 
L 36.921875 45.3125 
Q 34.078125 48 31 49.703125 
Q 27.6875 51.3125 23.78125 51.3125 
Q 14.5 51.078125 10.203125 44.671875 
Q 8.109375 42.28125 7.421875 38.375 
Q 6.59375 34.515625 6.59375 25.390625 
Q 6.59375 16.40625 7.421875 12.5 
Q 8.109375 8.40625 10.203125 6 
Q 12.5 3.078125 15.921875 1.3125 
Q 19.1875 -0.484375 23.78125 -0.59375 
Q 31.890625 -0.390625 36.921875 5.328125 
z
M 26.90625 41.109375 
Q 30.515625 41.109375 32.625 39.703125 
Q 34.71875 38.28125 35.5 35.984375 
Q 36.46875 33.6875 36.8125 31 
Q 36.921875 28.328125 36.921875 25.390625 
Q 36.921875 22.703125 36.8125 19.921875 
Q 36.46875 17.09375 35.5 14.796875 
Q 34.71875 12.5 32.625 11.078125 
Q 30.515625 9.625 26.90625 9.625 
Q 23.296875 9.625 21.390625 10.984375 
Q 19.28125 12.40625 18.3125 14.59375 
Q 17.390625 16.890625 17.09375 19.78125 
Q 16.796875 22.515625 16.796875 25.390625 
Q 16.796875 28.421875 17.09375 31.296875 
Q 17.390625 33.984375 18.3125 36.28125 
Q 19.28125 38.578125 21.390625 39.890625 
Q 23.296875 41.109375 26.90625 41.109375 
z
" id="DINAlternate-Bold-64"/>
     <path d="M 8.203125 0 
L 18.40625 0 
L 18.40625 42.921875 
L 28.609375 42.921875 
L 28.609375 50.6875 
L 18.40625 50.6875 
L 18.40625 57.375 
Q 18.21875 61.71875 22.796875 61.578125 
L 28.609375 61.578125 
L 28.609375 71.1875 
L 22.015625 71.1875 
Q 16.109375 71.1875 12.203125 68.015625 
Q 8.203125 64.59375 8.203125 57.375 
L 8.203125 50.6875 
L 3.078125 50.6875 
L 3.078125 42.921875 
L 8.203125 42.921875 
z
" id="DINAlternate-Bold-66"/>
     <path d="M 6.890625 0 
L 17.09375 0 
L 17.09375 50.6875 
L 6.890625 50.6875 
z
M 6.890625 60.984375 
L 17.09375 60.984375 
L 17.09375 71.1875 
L 6.890625 71.1875 
z
" id="DINAlternate-Bold-69"/>
     <path d="M 6.59375 12.3125 
Q 6.59375 5.609375 10.40625 2.78125 
Q 14.015625 0 19.578125 0 
L 24.125 0 
L 24.125 9.625 
L 20.609375 9.625 
Q 16.796875 9.625 16.796875 13.09375 
L 16.796875 71.1875 
L 6.59375 71.1875 
z
" id="DINAlternate-Bold-6c"/>
     <path d="M 18.3125 61.578125 
L 35.203125 61.578125 
Q 40.375 61.578125 43.109375 59.375 
Q 46.578125 56.890625 46.6875 51.3125 
Q 46.6875 46.6875 43.703125 43.5 
Q 40.671875 40.09375 34.625 39.984375 
L 18.3125 39.984375 
z
M 7.515625 0 
L 18.3125 0 
L 18.3125 30.421875 
L 32.078125 30.421875 
L 46.78125 0 
L 59.625 0 
L 43.109375 31.59375 
Q 56.6875 36.8125 56.890625 51.3125 
Q 56.59375 61.1875 49.8125 66.5 
Q 44.1875 71.1875 35.296875 71.1875 
L 7.515625 71.1875 
z
" id="DINAlternate-Bold-52"/>
     <path d="M 6.59375 17 
Q 6.6875 8.40625 12.203125 4 
Q 17.28125 -0.484375 23.578125 -0.59375 
Q 31.6875 -0.59375 36.71875 5.421875 
L 36.921875 5.421875 
L 36.921875 0 
L 47.125 0 
L 47.125 50.6875 
L 36.921875 50.6875 
L 36.921875 20.515625 
Q 36.921875 15.375 34.078125 12.5 
Q 31.296875 9.625 26.90625 9.625 
Q 22.515625 9.625 19.671875 12.5 
Q 16.796875 15.375 16.796875 20.515625 
L 16.796875 50.6875 
L 6.59375 50.6875 
z
" id="DINAlternate-Bold-75"/>
     <path d="M 8.109375 15.484375 
L 0.984375 8.5 
Q 10.890625 -0.59375 23.296875 -0.59375 
Q 32.421875 -0.484375 38.28125 3.609375 
Q 44.1875 7.625 44.28125 14.984375 
Q 44.28125 21.296875 41.015625 25.390625 
Q 37.5 29.59375 29.59375 30.171875 
L 21.1875 30.8125 
Q 17.484375 31.203125 16.015625 32.625 
Q 14.40625 33.890625 14.5 35.59375 
Q 14.5 38.28125 16.5 39.984375 
Q 18.40625 41.703125 23.1875 41.703125 
Q 27.390625 41.703125 30.609375 40.484375 
Q 33.890625 39.109375 36.8125 37.015625 
L 36.8125 37.015625 
L 43.109375 44.390625 
Q 39.40625 47.609375 34.71875 49.515625 
Q 32.28125 50.390625 29.5 50.875 
Q 26.703125 51.3125 23.1875 51.3125 
Q 15.09375 51.3125 9.8125 47.40625 
Q 4.390625 43.5 4.296875 35.6875 
Q 4.390625 29.203125 8.5 25.59375 
Q 12.5 21.875 18.890625 21.296875 
L 27.875 20.515625 
Q 30.71875 20.40625 32.421875 19.28125 
Q 34.078125 18.21875 34.078125 15.484375 
Q 34.078125 12.40625 31.296875 10.6875 
Q 28.515625 8.984375 24.125 8.984375 
Q 14.3125 8.984375 8.109375 15.484375 
z
" id="DINAlternate-Bold-73"/>
     <path d="M 4.109375 25.390625 
Q 4.109375 17.390625 5.421875 13.1875 
Q 6.78125 8.984375 9.625 5.90625 
Q 11.71875 3.515625 15.484375 1.609375 
Q 19.1875 -0.484375 25 -0.59375 
Q 31 -0.484375 34.71875 1.609375 
Q 36.71875 2.484375 37.984375 3.71875 
Q 39.40625 4.78125 40.375 5.90625 
Q 43.40625 8.984375 44.671875 13.1875 
Q 45.90625 17.390625 45.90625 25.390625 
Q 45.90625 33.40625 44.671875 37.703125 
Q 43.40625 41.890625 40.375 44.78125 
Q 38.375 47.3125 34.71875 49.3125 
Q 31 51.21875 25 51.3125 
Q 19.1875 51.21875 15.484375 49.3125 
Q 11.71875 47.3125 9.625 44.78125 
Q 6.78125 41.890625 5.421875 37.703125 
Q 4.109375 33.40625 4.109375 25.390625 
z
M 35.6875 25.296875 
Q 35.6875 20.125 35.203125 17.671875 
Q 34.71875 15.1875 33.203125 13.28125 
Q 32.078125 11.8125 29.890625 10.6875 
Q 27.78125 9.625 25 9.625 
Q 22.40625 9.625 20.21875 10.6875 
Q 18.109375 11.8125 16.796875 13.28125 
Q 15.484375 15.1875 14.890625 17.671875 
Q 14.3125 20.125 14.3125 25.390625 
Q 14.3125 30.71875 14.890625 33.203125 
Q 15.484375 35.59375 16.796875 37.40625 
Q 18.109375 39.109375 20.21875 40.09375 
Q 22.40625 41.109375 25 41.109375 
Q 27.78125 41.109375 29.890625 40.09375 
Q 32.078125 39.109375 33.203125 37.40625 
Q 34.71875 35.59375 35.203125 33.203125 
Q 35.6875 30.71875 35.6875 25.296875 
z
" id="DINAlternate-Bold-6f"/>
    </defs>
    <g transform="translate(213.85825 17.451)scale(0.144 -0.144)">
     <use xlink:href="#DINAlternate-Bold-54"/>
     <use x="49.984375" xlink:href="#DINAlternate-Bold-68"/>
     <use x="103.695312" xlink:href="#DINAlternate-Bold-65"/>
     <use x="153.695312" xlink:href="#DINAlternate-Bold-20"/>
     <use x="177.669922" xlink:href="#DINAlternate-Bold-47"/>
     <use x="238.65625" xlink:href="#DINAlternate-Bold-72"/>
     <use x="277.556641" xlink:href="#DINAlternate-Bold-65"/>
     <use x="327.556641" xlink:href="#DINAlternate-Bold-61"/>
     <use x="377.556641" xlink:href="#DINAlternate-Bold-74"/>
     <use x="405.339844" xlink:href="#DINAlternate-Bold-20"/>
     <use x="429.314453" xlink:href="#DINAlternate-Bold-4c"/>
     <use x="484.929688" xlink:href="#DINAlternate-Bold-61"/>
     <use x="534.929688" xlink:href="#DINAlternate-Bold-6e"/>
     <use x="588.640625" xlink:href="#DINAlternate-Bold-64"/>
     <use x="640.544922" xlink:href="#DINAlternate-Bold-66"/>
     <use x="668.328125" xlink:href="#DINAlternate-Bold-69"/>
     <use x="692.302734" xlink:href="#DINAlternate-Bold-6c"/>
     <use x="718.083984" xlink:href="#DINAlternate-Bold-6c"/>
     <use x="743.865234" xlink:href="#DINAlternate-Bold-20"/>
     <use x="767.839844" xlink:href="#DINAlternate-Bold-52"/>
     <use x="828.826172" xlink:href="#DINAlternate-Bold-75"/>
     <use x="882.537109" xlink:href="#DINAlternate-Bold-73"/>
     <use x="930.535156" xlink:href="#DINAlternate-Bold-68"/>
     <use x="984.246094" xlink:href="#DINAlternate-Bold-20"/>
     <use x="1008.220703" xlink:href="#DINAlternate-Bold-6f"/>
     <use x="1058.220703" xlink:href="#DINAlternate-Bold-66"/>
     <use x="1086.003906" xlink:href="#DINAlternate-Bold-20"/>
     <use x="1109.978516" xlink:href="#DINAlternate-Bold-31"/>
     <use x="1157.976562" xlink:href="#DINAlternate-Bold-39"/>
     <use x="1205.974609" xlink:href="#DINAlternate-Bold-37"/>
     <use x="1253.972656" xlink:href="#DINAlternate-Bold-32"/>
    </g>
   </g>
  </g>
 </g>
 <defs>
  <clipPath id="pb5ed50351e">
   <rect height="277.2" width="558" x="28.6" y="21.451"/>
  </clipPath>
 </defs>
</svg>
