<?xml version="1.0" encoding="utf-8" standalone="no"?>
<!DOCTYPE svg PUBLIC "-//W3C//DTD SVG 1.1//EN"
  "http://www.w3.org/Graphics/SVG/1.1/DTD/svg11.dtd">
<!-- Created with matplotlib (http://matplotlib.org/) -->
<svg height="341.787pt" version="1.1" viewBox="0 0 651.009375 341.787" width="651.009375pt" xmlns="http://www.w3.org/2000/svg" xmlns:xlink="http://www.w3.org/1999/xlink">
 <defs>
  <style type="text/css">
*{stroke-linecap:butt;stroke-linejoin:round;}
  </style>
 </defs>
 <g id="figure_1">
  <g id="patch_1">
   <path d="M 0 341.787 
L 651.009375 341.787 
L 651.009375 0 
L 0 0 
z
" style="fill:#f5f5f5;"/>
  </g>
  <g id="axes_1">
   <g id="patch_2">
    <path d="M 82.309375 331.087 
L 640.309375 331.087 
L 640.309375 53.887 
L 82.309375 53.887 
z
" style="fill:none;"/>
   </g>
   <g id="matplotlib.axis_1">
    <g id="xtick_1">
     <g id="line2d_1">
      <path clip-path="url(#p434432aa4e)" d="M 82.309375 331.087 
L 82.309375 53.887 
" style="fill:none;stroke:#c0c0c0;stroke-linecap:square;stroke-width:0.8;"/>
     </g>
     <g id="line2d_2">
      <defs>
       <path d="M 0 0 
L 0 -3.5 
" id="m98631e057c" style="stroke:#d3d3d3;stroke-width:0.8;"/>
      </defs>
      <g>
       <use style="fill:#d3d3d3;stroke:#d3d3d3;stroke-width:0.8;" x="82.309375" xlink:href="#m98631e057c" y="53.887"/>
      </g>
     </g>
     <g id="text_1">
      <!-- 0 -->
      <defs>
       <path d="M 33.984375 20.515625 
Q 33.6875 9.71875 23.96875 9.625 
Q 14.203125 9.71875 14.015625 20.515625 
L 14.015625 50.6875 
Q 14.203125 61.375 23.96875 61.578125 
Q 33.6875 61.375 33.984375 50.6875 
z
M 3.8125 19.921875 
Q 3.90625 10.109375 10.109375 4.78125 
Q 15.921875 -0.484375 23.96875 -0.59375 
Q 32.28125 -0.484375 38.09375 4.78125 
Q 44 10.109375 44.1875 19.921875 
L 44.1875 51.3125 
Q 44 61.1875 38.09375 66.5 
Q 32.28125 71.78125 23.96875 71.78125 
Q 15.921875 71.78125 10.109375 66.5 
Q 3.90625 61.1875 3.8125 51.3125 
z
" id="DINAlternate-Bold-30"/>
      </defs>
      <g transform="translate(79.669375 44.630281)scale(0.11 -0.11)">
       <use xlink:href="#DINAlternate-Bold-30"/>
      </g>
     </g>
    </g>
    <g id="xtick_2">
     <g id="line2d_3">
      <path clip-path="url(#p434432aa4e)" d="M 178.841429 331.087 
L 178.841429 53.887 
" style="fill:none;stroke:#c0c0c0;stroke-linecap:square;stroke-width:0.8;"/>
     </g>
     <g id="line2d_4">
      <g>
       <use style="fill:#d3d3d3;stroke:#d3d3d3;stroke-width:0.8;" x="178.841429" xlink:href="#m98631e057c" y="53.887"/>
      </g>
     </g>
     <g id="text_2">
      <!-- 10 -->
      <defs>
       <path d="M 19.390625 60.40625 
L 19.390625 0 
L 29.59375 0 
L 29.59375 71.1875 
L 19.390625 71.1875 
L 9.28125 63.8125 
L 9.28125 52.984375 
L 9.28125 52.984375 
L 19.390625 60.40625 
z
" id="DINAlternate-Bold-31"/>
      </defs>
      <g transform="translate(173.561429 44.630281)scale(0.11 -0.11)">
       <use xlink:href="#DINAlternate-Bold-31"/>
       <use x="47.998047" xlink:href="#DINAlternate-Bold-30"/>
      </g>
     </g>
    </g>
    <g id="xtick_3">
     <g id="line2d_5">
      <path clip-path="url(#p434432aa4e)" d="M 275.373483 331.087 
L 275.373483 53.887 
" style="fill:none;stroke:#c0c0c0;stroke-linecap:square;stroke-width:0.8;"/>
     </g>
     <g id="line2d_6">
      <g>
       <use style="fill:#d3d3d3;stroke:#d3d3d3;stroke-width:0.8;" x="275.373483" xlink:href="#m98631e057c" y="53.887"/>
      </g>
     </g>
     <g id="text_3">
      <!-- 20 -->
      <defs>
       <path d="M 3.21875 0 
L 43.796875 0 
L 43.796875 10.203125 
L 16.609375 10.203125 
L 39.5 38.921875 
Q 43.796875 44.390625 43.796875 51.421875 
Q 43.703125 60.203125 37.890625 65.921875 
Q 32.171875 71.6875 23 71.78125 
Q 14.796875 71.6875 9.1875 66.015625 
Q 3.609375 60.203125 3.21875 51.3125 
L 13.375 51.3125 
Q 13.921875 56.203125 16.796875 58.890625 
Q 19.578125 61.578125 23.78125 61.578125 
Q 28.515625 61.46875 31.109375 58.5 
Q 33.59375 55.515625 33.59375 51.515625 
Q 33.59375 50 33.203125 48.296875 
Q 32.625 46.484375 31 44.390625 
L 3.21875 9.625 
z
" id="DINAlternate-Bold-32"/>
      </defs>
      <g transform="translate(270.093483 44.630281)scale(0.11 -0.11)">
       <use xlink:href="#DINAlternate-Bold-32"/>
       <use x="47.998047" xlink:href="#DINAlternate-Bold-30"/>
      </g>
     </g>
    </g>
    <g id="xtick_4">
     <g id="line2d_7">
      <path clip-path="url(#p434432aa4e)" d="M 371.905536 331.087 
L 371.905536 53.887 
" style="fill:none;stroke:#c0c0c0;stroke-linecap:square;stroke-width:0.8;"/>
     </g>
     <g id="line2d_8">
      <g>
       <use style="fill:#d3d3d3;stroke:#d3d3d3;stroke-width:0.8;" x="371.905536" xlink:href="#m98631e057c" y="53.887"/>
      </g>
     </g>
     <g id="text_4">
      <!-- 30 -->
      <defs>
       <path d="M 17.578125 32.171875 
L 21.875 32.171875 
Q 26.609375 32.171875 29.6875 29.296875 
Q 32.8125 26.3125 32.90625 20.90625 
Q 32.8125 15.578125 29.6875 12.703125 
Q 26.609375 9.625 22.125 9.625 
Q 17.921875 9.625 15.375 11.921875 
Q 12.890625 14.109375 11.53125 17.671875 
L 1.3125 17.671875 
Q 2.984375 8.796875 8.59375 4.109375 
Q 14.203125 -0.59375 21.484375 -0.59375 
Q 30.90625 -0.484375 36.921875 5.421875 
Q 43.015625 11.1875 43.109375 21.1875 
Q 43.109375 25.6875 41.21875 29.78125 
Q 39.203125 33.890625 34.71875 36.8125 
Q 39.109375 39.796875 40.828125 43.609375 
Q 42.28125 47.40625 42.28125 51.515625 
Q 42.1875 59.625 36.71875 65.578125 
Q 31 71.6875 21.296875 71.78125 
Q 13.625 71.6875 8.109375 66.3125 
Q 2.484375 60.890625 1.703125 52.984375 
L 11.921875 52.984375 
Q 12.890625 57.375 15.71875 59.46875 
Q 18.40625 61.578125 21.6875 61.578125 
Q 26.21875 61.46875 29.109375 58.6875 
Q 31.984375 55.8125 32.078125 51.3125 
Q 32.078125 46.875 29.203125 44.09375 
Q 26.3125 41.21875 21.09375 41.21875 
L 17.578125 41.21875 
z
" id="DINAlternate-Bold-33"/>
      </defs>
      <g transform="translate(366.625536 44.630281)scale(0.11 -0.11)">
       <use xlink:href="#DINAlternate-Bold-33"/>
       <use x="47.998047" xlink:href="#DINAlternate-Bold-30"/>
      </g>
     </g>
    </g>
    <g id="xtick_5">
     <g id="line2d_9">
      <path clip-path="url(#p434432aa4e)" d="M 468.43759 331.087 
L 468.43759 53.887 
" style="fill:none;stroke:#c0c0c0;stroke-linecap:square;stroke-width:0.8;"/>
     </g>
     <g id="line2d_10">
      <g>
       <use style="fill:#d3d3d3;stroke:#d3d3d3;stroke-width:0.8;" x="468.43759" xlink:href="#m98631e057c" y="53.887"/>
      </g>
     </g>
     <g id="text_5">
      <!-- 40 -->
      <defs>
       <path d="M 1.21875 10.59375 
L 30.90625 10.59375 
L 30.90625 0 
L 41.109375 0 
L 41.109375 10.59375 
L 46.78125 10.59375 
L 46.78125 20.21875 
L 41.109375 20.21875 
L 41.109375 40.671875 
L 30.90625 40.671875 
L 30.90625 20.21875 
L 12.3125 20.21875 
L 36.375 71.1875 
L 25 71.1875 
L 1.21875 20.21875 
z
" id="DINAlternate-Bold-34"/>
      </defs>
      <g transform="translate(463.15759 44.630281)scale(0.11 -0.11)">
       <use xlink:href="#DINAlternate-Bold-34"/>
       <use x="47.998047" xlink:href="#DINAlternate-Bold-30"/>
      </g>
     </g>
    </g>
    <g id="xtick_6">
     <g id="line2d_11">
      <path clip-path="url(#p434432aa4e)" d="M 564.969644 331.087 
L 564.969644 53.887 
" style="fill:none;stroke:#c0c0c0;stroke-linecap:square;stroke-width:0.8;"/>
     </g>
     <g id="line2d_12">
      <g>
       <use style="fill:#d3d3d3;stroke:#d3d3d3;stroke-width:0.8;" x="564.969644" xlink:href="#m98631e057c" y="53.887"/>
      </g>
     </g>
     <g id="text_6">
      <!-- 50 tons of garbage per capita -->
      <defs>
       <path d="M 4.984375 32.71875 
L 14.59375 32.71875 
Q 16.40625 35.984375 18.703125 37.3125 
Q 21 38.578125 23.78125 38.578125 
Q 26.90625 38.578125 29 37.703125 
Q 31.109375 36.625 32.171875 34.8125 
Q 34.1875 31 34.078125 24.90625 
Q 34.078125 22.40625 33.984375 19.78125 
Q 33.796875 17.09375 32.90625 14.796875 
Q 32.078125 12.5 29.984375 11.078125 
Q 27.78125 9.625 24.125 9.625 
Q 15.578125 9.71875 13.921875 17.921875 
L 3.71875 17.921875 
Q 5.171875 8.109375 11.28125 3.71875 
Q 17.28125 -0.59375 24.515625 -0.59375 
Q 29.890625 -0.484375 33.796875 1.90625 
Q 37.796875 4.203125 39.890625 6.984375 
Q 42.28125 9.8125 43.3125 13.484375 
Q 44.28125 17.1875 44.28125 24.125 
Q 44.28125 28.609375 44 31.6875 
Q 43.703125 34.71875 43.015625 36.8125 
Q 41.703125 40.671875 38.71875 43.609375 
Q 36.71875 45.796875 33.5 47.3125 
Q 30.078125 48.6875 25.984375 48.78125 
Q 19.578125 48.78125 14.59375 44.875 
L 14.59375 44.875 
L 14.59375 60.984375 
L 42.921875 60.984375 
L 42.921875 71.1875 
L 4.984375 71.1875 
z
" id="DINAlternate-Bold-35"/>
       <path id="DINAlternate-Bold-20"/>
       <path d="M 7.171875 50.6875 
L 2.09375 50.6875 
L 2.09375 42.921875 
L 7.171875 42.921875 
L 7.171875 12.5 
Q 7.171875 6.5 10.6875 3.328125 
Q 14.109375 0 19.484375 0 
L 24.8125 0 
L 24.8125 9.625 
L 21 9.625 
Q 17.28125 9.515625 17.390625 13.375 
L 17.390625 42.921875 
L 24.8125 42.921875 
L 24.8125 50.6875 
L 17.390625 50.6875 
L 17.390625 66.109375 
L 7.171875 66.109375 
z
" id="DINAlternate-Bold-74"/>
       <path d="M 4.109375 25.390625 
Q 4.109375 17.390625 5.421875 13.1875 
Q 6.78125 8.984375 9.625 5.90625 
Q 11.71875 3.515625 15.484375 1.609375 
Q 19.1875 -0.484375 25 -0.59375 
Q 31 -0.484375 34.71875 1.609375 
Q 36.71875 2.484375 37.984375 3.71875 
Q 39.40625 4.78125 40.375 5.90625 
Q 43.40625 8.984375 44.671875 13.1875 
Q 45.90625 17.390625 45.90625 25.390625 
Q 45.90625 33.40625 44.671875 37.703125 
Q 43.40625 41.890625 40.375 44.78125 
Q 38.375 47.3125 34.71875 49.3125 
Q 31 51.21875 25 51.3125 
Q 19.1875 51.21875 15.484375 49.3125 
Q 11.71875 47.3125 9.625 44.78125 
Q 6.78125 41.890625 5.421875 37.703125 
Q 4.109375 33.40625 4.109375 25.390625 
z
M 35.6875 25.296875 
Q 35.6875 20.125 35.203125 17.671875 
Q 34.71875 15.1875 33.203125 13.28125 
Q 32.078125 11.8125 29.890625 10.6875 
Q 27.78125 9.625 25 9.625 
Q 22.40625 9.625 20.21875 10.6875 
Q 18.109375 11.8125 16.796875 13.28125 
Q 15.484375 15.1875 14.890625 17.671875 
Q 14.3125 20.125 14.3125 25.390625 
Q 14.3125 30.71875 14.890625 33.203125 
Q 15.484375 35.59375 16.796875 37.40625 
Q 18.109375 39.109375 20.21875 40.09375 
Q 22.40625 41.109375 25 41.109375 
Q 27.78125 41.109375 29.890625 40.09375 
Q 32.078125 39.109375 33.203125 37.40625 
Q 34.71875 35.59375 35.203125 33.203125 
Q 35.6875 30.71875 35.6875 25.296875 
z
" id="DINAlternate-Bold-6f"/>
       <path d="M 6.59375 0 
L 16.796875 0 
L 16.796875 30.171875 
Q 16.796875 35.5 19.671875 38.28125 
Q 22.515625 41.109375 26.90625 41.109375 
Q 31.296875 41.109375 34.078125 38.28125 
Q 36.921875 35.5 36.921875 30.171875 
L 36.921875 0 
L 47.125 0 
L 47.125 33.6875 
Q 46.875 42.390625 41.703125 46.875 
Q 36.46875 51.3125 30.171875 51.3125 
Q 22.015625 51.3125 17 45.3125 
L 16.796875 45.3125 
L 16.796875 50.6875 
L 6.59375 50.6875 
z
" id="DINAlternate-Bold-6e"/>
       <path d="M 8.109375 15.484375 
L 0.984375 8.5 
Q 10.890625 -0.59375 23.296875 -0.59375 
Q 32.421875 -0.484375 38.28125 3.609375 
Q 44.1875 7.625 44.28125 14.984375 
Q 44.28125 21.296875 41.015625 25.390625 
Q 37.5 29.59375 29.59375 30.171875 
L 21.1875 30.8125 
Q 17.484375 31.203125 16.015625 32.625 
Q 14.40625 33.890625 14.5 35.59375 
Q 14.5 38.28125 16.5 39.984375 
Q 18.40625 41.703125 23.1875 41.703125 
Q 27.390625 41.703125 30.609375 40.484375 
Q 33.890625 39.109375 36.8125 37.015625 
L 36.8125 37.015625 
L 43.109375 44.390625 
Q 39.40625 47.609375 34.71875 49.515625 
Q 32.28125 50.390625 29.5 50.875 
Q 26.703125 51.3125 23.1875 51.3125 
Q 15.09375 51.3125 9.8125 47.40625 
Q 4.390625 43.5 4.296875 35.6875 
Q 4.390625 29.203125 8.5 25.59375 
Q 12.5 21.875 18.890625 21.296875 
L 27.875 20.515625 
Q 30.71875 20.40625 32.421875 19.28125 
Q 34.078125 18.21875 34.078125 15.484375 
Q 34.078125 12.40625 31.296875 10.6875 
Q 28.515625 8.984375 24.125 8.984375 
Q 14.3125 8.984375 8.109375 15.484375 
z
" id="DINAlternate-Bold-73"/>
       <path d="M 8.203125 0 
L 18.40625 0 
L 18.40625 42.921875 
L 28.609375 42.921875 
L 28.609375 50.6875 
L 18.40625 50.6875 
L 18.40625 57.375 
Q 18.21875 61.71875 22.796875 61.578125 
L 28.609375 61.578125 
L 28.609375 71.1875 
L 22.015625 71.1875 
Q 16.109375 71.1875 12.203125 68.015625 
Q 8.203125 64.59375 8.203125 57.375 
L 8.203125 50.6875 
L 3.078125 50.6875 
L 3.078125 42.921875 
L 8.203125 42.921875 
z
" id="DINAlternate-Bold-66"/>
       <path d="M 35.109375 5.328125 
L 35.109375 0.09375 
Q 35.015625 -5.078125 31.890625 -8.015625 
Q 28.71875 -10.890625 23.484375 -10.890625 
Q 20.703125 -10.796875 18.109375 -9.375 
Q 15.578125 -8.109375 13.625 -6.296875 
L 13.625 -6.296875 
L 5.71875 -12.59375 
Q 12.984375 -20.90625 23.296875 -21.09375 
Q 32.28125 -21.09375 38.71875 -15.578125 
Q 45.125 -10.203125 45.3125 1.21875 
L 45.3125 50.6875 
L 35.109375 50.6875 
L 35.109375 45.3125 
L 35.109375 45.3125 
Q 29.59375 51.3125 22.015625 51.3125 
Q 17.09375 51.21875 13.8125 49.421875 
Q 10.40625 47.515625 8.59375 45.125 
Q 6.59375 42.671875 5.71875 39.109375 
Q 4.78125 35.5 4.78125 25.296875 
Q 4.78125 15.28125 5.71875 11.71875 
Q 6.59375 8.109375 8.59375 5.609375 
Q 10.40625 3.421875 13.8125 1.515625 
Q 17.09375 -0.484375 22.015625 -0.59375 
Q 30.078125 -0.390625 35.109375 5.328125 
z
M 14.984375 25.296875 
Q 14.984375 31.203125 15.375 33.5 
Q 15.71875 35.796875 17 37.203125 
Q 18.015625 38.578125 20.125 39.890625 
Q 22.125 41.015625 25.09375 41.109375 
Q 28.078125 41.015625 30.078125 39.890625 
Q 32.078125 38.578125 33.109375 37.203125 
Q 34.375 35.796875 34.8125 33.5 
Q 35.109375 31.203125 35.109375 25.296875 
Q 35.109375 19.484375 34.8125 17.28125 
Q 34.375 14.984375 33.109375 13.484375 
Q 32.078125 12.109375 30.078125 10.984375 
Q 28.078125 9.625 25.09375 9.625 
Q 22.125 9.625 20.125 10.984375 
Q 18.015625 12.109375 17 13.484375 
Q 15.71875 14.984375 15.375 17.28125 
Q 14.984375 19.484375 14.984375 25.296875 
z
" id="DINAlternate-Bold-67"/>
       <path d="M 33.203125 0 
L 43.40625 0 
L 43.40625 34.625 
Q 43.3125 43.890625 37.59375 47.703125 
Q 31.890625 51.421875 22.3125 51.3125 
Q 10.984375 51.515625 5.171875 43.890625 
L 13.1875 37.796875 
L 13.1875 37.796875 
Q 14.5 39.984375 16.796875 40.921875 
Q 19 41.703125 22.796875 41.703125 
Q 33.296875 41.890625 33.203125 35.203125 
L 33.203125 29.890625 
L 19.09375 29.890625 
Q 10.984375 29.78125 6.78125 25.484375 
Q 2.59375 21.296875 2.59375 14.890625 
Q 2.59375 8.203125 7.421875 3.90625 
Q 12.015625 -0.484375 20.515625 -0.59375 
Q 25.6875 -0.59375 28.609375 0.6875 
Q 31.59375 1.90625 33.015625 4.5 
L 33.203125 4.5 
z
M 33.203125 17.828125 
Q 33.203125 12.109375 30.8125 10.5 
Q 28.171875 8.890625 21.78125 8.984375 
Q 16.703125 8.984375 14.5 10.984375 
Q 12.203125 12.796875 12.203125 15.375 
Q 12.109375 21.296875 21 21.484375 
L 33.203125 21.484375 
z
" id="DINAlternate-Bold-61"/>
       <path d="M 6.59375 0 
L 16.796875 0 
L 16.796875 30.515625 
Q 16.890625 36.078125 20.015625 38.578125 
Q 22.796875 41.109375 26.703125 41.109375 
Q 30.171875 41.109375 33.40625 38.578125 
L 33.40625 38.578125 
L 40.828125 47.40625 
Q 36.28125 51.21875 30.171875 51.3125 
Q 22.015625 51.3125 17 45.3125 
L 16.796875 45.3125 
L 16.796875 50.6875 
L 6.59375 50.6875 
z
" id="DINAlternate-Bold-72"/>
       <path d="M 6.59375 0 
L 16.796875 0 
L 16.796875 5.328125 
L 16.796875 5.328125 
Q 21.875 -0.390625 29.890625 -0.59375 
Q 34.625 -0.484375 37.984375 1.3125 
Q 41.40625 3.078125 43.5 6 
Q 45.609375 8.40625 46.390625 12.5 
Q 47.125 16.40625 47.125 25.390625 
Q 47.125 34.515625 46.390625 38.375 
Q 45.609375 42.28125 43.5 44.671875 
Q 39.203125 51.078125 29.890625 51.3125 
Q 25.984375 51.3125 22.90625 49.703125 
Q 19.578125 48 16.796875 45.3125 
L 16.796875 45.3125 
L 16.796875 71.1875 
L 6.59375 71.1875 
z
M 26.8125 41.109375 
Q 30.421875 41.109375 32.515625 39.890625 
Q 34.625 38.578125 35.5 36.28125 
Q 36.46875 33.984375 36.8125 31.296875 
Q 36.921875 28.421875 36.921875 25.390625 
Q 36.921875 22.515625 36.8125 19.78125 
Q 36.46875 16.890625 35.5 14.59375 
Q 34.625 12.40625 32.515625 10.984375 
Q 30.421875 9.625 26.8125 9.625 
Q 23.390625 9.625 21.390625 11.078125 
Q 19.28125 12.5 18.3125 14.796875 
Q 17.390625 17.09375 17.09375 19.921875 
Q 16.796875 22.703125 16.796875 25.390625 
Q 16.796875 28.328125 17.09375 31 
Q 17.390625 33.6875 18.3125 35.984375 
Q 19.28125 38.28125 21.390625 39.703125 
Q 23.390625 41.109375 26.8125 41.109375 
z
" id="DINAlternate-Bold-62"/>
       <path d="M 45.90625 21.484375 
L 45.90625 29.890625 
Q 45.796875 39.890625 39.703125 45.609375 
Q 33.6875 51.21875 25 51.3125 
Q 21.390625 51.3125 17.671875 50 
Q 13.921875 48.6875 10.890625 45.703125 
Q 7.90625 42.78125 6 37.703125 
Q 4.109375 32.71875 4.109375 25.203125 
Q 4.109375 17.390625 6.296875 12.5 
Q 8.296875 7.421875 11.53125 4.59375 
Q 13.1875 3.21875 15.09375 2.296875 
Q 16.890625 1.21875 18.796875 0.59375 
Q 22.609375 -0.59375 26.609375 -0.59375 
Q 37.109375 -0.6875 44.875 7.625 
L 37.5 13.921875 
L 37.5 13.921875 
Q 32.625 8.984375 26.421875 8.984375 
Q 21.09375 8.984375 17.828125 12.203125 
Q 14.3125 15.375 14.3125 21.484375 
z
M 14.3125 29.890625 
Q 14.59375 35.796875 17.484375 38.8125 
Q 20.40625 41.703125 25 41.703125 
Q 29.59375 41.703125 32.515625 38.8125 
Q 35.5 35.796875 35.6875 29.890625 
z
" id="DINAlternate-Bold-65"/>
       <path d="M 6.59375 -20.515625 
L 16.796875 -20.515625 
L 16.796875 5.421875 
L 16.796875 5.421875 
Q 19.578125 2.6875 22.90625 1.125 
Q 25.984375 -0.59375 29.890625 -0.59375 
Q 34.625 -0.484375 37.984375 1.3125 
Q 41.40625 3.078125 43.5 6 
Q 45.609375 8.5 46.390625 12.40625 
Q 47.125 16.3125 47.125 25.296875 
Q 47.125 34.515625 46.390625 38.375 
Q 45.609375 42.28125 43.5 44.671875 
Q 39.203125 51.078125 29.890625 51.3125 
Q 21.875 51.078125 16.796875 45.40625 
L 16.796875 45.40625 
L 16.796875 50.6875 
L 6.59375 50.6875 
z
M 26.8125 9.625 
Q 23.390625 9.625 21.390625 11.078125 
Q 19.28125 12.5 18.3125 14.796875 
Q 17.390625 17.09375 17.09375 19.921875 
Q 16.796875 22.609375 16.796875 25.296875 
Q 16.796875 28.171875 17.09375 31 
Q 17.390625 33.6875 18.3125 35.984375 
Q 19.28125 38.28125 21.390625 39.703125 
Q 23.390625 41.109375 26.8125 41.109375 
Q 30.421875 41.109375 32.515625 39.890625 
Q 34.625 38.578125 35.5 36.28125 
Q 36.46875 34.078125 36.8125 31.203125 
Q 36.921875 28.328125 36.921875 25.296875 
Q 36.921875 22.40625 36.8125 19.671875 
Q 36.46875 16.890625 35.5 14.59375 
Q 34.625 12.40625 32.515625 10.984375 
Q 30.421875 9.625 26.8125 9.625 
z
" id="DINAlternate-Bold-70"/>
       <path d="M 36.375 14.890625 
L 36.375 14.890625 
Q 32.515625 9.71875 26.078125 9.625 
Q 13.09375 9.375 12.890625 25.296875 
Q 13.09375 41.3125 26.078125 41.109375 
Q 32.515625 40.921875 36.375 35.796875 
L 36.375 35.796875 
L 43.890625 42.484375 
Q 40.578125 46.484375 36.078125 48.875 
Q 31.59375 51.21875 25.6875 51.3125 
Q 16.703125 51.421875 9.90625 45.3125 
Q 2.875 39.109375 2.6875 25.296875 
Q 2.875 11.625 9.90625 5.515625 
Q 16.703125 -0.59375 25.6875 -0.59375 
Q 31.59375 -0.484375 36.078125 2 
Q 40.578125 4.390625 43.890625 8.203125 
z
" id="DINAlternate-Bold-63"/>
       <path d="M 6.890625 0 
L 17.09375 0 
L 17.09375 50.6875 
L 6.890625 50.6875 
z
M 6.890625 60.984375 
L 17.09375 60.984375 
L 17.09375 71.1875 
L 6.890625 71.1875 
z
" id="DINAlternate-Bold-69"/>
      </defs>
      <g transform="translate(498.60441 44.566688)scale(0.11 -0.11)">
       <use xlink:href="#DINAlternate-Bold-35"/>
       <use x="47.998047" xlink:href="#DINAlternate-Bold-30"/>
       <use x="95.996094" xlink:href="#DINAlternate-Bold-20"/>
       <use x="119.970703" xlink:href="#DINAlternate-Bold-74"/>
       <use x="147.753906" xlink:href="#DINAlternate-Bold-6f"/>
       <use x="197.753906" xlink:href="#DINAlternate-Bold-6e"/>
       <use x="251.464844" xlink:href="#DINAlternate-Bold-73"/>
       <use x="299.462891" xlink:href="#DINAlternate-Bold-20"/>
       <use x="323.4375" xlink:href="#DINAlternate-Bold-6f"/>
       <use x="373.4375" xlink:href="#DINAlternate-Bold-66"/>
       <use x="401.220703" xlink:href="#DINAlternate-Bold-20"/>
       <use x="425.195312" xlink:href="#DINAlternate-Bold-67"/>
       <use x="477.099609" xlink:href="#DINAlternate-Bold-61"/>
       <use x="527.099609" xlink:href="#DINAlternate-Bold-72"/>
       <use x="566.015625" xlink:href="#DINAlternate-Bold-62"/>
       <use x="617.919922" xlink:href="#DINAlternate-Bold-61"/>
       <use x="667.919922" xlink:href="#DINAlternate-Bold-67"/>
       <use x="719.824219" xlink:href="#DINAlternate-Bold-65"/>
       <use x="769.824219" xlink:href="#DINAlternate-Bold-20"/>
       <use x="793.798828" xlink:href="#DINAlternate-Bold-70"/>
       <use x="845.703125" xlink:href="#DINAlternate-Bold-65"/>
       <use x="895.703125" xlink:href="#DINAlternate-Bold-72"/>
       <use x="934.619141" xlink:href="#DINAlternate-Bold-20"/>
       <use x="958.59375" xlink:href="#DINAlternate-Bold-63"/>
       <use x="1002.978516" xlink:href="#DINAlternate-Bold-61"/>
       <use x="1052.978516" xlink:href="#DINAlternate-Bold-70"/>
       <use x="1104.882812" xlink:href="#DINAlternate-Bold-69"/>
       <use x="1128.857422" xlink:href="#DINAlternate-Bold-74"/>
       <use x="1156.640625" xlink:href="#DINAlternate-Bold-61"/>
      </g>
     </g>
    </g>
   </g>
   <g id="matplotlib.axis_2">
    <g id="ytick_1">
     <g id="text_7">
      <!-- Texas -->
      <defs>
       <path d="M 19.578125 0 
L 30.421875 0 
L 30.421875 61.578125 
L 49.90625 61.578125 
L 49.90625 71.1875 
L 0.09375 71.1875 
L 0.09375 61.578125 
L 19.578125 61.578125 
z
" id="DINAlternate-Bold-54"/>
       <path d="M 18.3125 25.875 
L 0.984375 0 
L 13.1875 0 
L 23.96875 16.890625 
L 23.96875 16.890625 
L 34.8125 0 
L 46.96875 0 
L 29.6875 25.875 
L 46.296875 50.6875 
L 34.078125 50.6875 
L 23.96875 34.28125 
L 23.96875 34.28125 
L 13.921875 50.6875 
L 1.703125 50.6875 
z
" id="DINAlternate-Bold-78"/>
      </defs>
      <g transform="translate(50.725 325.406375)scale(0.1 -0.1)">
       <use xlink:href="#DINAlternate-Bold-54"/>
       <use x="49.84375" xlink:href="#DINAlternate-Bold-65"/>
       <use x="99.84375" xlink:href="#DINAlternate-Bold-78"/>
       <use x="147.841797" xlink:href="#DINAlternate-Bold-61"/>
       <use x="197.841797" xlink:href="#DINAlternate-Bold-73"/>
      </g>
     </g>
    </g>
    <g id="ytick_2">
     <g id="text_8">
      <!-- Rhode Island -->
      <defs>
       <path d="M 18.3125 61.578125 
L 35.203125 61.578125 
Q 40.375 61.578125 43.109375 59.375 
Q 46.578125 56.890625 46.6875 51.3125 
Q 46.6875 46.6875 43.703125 43.5 
Q 40.671875 40.09375 34.625 39.984375 
L 18.3125 39.984375 
z
M 7.515625 0 
L 18.3125 0 
L 18.3125 30.421875 
L 32.078125 30.421875 
L 46.78125 0 
L 59.625 0 
L 43.109375 31.59375 
Q 56.6875 36.8125 56.890625 51.3125 
Q 56.59375 61.1875 49.8125 66.5 
Q 44.1875 71.1875 35.296875 71.1875 
L 7.515625 71.1875 
z
" id="DINAlternate-Bold-52"/>
       <path d="M 6.59375 0 
L 16.796875 0 
L 16.796875 30.171875 
Q 16.796875 35.5 19.671875 38.28125 
Q 22.515625 41.109375 26.90625 41.109375 
Q 31.296875 41.109375 34.078125 38.28125 
Q 36.921875 35.5 36.921875 30.171875 
L 36.921875 0 
L 47.125 0 
L 47.125 33.6875 
Q 46.875 42.390625 41.703125 46.875 
Q 36.46875 51.3125 30.171875 51.3125 
Q 22.015625 51.3125 17 45.3125 
L 16.796875 45.3125 
L 16.796875 71.1875 
L 6.59375 71.1875 
z
" id="DINAlternate-Bold-68"/>
       <path d="M 36.921875 5.328125 
L 36.921875 0 
L 47.125 0 
L 47.125 71.1875 
L 36.921875 71.1875 
L 36.921875 45.3125 
L 36.921875 45.3125 
Q 34.078125 48 31 49.703125 
Q 27.6875 51.3125 23.78125 51.3125 
Q 14.5 51.078125 10.203125 44.671875 
Q 8.109375 42.28125 7.421875 38.375 
Q 6.59375 34.515625 6.59375 25.390625 
Q 6.59375 16.40625 7.421875 12.5 
Q 8.109375 8.40625 10.203125 6 
Q 12.5 3.078125 15.921875 1.3125 
Q 19.1875 -0.484375 23.78125 -0.59375 
Q 31.890625 -0.390625 36.921875 5.328125 
z
M 26.90625 41.109375 
Q 30.515625 41.109375 32.625 39.703125 
Q 34.71875 38.28125 35.5 35.984375 
Q 36.46875 33.6875 36.8125 31 
Q 36.921875 28.328125 36.921875 25.390625 
Q 36.921875 22.703125 36.8125 19.921875 
Q 36.46875 17.09375 35.5 14.796875 
Q 34.71875 12.5 32.625 11.078125 
Q 30.515625 9.625 26.90625 9.625 
Q 23.296875 9.625 21.390625 10.984375 
Q 19.28125 12.40625 18.3125 14.59375 
Q 17.390625 16.890625 17.09375 19.78125 
Q 16.796875 22.515625 16.796875 25.390625 
Q 16.796875 28.421875 17.09375 31.296875 
Q 17.390625 33.984375 18.3125 36.28125 
Q 19.28125 38.578125 21.390625 39.890625 
Q 23.296875 41.109375 26.90625 41.109375 
z
" id="DINAlternate-Bold-64"/>
       <path d="M 7.515625 0 
L 18.3125 0 
L 18.3125 71.1875 
L 7.515625 71.1875 
z
" id="DINAlternate-Bold-49"/>
       <path d="M 6.59375 12.3125 
Q 6.59375 5.609375 10.40625 2.78125 
Q 14.015625 0 19.578125 0 
L 24.125 0 
L 24.125 9.625 
L 20.609375 9.625 
Q 16.796875 9.625 16.796875 13.09375 
L 16.796875 71.1875 
L 6.59375 71.1875 
z
" id="DINAlternate-Bold-6c"/>
      </defs>
      <g transform="translate(20.732813 306.926375)scale(0.1 -0.1)">
       <use xlink:href="#DINAlternate-Bold-52"/>
       <use x="60.986328" xlink:href="#DINAlternate-Bold-68"/>
       <use x="114.697266" xlink:href="#DINAlternate-Bold-6f"/>
       <use x="164.697266" xlink:href="#DINAlternate-Bold-64"/>
       <use x="216.601562" xlink:href="#DINAlternate-Bold-65"/>
       <use x="266.601562" xlink:href="#DINAlternate-Bold-20"/>
       <use x="290.576172" xlink:href="#DINAlternate-Bold-49"/>
       <use x="316.357422" xlink:href="#DINAlternate-Bold-73"/>
       <use x="364.355469" xlink:href="#DINAlternate-Bold-6c"/>
       <use x="390.136719" xlink:href="#DINAlternate-Bold-61"/>
       <use x="440.136719" xlink:href="#DINAlternate-Bold-6e"/>
       <use x="493.847656" xlink:href="#DINAlternate-Bold-64"/>
      </g>
     </g>
    </g>
    <g id="ytick_3">
     <g id="text_9">
      <!-- Kansas -->
      <defs>
       <path d="M 7.515625 0 
L 18.3125 0 
L 18.3125 21.6875 
L 30.8125 34.8125 
L 30.8125 34.8125 
L 50.203125 0 
L 62.984375 0 
L 37.796875 43.109375 
L 60.59375 71.1875 
L 47.796875 71.1875 
L 18.5 34.515625 
L 18.3125 34.515625 
L 18.3125 71.1875 
L 7.515625 71.1875 
z
" id="DINAlternate-Bold-4b"/>
      </defs>
      <g transform="translate(44.039062 288.446375)scale(0.1 -0.1)">
       <use xlink:href="#DINAlternate-Bold-4b"/>
       <use x="62.988281" xlink:href="#DINAlternate-Bold-61"/>
       <use x="112.988281" xlink:href="#DINAlternate-Bold-6e"/>
       <use x="166.699219" xlink:href="#DINAlternate-Bold-73"/>
       <use x="214.697266" xlink:href="#DINAlternate-Bold-61"/>
       <use x="264.697266" xlink:href="#DINAlternate-Bold-73"/>
      </g>
     </g>
    </g>
    <g id="ytick_4">
     <g id="text_10">
      <!-- New Hampshire -->
      <defs>
       <path d="M 7.515625 0 
L 18.3125 0 
L 18.3125 50.59375 
L 18.5 50.59375 
L 50.6875 0 
L 60.890625 0 
L 60.890625 71.1875 
L 50.09375 71.1875 
L 50.09375 20.609375 
L 49.90625 20.609375 
L 17.671875 71.1875 
L 7.515625 71.1875 
z
" id="DINAlternate-Bold-4e"/>
       <path d="M 46.78125 0 
L 55.8125 0 
L 71.96875 50.6875 
L 61.1875 50.6875 
L 51.515625 15.1875 
L 51.3125 15.1875 
L 39.796875 50.6875 
L 32.421875 50.6875 
L 20.90625 15.1875 
L 20.703125 15.1875 
L 10.984375 50.6875 
L 0.203125 50.6875 
L 16.40625 0 
L 25.390625 0 
L 35.984375 35.5 
L 36.1875 35.5 
z
" id="DINAlternate-Bold-77"/>
       <path d="M 46.484375 0 
L 57.28125 0 
L 57.28125 71.1875 
L 46.484375 71.1875 
L 46.484375 40.671875 
L 18.3125 40.671875 
L 18.3125 71.1875 
L 7.515625 71.1875 
L 7.515625 0 
L 18.3125 0 
L 18.3125 31.109375 
L 46.484375 31.109375 
z
" id="DINAlternate-Bold-48"/>
       <path d="M 7.171875 0 
L 17.390625 0 
L 17.390625 30.171875 
Q 17.390625 35.5 20.3125 38.28125 
Q 23.09375 41.109375 27.484375 41.109375 
Q 31.890625 41.109375 34.71875 38.28125 
Q 37.5 35.5 37.5 30.171875 
L 37.5 0 
L 47.703125 0 
L 47.703125 30.171875 
Q 47.703125 35.5 50.59375 38.28125 
Q 53.421875 41.109375 57.8125 41.109375 
Q 62.203125 41.109375 64.984375 38.28125 
Q 67.78125 35.5 67.78125 30.171875 
L 67.78125 0 
L 77.984375 0 
L 77.984375 33.6875 
Q 77.78125 42.390625 72.609375 46.875 
Q 67.390625 51.3125 61.078125 51.3125 
Q 51.078125 51.421875 45.125 44.671875 
L 45.125 44.671875 
Q 42.484375 47.609375 39.3125 49.515625 
Q 36.078125 51.21875 30.8125 51.3125 
Q 22.609375 51.3125 17.578125 45.3125 
L 17.390625 45.3125 
L 17.390625 50.6875 
L 7.171875 50.6875 
z
" id="DINAlternate-Bold-6d"/>
      </defs>
      <g transform="translate(7.2 269.966375)scale(0.1 -0.1)">
       <use xlink:href="#DINAlternate-Bold-4e"/>
       <use x="68.408203" xlink:href="#DINAlternate-Bold-65"/>
       <use x="118.408203" xlink:href="#DINAlternate-Bold-77"/>
       <use x="190.625" xlink:href="#DINAlternate-Bold-20"/>
       <use x="214.599609" xlink:href="#DINAlternate-Bold-48"/>
       <use x="279.394531" xlink:href="#DINAlternate-Bold-61"/>
       <use x="329.394531" xlink:href="#DINAlternate-Bold-6d"/>
       <use x="414.599609" xlink:href="#DINAlternate-Bold-70"/>
       <use x="466.503906" xlink:href="#DINAlternate-Bold-73"/>
       <use x="514.501953" xlink:href="#DINAlternate-Bold-68"/>
       <use x="568.212891" xlink:href="#DINAlternate-Bold-69"/>
       <use x="592.1875" xlink:href="#DINAlternate-Bold-72"/>
       <use x="631.087891" xlink:href="#DINAlternate-Bold-65"/>
      </g>
     </g>
    </g>
    <g id="ytick_5">
     <g id="text_11">
      <!-- Virginia -->
      <defs>
       <path d="M 23.578125 0 
L 31.984375 0 
L 55.515625 71.1875 
L 44.09375 71.1875 
L 27.875 17 
L 27.6875 17 
L 11.53125 71.1875 
L 0.09375 71.1875 
z
" id="DINAlternate-Bold-56"/>
      </defs>
      <g transform="translate(43.104688 251.486375)scale(0.1 -0.1)">
       <use xlink:href="#DINAlternate-Bold-56"/>
       <use x="55.599609" xlink:href="#DINAlternate-Bold-69"/>
       <use x="79.574219" xlink:href="#DINAlternate-Bold-72"/>
       <use x="118.490234" xlink:href="#DINAlternate-Bold-67"/>
       <use x="170.394531" xlink:href="#DINAlternate-Bold-69"/>
       <use x="194.369141" xlink:href="#DINAlternate-Bold-6e"/>
       <use x="248.080078" xlink:href="#DINAlternate-Bold-69"/>
       <use x="272.054688" xlink:href="#DINAlternate-Bold-61"/>
      </g>
     </g>
    </g>
    <g id="ytick_6">
     <g id="text_12">
      <!-- Kentucky -->
      <defs>
       <path d="M 6.59375 17 
Q 6.6875 8.40625 12.203125 4 
Q 17.28125 -0.484375 23.578125 -0.59375 
Q 31.6875 -0.59375 36.71875 5.421875 
L 36.921875 5.421875 
L 36.921875 0 
L 47.125 0 
L 47.125 50.6875 
L 36.921875 50.6875 
L 36.921875 20.515625 
Q 36.921875 15.375 34.078125 12.5 
Q 31.296875 9.625 26.90625 9.625 
Q 22.515625 9.625 19.671875 12.5 
Q 16.796875 15.375 16.796875 20.515625 
L 16.796875 50.6875 
L 6.59375 50.6875 
z
" id="DINAlternate-Bold-75"/>
       <path d="M 6.59375 0 
L 16.796875 0 
L 16.796875 14.59375 
L 24.8125 23.6875 
L 24.8125 23.6875 
L 38.28125 0 
L 51.078125 0 
L 31.203125 30.90625 
L 48.6875 50.6875 
L 36.46875 50.6875 
L 17 26.90625 
L 16.796875 26.90625 
L 16.796875 71.1875 
L 6.59375 71.1875 
z
" id="DINAlternate-Bold-6b"/>
       <path d="M 17.484375 2 
L 14.703125 -6.5 
Q 14.015625 -8.6875 12.3125 -9.8125 
Q 10.59375 -10.890625 8.59375 -10.890625 
L 5.609375 -10.890625 
L 5.609375 -20.515625 
L 8.984375 -20.515625 
Q 13.71875 -20.515625 17.484375 -18.40625 
Q 21.1875 -16.21875 23.296875 -10.5 
L 45.125 50.6875 
L 34.28125 50.6875 
L 22.3125 15.1875 
L 22.125 15.1875 
L 10.109375 50.6875 
L -0.6875 50.6875 
z
" id="DINAlternate-Bold-79"/>
      </defs>
      <g transform="translate(36.420313 233.006375)scale(0.1 -0.1)">
       <use xlink:href="#DINAlternate-Bold-4b"/>
       <use x="62.988281" xlink:href="#DINAlternate-Bold-65"/>
       <use x="112.988281" xlink:href="#DINAlternate-Bold-6e"/>
       <use x="166.699219" xlink:href="#DINAlternate-Bold-74"/>
       <use x="194.482422" xlink:href="#DINAlternate-Bold-75"/>
       <use x="248.193359" xlink:href="#DINAlternate-Bold-63"/>
       <use x="292.578125" xlink:href="#DINAlternate-Bold-6b"/>
       <use x="344.482422" xlink:href="#DINAlternate-Bold-79"/>
      </g>
     </g>
    </g>
    <g id="ytick_7">
     <g id="text_13">
      <!-- Ohio -->
      <defs>
       <path d="M 5.078125 35.59375 
Q 5.078125 23.390625 5.8125 19.09375 
Q 6.203125 16.796875 6.78125 15.28125 
Q 7.421875 13.8125 8.203125 12.203125 
Q 10.796875 7.28125 16.5 3.515625 
Q 22.125 -0.390625 30.515625 -0.59375 
Q 39.015625 -0.390625 44.671875 3.515625 
Q 50.296875 7.28125 52.78125 12.203125 
Q 54.59375 14.796875 55.28125 19.09375 
Q 55.90625 23.390625 55.90625 35.59375 
Q 55.90625 48 55.28125 52.203125 
Q 54.59375 56.390625 52.78125 58.984375 
Q 50.296875 63.921875 44.671875 67.78125 
Q 39.015625 71.6875 30.515625 71.78125 
Q 22.125 71.6875 16.5 67.78125 
Q 10.796875 63.921875 8.203125 58.984375 
Q 6.59375 56.390625 5.8125 52.203125 
Q 5.078125 48 5.078125 35.59375 
z
M 15.921875 35.59375 
Q 15.921875 46.09375 16.703125 49.90625 
Q 17.390625 53.515625 19.484375 55.8125 
Q 21.1875 58.015625 23.96875 59.46875 
Q 26.703125 60.890625 30.515625 60.984375 
Q 34.375 60.890625 37.203125 59.46875 
Q 39.890625 58.015625 41.5 55.8125 
Q 43.609375 53.515625 44.390625 49.90625 
Q 45.125 46.09375 45.125 35.59375 
Q 45.125 25.09375 44.390625 21.390625 
Q 43.609375 17.671875 41.5 15.375 
Q 39.890625 13.1875 37.203125 11.8125 
Q 34.375 10.203125 30.515625 10.203125 
Q 26.703125 10.203125 23.96875 11.8125 
Q 21.1875 13.1875 19.484375 15.375 
Q 17.390625 17.671875 16.703125 21.390625 
Q 15.921875 25.09375 15.921875 35.59375 
z
" id="DINAlternate-Bold-4f"/>
      </defs>
      <g transform="translate(56.442188 214.526375)scale(0.1 -0.1)">
       <use xlink:href="#DINAlternate-Bold-4f"/>
       <use x="60.986328" xlink:href="#DINAlternate-Bold-68"/>
       <use x="114.697266" xlink:href="#DINAlternate-Bold-69"/>
       <use x="138.671875" xlink:href="#DINAlternate-Bold-6f"/>
      </g>
     </g>
    </g>
    <g id="ytick_8">
     <g id="text_14">
      <!-- Nevada -->
      <defs>
       <path d="M 18.015625 0 
L 26.421875 0 
L 45.015625 50.6875 
L 34.1875 50.6875 
L 22.3125 15.1875 
L 22.125 15.1875 
L 10.203125 50.6875 
L -0.59375 50.6875 
z
" id="DINAlternate-Bold-76"/>
      </defs>
      <g transform="translate(43.839062 196.046375)scale(0.1 -0.1)">
       <use xlink:href="#DINAlternate-Bold-4e"/>
       <use x="68.408203" xlink:href="#DINAlternate-Bold-65"/>
       <use x="118.408203" xlink:href="#DINAlternate-Bold-76"/>
       <use x="162.792969" xlink:href="#DINAlternate-Bold-61"/>
       <use x="212.792969" xlink:href="#DINAlternate-Bold-64"/>
       <use x="264.697266" xlink:href="#DINAlternate-Bold-61"/>
      </g>
     </g>
    </g>
    <g id="ytick_9">
     <g id="text_15">
      <!-- California -->
      <defs>
       <path d="M 44.09375 19.921875 
Q 39.59375 10.203125 30.515625 10.203125 
Q 26.703125 10.203125 23.96875 11.8125 
Q 21.1875 13.1875 19.484375 15.375 
Q 17.390625 17.671875 16.703125 21.390625 
Q 15.921875 25.09375 15.921875 35.59375 
Q 15.921875 46.09375 16.703125 49.90625 
Q 17.390625 53.515625 19.484375 55.8125 
Q 21.1875 58.015625 23.96875 59.46875 
Q 26.703125 60.890625 30.515625 60.984375 
Q 35.6875 60.890625 39.3125 58.015625 
Q 42.78125 54.984375 44.09375 50.6875 
L 55.515625 50.6875 
Q 53.8125 59.625 47.3125 65.671875 
Q 40.828125 71.6875 30.515625 71.78125 
Q 22.125 71.6875 16.5 67.78125 
Q 10.796875 63.921875 8.203125 58.984375 
Q 6.59375 56.390625 5.8125 52.203125 
Q 5.078125 48 5.078125 35.59375 
Q 5.078125 23.390625 5.8125 19.09375 
Q 6.203125 16.796875 6.78125 15.28125 
Q 7.421875 13.8125 8.203125 12.203125 
Q 10.796875 7.28125 16.5 3.515625 
Q 22.125 -0.390625 30.515625 -0.59375 
Q 39.796875 -0.59375 46.578125 4.6875 
Q 53.171875 10.015625 55.515625 19.921875 
z
" id="DINAlternate-Bold-43"/>
      </defs>
      <g transform="translate(35.3375 177.566375)scale(0.1 -0.1)">
       <use xlink:href="#DINAlternate-Bold-43"/>
       <use x="55.615234" xlink:href="#DINAlternate-Bold-61"/>
       <use x="105.615234" xlink:href="#DINAlternate-Bold-6c"/>
       <use x="131.396484" xlink:href="#DINAlternate-Bold-69"/>
       <use x="155.371094" xlink:href="#DINAlternate-Bold-66"/>
       <use x="183.154297" xlink:href="#DINAlternate-Bold-6f"/>
       <use x="233.154297" xlink:href="#DINAlternate-Bold-72"/>
       <use x="272.039062" xlink:href="#DINAlternate-Bold-6e"/>
       <use x="325.75" xlink:href="#DINAlternate-Bold-69"/>
       <use x="349.724609" xlink:href="#DINAlternate-Bold-61"/>
      </g>
     </g>
    </g>
    <g id="ytick_10">
     <g id="text_16">
      <!-- Illinois -->
      <g transform="translate(47.609375 159.086375)scale(0.1 -0.1)">
       <use xlink:href="#DINAlternate-Bold-49"/>
       <use x="25.78125" xlink:href="#DINAlternate-Bold-6c"/>
       <use x="51.5625" xlink:href="#DINAlternate-Bold-6c"/>
       <use x="77.34375" xlink:href="#DINAlternate-Bold-69"/>
       <use x="101.318359" xlink:href="#DINAlternate-Bold-6e"/>
       <use x="155.029297" xlink:href="#DINAlternate-Bold-6f"/>
       <use x="205.029297" xlink:href="#DINAlternate-Bold-69"/>
       <use x="229.003906" xlink:href="#DINAlternate-Bold-73"/>
      </g>
     </g>
    </g>
    <g id="ytick_11">
     <g id="text_17">
      <!-- Wisconsin -->
      <defs>
       <path d="M 18.890625 0 
L 27.875 0 
L 41.5 51.3125 
L 41.703125 51.3125 
L 55.28125 0 
L 64.3125 0 
L 82.078125 71.1875 
L 70.703125 71.1875 
L 59.46875 20.609375 
L 59.28125 20.609375 
L 45.515625 71.1875 
L 37.703125 71.1875 
L 23.875 20.609375 
L 23.6875 20.609375 
L 12.5 71.1875 
L 1.125 71.1875 
z
" id="DINAlternate-Bold-57"/>
      </defs>
      <g transform="translate(32.4125 140.606375)scale(0.1 -0.1)">
       <use xlink:href="#DINAlternate-Bold-57"/>
       <use x="83.203125" xlink:href="#DINAlternate-Bold-69"/>
       <use x="107.177734" xlink:href="#DINAlternate-Bold-73"/>
       <use x="155.175781" xlink:href="#DINAlternate-Bold-63"/>
       <use x="199.560547" xlink:href="#DINAlternate-Bold-6f"/>
       <use x="249.560547" xlink:href="#DINAlternate-Bold-6e"/>
       <use x="303.271484" xlink:href="#DINAlternate-Bold-73"/>
       <use x="351.269531" xlink:href="#DINAlternate-Bold-69"/>
       <use x="375.244141" xlink:href="#DINAlternate-Bold-6e"/>
      </g>
     </g>
    </g>
    <g id="ytick_12">
     <g id="text_18">
      <!-- Indiana -->
      <g transform="translate(44.4 122.126375)scale(0.1 -0.1)">
       <use xlink:href="#DINAlternate-Bold-49"/>
       <use x="25.78125" xlink:href="#DINAlternate-Bold-6e"/>
       <use x="79.492188" xlink:href="#DINAlternate-Bold-64"/>
       <use x="131.396484" xlink:href="#DINAlternate-Bold-69"/>
       <use x="155.371094" xlink:href="#DINAlternate-Bold-61"/>
       <use x="205.371094" xlink:href="#DINAlternate-Bold-6e"/>
       <use x="259.082031" xlink:href="#DINAlternate-Bold-61"/>
      </g>
     </g>
    </g>
    <g id="ytick_13">
     <g id="text_19">
      <!-- Colorado -->
      <g transform="translate(38.089063 103.646375)scale(0.1 -0.1)">
       <use xlink:href="#DINAlternate-Bold-43"/>
       <use x="55.615234" xlink:href="#DINAlternate-Bold-6f"/>
       <use x="105.615234" xlink:href="#DINAlternate-Bold-6c"/>
       <use x="131.396484" xlink:href="#DINAlternate-Bold-6f"/>
       <use x="181.396484" xlink:href="#DINAlternate-Bold-72"/>
       <use x="220.296875" xlink:href="#DINAlternate-Bold-61"/>
       <use x="270.296875" xlink:href="#DINAlternate-Bold-64"/>
       <use x="322.201172" xlink:href="#DINAlternate-Bold-6f"/>
      </g>
     </g>
    </g>
    <g id="ytick_14">
     <g id="text_20">
      <!-- Pennsylvania -->
      <defs>
       <path d="M 18.3125 60.984375 
L 33.890625 60.984375 
Q 38.28125 61.078125 41.609375 58.984375 
Q 43.796875 57.71875 45.015625 55.515625 
Q 46.1875 53.078125 46.1875 49.515625 
Q 46.1875 45.21875 43.3125 41.703125 
Q 40.28125 38.09375 34.28125 37.984375 
L 18.3125 37.984375 
z
M 7.515625 0 
L 18.3125 0 
L 18.3125 27.78125 
L 34.71875 27.78125 
Q 45.703125 27.984375 51.421875 34.8125 
Q 56.984375 41.3125 56.984375 49.21875 
Q 56.984375 55.078125 54.78125 59.375 
Q 52.6875 63.8125 49.3125 66.21875 
Q 45.3125 69.390625 41.40625 70.40625 
Q 37.5 71.1875 33.296875 71.1875 
L 7.515625 71.1875 
z
" id="DINAlternate-Bold-50"/>
      </defs>
      <g transform="translate(19.614063 85.166375)scale(0.1 -0.1)">
       <use xlink:href="#DINAlternate-Bold-50"/>
       <use x="59.261719" xlink:href="#DINAlternate-Bold-65"/>
       <use x="109.261719" xlink:href="#DINAlternate-Bold-6e"/>
       <use x="162.972656" xlink:href="#DINAlternate-Bold-6e"/>
       <use x="216.683594" xlink:href="#DINAlternate-Bold-73"/>
       <use x="264.681641" xlink:href="#DINAlternate-Bold-79"/>
       <use x="309.066406" xlink:href="#DINAlternate-Bold-6c"/>
       <use x="334.847656" xlink:href="#DINAlternate-Bold-76"/>
       <use x="379.232422" xlink:href="#DINAlternate-Bold-61"/>
       <use x="429.232422" xlink:href="#DINAlternate-Bold-6e"/>
       <use x="482.943359" xlink:href="#DINAlternate-Bold-69"/>
       <use x="506.917969" xlink:href="#DINAlternate-Bold-61"/>
      </g>
     </g>
    </g>
    <g id="ytick_15">
     <g id="text_21">
      <!-- Michigan -->
      <defs>
       <path d="M 7.515625 0 
L 18.3125 0 
L 18.3125 44.390625 
L 18.5 44.390625 
L 33.40625 10.203125 
L 42.390625 10.203125 
L 57.28125 44.390625 
L 57.515625 44.390625 
L 57.515625 0 
L 68.3125 0 
L 68.3125 71.1875 
L 58.109375 71.1875 
L 38.09375 24.8125 
L 38.09375 24.8125 
L 17.671875 71.1875 
L 7.515625 71.1875 
z
" id="DINAlternate-Bold-4d"/>
      </defs>
      <g transform="translate(37.564062 66.686375)scale(0.1 -0.1)">
       <use xlink:href="#DINAlternate-Bold-4d"/>
       <use x="75.78125" xlink:href="#DINAlternate-Bold-69"/>
       <use x="99.755859" xlink:href="#DINAlternate-Bold-63"/>
       <use x="144.140625" xlink:href="#DINAlternate-Bold-68"/>
       <use x="197.851562" xlink:href="#DINAlternate-Bold-69"/>
       <use x="221.826172" xlink:href="#DINAlternate-Bold-67"/>
       <use x="273.730469" xlink:href="#DINAlternate-Bold-61"/>
       <use x="323.730469" xlink:href="#DINAlternate-Bold-6e"/>
      </g>
     </g>
    </g>
   </g>
   <g id="patch_3">
    <path clip-path="url(#p434432aa4e)" d="M 82.309375 326.467 
L 420.204282 326.467 
L 420.204282 317.227 
L 82.309375 317.227 
z
" style="fill:#006699;"/>
   </g>
   <g id="patch_4">
    <path clip-path="url(#p434432aa4e)" d="M 82.309375 307.987 
L 424.387671 307.987 
L 424.387671 298.747 
L 82.309375 298.747 
z
" style="fill:#006699;"/>
   </g>
   <g id="patch_5">
    <path clip-path="url(#p434432aa4e)" d="M 82.309375 289.507 
L 442.197684 289.507 
L 442.197684 280.267 
L 82.309375 280.267 
z
" style="fill:#006699;"/>
   </g>
   <g id="patch_6">
    <path clip-path="url(#p434432aa4e)" d="M 82.309375 271.027 
L 447.94888 271.027 
L 447.94888 261.787 
L 82.309375 261.787 
z
" style="fill:#006699;"/>
   </g>
   <g id="patch_7">
    <path clip-path="url(#p434432aa4e)" d="M 82.309375 252.547 
L 453.273449 252.547 
L 453.273449 243.307 
L 82.309375 243.307 
z
" style="fill:#006699;"/>
   </g>
   <g id="patch_8">
    <path clip-path="url(#p434432aa4e)" d="M 82.309375 234.067 
L 466.164831 234.067 
L 466.164831 224.827 
L 82.309375 224.827 
z
" style="fill:#006699;"/>
   </g>
   <g id="patch_9">
    <path clip-path="url(#p434432aa4e)" d="M 82.309375 215.587 
L 506.257914 215.587 
L 506.257914 206.347 
L 82.309375 206.347 
z
" style="fill:#006699;"/>
   </g>
   <g id="patch_10">
    <path clip-path="url(#p434432aa4e)" d="M 82.309375 197.107 
L 506.55387 197.107 
L 506.55387 187.867 
L 82.309375 187.867 
z
" style="fill:#006699;"/>
   </g>
   <g id="patch_11">
    <path clip-path="url(#p434432aa4e)" d="M 82.309375 178.627 
L 520.772899 178.627 
L 520.772899 169.387 
L 82.309375 169.387 
z
" style="fill:#006699;"/>
   </g>
   <g id="patch_12">
    <path clip-path="url(#p434432aa4e)" d="M 82.309375 160.147 
L 522.802231 160.147 
L 522.802231 150.907 
L 82.309375 150.907 
z
" style="fill:#006699;"/>
   </g>
   <g id="patch_13">
    <path clip-path="url(#p434432aa4e)" d="M 82.309375 141.667 
L 523.059392 141.667 
L 523.059392 132.427 
L 82.309375 132.427 
z
" style="fill:#006699;"/>
   </g>
   <g id="patch_14">
    <path clip-path="url(#p434432aa4e)" d="M 82.309375 123.187 
L 553.419892 123.187 
L 553.419892 113.947 
L 82.309375 113.947 
z
" style="fill:#006699;"/>
   </g>
   <g id="patch_15">
    <path clip-path="url(#p434432aa4e)" d="M 82.309375 104.707 
L 560.937454 104.707 
L 560.937454 95.467 
L 82.309375 95.467 
z
" style="fill:#006699;"/>
   </g>
   <g id="patch_16">
    <path clip-path="url(#p434432aa4e)" d="M 82.309375 86.227 
L 562.761928 86.227 
L 562.761928 76.987 
L 82.309375 76.987 
z
" style="fill:#006699;"/>
   </g>
   <g id="patch_17">
    <path clip-path="url(#p434432aa4e)" d="M 82.309375 67.747 
L 613.737946 67.747 
L 613.737946 58.507 
L 82.309375 58.507 
z
" style="fill:#423316;"/>
   </g>
   <g id="patch_18">
    <path d="M 82.309375 331.087 
L 82.309375 53.887 
" style="fill:none;stroke:#000000;stroke-linecap:square;stroke-linejoin:miter;stroke-width:0.8;"/>
   </g>
   <g id="text_22">
    <!-- Michigan Is the Most Garbage State -->
    <defs>
     <path d="M 30.609375 29 
L 45.125 29 
L 45.125 25.296875 
Q 45.015625 18.609375 40.921875 14.5 
Q 36.8125 10.203125 30.515625 10.203125 
Q 26.703125 10.203125 23.96875 11.8125 
Q 21.1875 13.1875 19.484375 15.375 
Q 17.390625 17.671875 16.703125 21.390625 
Q 15.921875 25.09375 15.921875 35.59375 
Q 15.921875 46.09375 16.703125 49.90625 
Q 17.390625 53.515625 19.484375 55.8125 
Q 21.1875 58.015625 23.96875 59.46875 
Q 26.703125 60.890625 30.515625 60.984375 
Q 35.6875 60.890625 39.3125 58.015625 
Q 42.78125 54.984375 44.09375 50.6875 
L 55.515625 50.6875 
Q 53.8125 59.625 47.3125 65.671875 
Q 40.828125 71.6875 30.515625 71.78125 
Q 22.125 71.6875 16.5 67.78125 
Q 10.796875 63.921875 8.203125 58.984375 
Q 6.59375 56.390625 5.8125 52.203125 
Q 5.078125 48 5.078125 35.59375 
Q 5.078125 23.390625 5.8125 19.09375 
Q 6.203125 16.796875 6.78125 15.28125 
Q 7.421875 13.8125 8.203125 12.203125 
Q 10.796875 7.28125 16.5 3.515625 
Q 22.125 -0.390625 30.515625 -0.59375 
Q 41.40625 -0.390625 48.578125 6.78125 
Q 55.71875 14.015625 55.90625 24.703125 
L 55.90625 39.203125 
L 30.609375 39.203125 
z
" id="DINAlternate-Bold-47"/>
     <path d="M 8.40625 17.28125 
L 1.3125 9.1875 
Q 12.703125 -0.59375 28.515625 -0.59375 
Q 52.984375 -0.296875 53.515625 20.125 
Q 53.515625 27.6875 48.78125 33.40625 
Q 44 39.203125 33.984375 40.578125 
Q 28.90625 41.21875 25.984375 41.703125 
Q 20.703125 42.671875 18.3125 45.21875 
Q 15.921875 47.703125 15.921875 50.78125 
Q 16.015625 55.90625 19.484375 58.5 
Q 22.796875 60.984375 27.78125 60.984375 
Q 37.40625 60.796875 45.40625 55.515625 
L 45.40625 55.515625 
L 51.421875 64.40625 
Q 41.609375 71.484375 28.328125 71.78125 
Q 17.28125 71.6875 11.28125 66.015625 
Q 5.078125 60.296875 5.078125 50.984375 
Q 5.078125 43.21875 10.015625 37.796875 
Q 14.796875 32.515625 23.96875 31 
Q 29.109375 30.28125 33.40625 29.6875 
Q 42.78125 28.078125 42.671875 20.125 
Q 42.484375 10.40625 28.609375 10.203125 
Q 16.890625 10.296875 8.40625 17.28125 
z
" id="DINAlternate-Bold-53"/>
    </defs>
    <g transform="translate(255.412 17.5365)scale(0.144 -0.144)">
     <use xlink:href="#DINAlternate-Bold-4d"/>
     <use x="75.78125" xlink:href="#DINAlternate-Bold-69"/>
     <use x="99.755859" xlink:href="#DINAlternate-Bold-63"/>
     <use x="144.140625" xlink:href="#DINAlternate-Bold-68"/>
     <use x="197.851562" xlink:href="#DINAlternate-Bold-69"/>
     <use x="221.826172" xlink:href="#DINAlternate-Bold-67"/>
     <use x="273.730469" xlink:href="#DINAlternate-Bold-61"/>
     <use x="323.730469" xlink:href="#DINAlternate-Bold-6e"/>
     <use x="377.441406" xlink:href="#DINAlternate-Bold-20"/>
     <use x="401.416016" xlink:href="#DINAlternate-Bold-49"/>
     <use x="427.197266" xlink:href="#DINAlternate-Bold-73"/>
     <use x="475.195312" xlink:href="#DINAlternate-Bold-20"/>
     <use x="499.169922" xlink:href="#DINAlternate-Bold-74"/>
     <use x="526.953125" xlink:href="#DINAlternate-Bold-68"/>
     <use x="580.664062" xlink:href="#DINAlternate-Bold-65"/>
     <use x="630.664062" xlink:href="#DINAlternate-Bold-20"/>
     <use x="654.638672" xlink:href="#DINAlternate-Bold-4d"/>
     <use x="730.419922" xlink:href="#DINAlternate-Bold-6f"/>
     <use x="780.419922" xlink:href="#DINAlternate-Bold-73"/>
     <use x="828.417969" xlink:href="#DINAlternate-Bold-74"/>
     <use x="856.201172" xlink:href="#DINAlternate-Bold-20"/>
     <use x="880.175781" xlink:href="#DINAlternate-Bold-47"/>
     <use x="941.162109" xlink:href="#DINAlternate-Bold-61"/>
     <use x="991.162109" xlink:href="#DINAlternate-Bold-72"/>
     <use x="1030.078125" xlink:href="#DINAlternate-Bold-62"/>
     <use x="1081.982422" xlink:href="#DINAlternate-Bold-61"/>
     <use x="1131.982422" xlink:href="#DINAlternate-Bold-67"/>
     <use x="1183.886719" xlink:href="#DINAlternate-Bold-65"/>
     <use x="1233.886719" xlink:href="#DINAlternate-Bold-20"/>
     <use x="1257.861328" xlink:href="#DINAlternate-Bold-53"/>
     <use x="1315.234375" xlink:href="#DINAlternate-Bold-74"/>
     <use x="1343.017578" xlink:href="#DINAlternate-Bold-61"/>
     <use x="1393.017578" xlink:href="#DINAlternate-Bold-74"/>
     <use x="1420.800781" xlink:href="#DINAlternate-Bold-65"/>
    </g>
   </g>
  </g>
 </g>
 <defs>
  <clipPath id="p434432aa4e">
   <rect height="277.2" width="558" x="82.309375" y="53.887"/>
  </clipPath>
 </defs>
</svg>
